<?xml version="1.0" encoding="utf-8"?>
<!-- Generator: Adobe Illustrator 12.0.1, SVG Export Plug-In . SVG Version: 6.00 Build 51448)  -->
<!DOCTYPE svg PUBLIC "-//W3C//DTD SVG 1.0//EN" "http://www.w3.org/TR/2001/REC-SVG-20010904/DTD/svg10.dtd" [
	<!ENTITY ns_svg "http://www.w3.org/2000/svg">
	<!ENTITY ns_xlink "http://www.w3.org/1999/xlink">
]>
<svg  version="1.0" id="Layer_1" xmlns="&ns_svg;" xmlns:xlink="&ns_xlink;" width="303.242" height="123.73"
	 viewBox="0 0 303.242 123.73" overflow="visible" enable-background="new 0 0 303.242 123.73" xml:space="preserve">
<rect fill-rule="evenodd" clip-rule="evenodd" fill="#FFB6AD" width="303.242" height="123.73"/>
<path fill="#FFFFFF" stroke="#F3D8DD" stroke-width="2" d="M259.748,52.572c0,0-56.555,0.457-64.828-2
	c-8.275-2.457-25.041-17.468-46.465-17.468c-21.424,0-39.789,16.591-46.466,18.468s-67.129,1-67.129,1
	c-5.084,0-15.068,4.417-15.068,9.867c0,5.449,9.984,9.866,15.068,9.866c0,0,60.476-0.644,67.131,1.5s25.041,17.966,46.464,17.966
	c21.422,0,39.737-14.609,46.463-17.466s64.83-2,64.83-2c5.084,0,17.369-4.417,17.369-9.866
	C277.117,56.989,264.832,52.572,259.748,52.572z"/>
<path fill-rule="evenodd" clip-rule="evenodd" fill="#FFB6AD" d="M273.814,61.702c0,1.4-1.135,2.535-2.535,2.535H31.962
	c-1.4,0-2.535-1.135-2.535-2.535l0,0c0-1.4,1.135-2.535,2.535-2.535h239.317C272.68,59.167,273.814,60.302,273.814,61.702
	L273.814,61.702z"/>
<path fill-rule="evenodd" clip-rule="evenodd" fill="#D25096" d="M262.656,59.167c0,0,2.715,2.355,0,5.07h2.334
	c0,0,2.25-2.82,0-5.07H262.656z"/>
<path fill-rule="evenodd" clip-rule="evenodd" fill="#D25096" d="M252.656,59.167c0,0,2.715,2.355,0,5.07h2.334
	c0,0,2.25-2.82,0-5.07H252.656z"/>
<path fill-rule="evenodd" clip-rule="evenodd" fill="#D25096" d="M242.656,59.167c0,0,2.715,2.355,0,5.07h2.334
	c0,0,2.25-2.82,0-5.07H242.656z"/>
<path fill-rule="evenodd" clip-rule="evenodd" fill="#D25096" d="M232.656,59.167c0,0,2.715,2.355,0,5.07h2.334
	c0,0,2.25-2.82,0-5.07H232.656z"/>
<path fill-rule="evenodd" clip-rule="evenodd" fill="#D25096" d="M222.656,59.167c0,0,2.715,2.355,0,5.07h2.334
	c0,0,2.25-2.82,0-5.07H222.656z"/>
<path fill-rule="evenodd" clip-rule="evenodd" fill="#D25096" d="M212.656,59.167c0,0,2.715,2.355,0,5.07h2.334
	c0,0,2.25-2.82,0-5.07H212.656z"/>
<path fill-rule="evenodd" clip-rule="evenodd" fill="#D25096" d="M202.656,59.167c0,0,2.715,2.355,0,5.07h2.334
	c0,0,2.25-2.82,0-5.07H202.656z"/>
<path fill-rule="evenodd" clip-rule="evenodd" fill="#D25096" d="M192.656,59.167c0,0,2.715,2.355,0,5.07h2.334
	c0,0,2.25-2.82,0-5.07H192.656z"/>
<path fill-rule="evenodd" clip-rule="evenodd" fill="#D25096" d="M40.584,64.237c0,0-2.715-2.355,0-5.07H38.25c0,0-2.25,2.82,0,5.07
	H40.584z"/>
<path fill-rule="evenodd" clip-rule="evenodd" fill="#D25096" d="M50.584,64.237c0,0-2.715-2.355,0-5.07H48.25c0,0-2.25,2.82,0,5.07
	H50.584z"/>
<path fill-rule="evenodd" clip-rule="evenodd" fill="#D25096" d="M60.584,64.237c0,0-2.715-2.355,0-5.07H58.25c0,0-2.25,2.82,0,5.07
	H60.584z"/>
<path fill-rule="evenodd" clip-rule="evenodd" fill="#D25096" d="M70.584,64.237c0,0-2.715-2.355,0-5.07H68.25c0,0-2.25,2.82,0,5.07
	H70.584z"/>
<path fill-rule="evenodd" clip-rule="evenodd" fill="#D25096" d="M80.584,64.237c0,0-2.715-2.355,0-5.07H78.25c0,0-2.25,2.82,0,5.07
	H80.584z"/>
<path fill-rule="evenodd" clip-rule="evenodd" fill="#D25096" d="M90.584,64.237c0,0-2.715-2.355,0-5.07H88.25c0,0-2.25,2.82,0,5.07
	H90.584z"/>
<path fill-rule="evenodd" clip-rule="evenodd" fill="#D25096" d="M100.584,64.237c0,0-2.715-2.355,0-5.07H98.25
	c0,0-2.25,2.82,0,5.07H100.584z"/>
<path fill-rule="evenodd" clip-rule="evenodd" fill="#D25096" d="M110.584,64.237c0,0-2.715-2.355,0-5.07h-2.334
	c0,0-2.25,2.82,0,5.07H110.584z"/>
<text transform="matrix(1 0 0 1 7.5815 12.3745)"><tspan x="0" y="0" fill="#523DD7" font-family="'MyriadPro-Regular'" font-size="11">gamma (γ) </tspan><tspan x="0" y="13.2" fill="#523DD7" font-family="'MyriadPro-Regular'" font-size="11">motor fiber</tspan></text>
<text transform="matrix(1 0 0 1 89.5415 14.834)" fill="#EBA43F" font-family="'MyriadPro-Regular'" font-size="11">Ia sensory fiber</text>
<g>
	<text transform="matrix(1 0 0 1 215.4141 112.8184)" fill="#FB3A6E" font-family="'MyriadPro-Regular'" font-size="14">contractile</text>
</g>
<g>
	<text transform="matrix(1 0 0 1 27.0811 112.8188)" fill="#FB3A6E" font-family="'MyriadPro-Regular'" font-size="14">contractile</text>
</g>
<text transform="matrix(1 0 0 1 107.3599 113.3184)" fill="#F97CD1" font-family="'MyriadPro-Regular'" font-size="14">non-contractile</text>
<g>
	<path fill-rule="evenodd" clip-rule="evenodd" fill="#001ADF" d="M43.574,61.806c0,0.712-0.661,1.089-1.476,1.089
		c-0.815,0-1.476-0.576-1.476-1.287c0-0.712,0.66-1.288,1.476-1.288C42.913,60.319,43.574,61.097,43.574,61.806z"/>
	<path fill-rule="evenodd" clip-rule="evenodd" fill="#001ADF" d="M47.129,60.372c0,0.777-0.875,1.609-1.69,1.609
		c-0.814,0-1.263-0.832-1.263-1.609c0-0.774,0.661-1.403,1.477-1.403S47.129,59.598,47.129,60.372z"/>
	<path fill-rule="evenodd" clip-rule="evenodd" fill="#001ADF" d="M48.772,62.756c0,0.774-0.873,1.956-1.688,1.956
		c-0.815,0-1.476-0.629-1.476-1.404c0-0.776,0.661-1.107,1.476-1.107C47.9,62.2,48.772,61.98,48.772,62.756z"/>
	<path fill-rule="evenodd" clip-rule="evenodd" fill="#001ADF" d="M53.124,61.304c0,0.774-1.143,1.742-1.959,1.742
		c-0.814,0-0.993-0.968-0.993-1.742c0-0.776,1.151-1.322,1.968-1.322C52.954,59.981,53.124,60.527,53.124,61.304z"/>
	<g>
		<path fill-rule="evenodd" clip-rule="evenodd" fill="none" stroke="#001ADF" stroke-linecap="round" d="M28.484,30.472
			c4.723,2.941,8.993,6.745,10.538,8.909c1.543,2.161,4.905,8.301,5.722,14.181"/>
		<path fill-rule="evenodd" clip-rule="evenodd" fill="none" stroke="#001ADF" stroke-linecap="round" d="M42.098,61.607
			c0,0,0.061-5.001,0.238-5.451c0.358-0.907,0.692-2.205,2.407-2.919"/>
		<path fill-rule="evenodd" clip-rule="evenodd" fill="none" stroke="#001ADF" stroke-linecap="round" d="M45.652,60.308
			c0,0,0.216-3.989,0-4.573c-0.216-0.583-0.466-2.27-0.806-2.593"/>
		<path fill-rule="evenodd" clip-rule="evenodd" fill="none" stroke="#001ADF" stroke-linecap="round" d="M47.19,63.441l1.073-1.156
			c0,0-0.205-2.918,0-3.632s1.567-2.627,1.567-2.627"/>
		<path fill-rule="evenodd" clip-rule="evenodd" fill="none" stroke="#001ADF" stroke-linecap="round" d="M51.526,61.63
			c0,0,0.816-1.551,0.515-2.263c-0.302-0.714-4.067-5.821-5.003-6.098c-0.937-0.275-2.191-0.128-2.191-0.128"/>
	</g>
</g>
<g>
	<path fill-rule="evenodd" clip-rule="evenodd" fill="none" stroke="#FFB61A" d="M87.051,24.324c11.5,0,48.417,2.917,56,10.5
		s12.167,15.834,13,23"/>
	<path fill-rule="evenodd" clip-rule="evenodd" fill="none" stroke="#FFB61A" d="M139.217,57.657c0,0,5-3.666,5-10.833
		s0-10.801,0-10.801"/>
</g>
<path fill-rule="evenodd" clip-rule="evenodd" fill="#FFB61A" d="M109.615,64.237c1.298,1.449,3.33,3.744,5.195,3.671
	c1.511-0.059,4.427-0.466,5.05-2.613c0.932-3.21,0.693-2.698,0.92-3.735c0.127-0.582,0.751-1.923,1.091-2.249
	c0.934-0.896,4.049-1.466,5.108-0.144h1.842c0,0,0.073-0.564-0.384-1.292c-1.078-1.714-6.366-1.868-8.185-0.12
	c-0.822,0.789-1.564,2.667-1.714,3.354c-0.186,0.851,0.145,0.363-0.424,2.762c-0.36,1.52-2.573,1.807-3.398,1.839
	c-0.985,0.039-1.79-0.376-2.72-1.472H109.615z"/>
<path fill-rule="evenodd" clip-rule="evenodd" fill="#FFB61A" d="M125.488,64.237c1.298,1.449,3.33,3.744,5.196,3.671
	c1.511-0.059,4.427-0.466,5.05-2.613c0.932-3.21,0.694-2.698,0.92-3.735c0.127-0.582,0.752-1.923,1.092-2.249
	c0.933-0.896,4.049-1.466,5.108-0.144h1.842c0,0,0.073-0.564-0.384-1.292c-1.078-1.714-6.366-1.868-8.185-0.12
	c-0.822,0.789-1.564,2.667-1.714,3.354c-0.186,0.851,0.144,0.363-0.424,2.762c-0.36,1.52-2.574,1.807-3.398,1.839
	c-0.984,0.039-1.79-0.376-2.72-1.472H125.488z"/>
<path fill-rule="evenodd" clip-rule="evenodd" fill="#FFB61A" d="M141.362,64.237c1.298,1.449,3.33,3.744,5.195,3.671
	c1.511-0.059,4.427-0.466,5.05-2.613c0.932-3.21,0.694-2.698,0.921-3.735c0.127-0.582,0.751-1.923,1.091-2.249
	c0.933-0.896,4.049-1.466,5.108-0.144h1.843c0,0,0.072-0.564-0.384-1.292c-1.078-1.714-6.366-1.868-8.186-0.12
	c-0.822,0.789-1.564,2.667-1.714,3.354c-0.186,0.851,0.145,0.363-0.424,2.762c-0.36,1.52-2.573,1.807-3.398,1.839
	c-0.985,0.039-1.791-0.376-2.72-1.472H141.362z"/>
<path fill-rule="evenodd" clip-rule="evenodd" fill="#FFB61A" d="M157.236,64.237c1.297,1.449,3.329,3.744,5.194,3.671
	c1.512-0.059,4.428-0.466,5.05-2.613c0.933-3.21,0.694-2.698,0.922-3.735c0.127-0.582,0.752-1.923,1.091-2.249
	c0.934-0.896,4.049-1.466,5.108-0.144h1.843c0,0,0.072-0.564-0.384-1.292c-1.079-1.714-6.367-1.868-8.186-0.12
	c-0.822,0.789-1.565,2.667-1.715,3.354c-0.186,0.851,0.145,0.363-0.424,2.762c-0.359,1.52-2.573,1.807-3.399,1.839
	c-0.983,0.039-1.788-0.376-2.719-1.472H157.236z"/>
<path fill-rule="evenodd" clip-rule="evenodd" fill="#FFB61A" d="M173.11,64.237c1.297,1.449,3.329,3.744,5.194,3.671
	c1.512-0.059,4.428-0.466,5.05-2.613c0.933-3.21,0.694-2.698,0.921-3.735c0.127-0.582,0.752-1.923,1.092-2.249
	c0.934-0.896,4.049-1.466,5.108-0.144h1.843c0,0,0.072-0.564-0.385-1.292c-1.078-1.714-6.366-1.868-8.185-0.12
	c-0.822,0.789-1.565,2.667-1.715,3.354c-0.186,0.851,0.145,0.363-0.424,2.762c-0.36,1.52-2.574,1.807-3.399,1.839
	c-0.983,0.039-1.789-0.376-2.719-1.472H173.11z"/>
</svg>
