<?xml version="1.0" encoding="iso-8859-1"?>
<!-- Uploaded to: SVG Repo, www.svgrepo.com, Generator: SVG Repo Mixer Tools -->
<svg fill="#000000" height="800px" width="800px" version="1.1" id="Layer_1" xmlns="http://www.w3.org/2000/svg" xmlns:xlink="http://www.w3.org/1999/xlink" 
	 viewBox="0 0 512 512" xml:space="preserve">
<g>
	<g>
		<g>
			<path d="M132.896,258.34c-3.135-3.136-8.219-3.136-11.355,0l-79.894,79.893c-1.595,1.595-2.446,3.789-2.344,6.043l1.497,32.877
				c0.196,4.306,3.748,7.665,8.015,7.665c0.123,0,0.247-0.002,0.371-0.009c4.43-0.202,7.857-3.956,7.656-8.386l-1.336-29.339
				l77.389-77.389C136.033,266.56,136.033,261.476,132.896,258.34z"/>
			<path d="M505.723,132.786L379.378,6.442c-4.055-4.054-9.445-6.287-15.18-6.287c-5.734,0-11.125,2.232-15.179,6.287
				l-28.105,28.105c-6.962,6.961-8.3,17.729-3.253,26.183l34.071,57.07L210.004,259.527l-48.9-48.9
				c-12.405-12.406-32.594-12.408-45.002,0l-49.907,49.907c-3.136,3.136-3.136,8.22,0,11.355c3.136,3.136,8.22,3.136,11.355,0
				l49.907-49.907c2.977-2.977,6.936-4.617,11.145-4.617c4.21,0,8.168,1.639,11.145,4.617l48.9,48.9l-5.242,5.242
				c-0.738,0.737-1.399,1.553-1.968,2.426l-40.71,62.472c-3.942,6.048-3.116,13.825,2.01,18.91c0.346,0.343,0.706,0.663,1.074,0.966
				c0.121,0.1,0.246,0.187,0.369,0.283c0.253,0.196,0.508,0.389,0.769,0.566c0.15,0.102,0.304,0.195,0.456,0.29
				c0.245,0.154,0.491,0.303,0.742,0.441c0.163,0.09,0.328,0.174,0.492,0.258c0.252,0.126,0.505,0.245,0.762,0.358
				c0.168,0.073,0.335,0.145,0.505,0.211c0.267,0.105,0.536,0.198,0.808,0.287c0.163,0.054,0.324,0.109,0.488,0.156
				c0.304,0.088,0.61,0.159,0.919,0.228c0.135,0.03,0.268,0.066,0.404,0.093c0.446,0.086,0.896,0.154,1.348,0.198
				c0.01,0.001,0.019,0.001,0.029,0.001c0.441,0.042,0.883,0.062,1.326,0.064c0.029,0,0.057,0.004,0.085,0.004
				c0.317,0,0.634-0.014,0.951-0.034c0.042-0.003,0.083-0.001,0.125-0.004c0.389-0.028,0.777-0.075,1.165-0.134
				c0.132-0.02,0.262-0.049,0.394-0.073c0.259-0.047,0.517-0.096,0.775-0.157c0.152-0.036,0.303-0.078,0.454-0.119
				c0.238-0.064,0.474-0.133,0.71-0.209c0.153-0.049,0.306-0.102,0.459-0.156c0.234-0.085,0.468-0.176,0.7-0.272
				c0.146-0.061,0.291-0.12,0.437-0.185c0.249-0.112,0.496-0.237,0.742-0.365c0.121-0.063,0.243-0.121,0.363-0.187
				c0.363-0.2,0.722-0.414,1.073-0.647l62.03-41.113c0.838-0.557,1.623-1.198,2.326-1.903l5.262-5.261l48.9,48.9
				c2.977,2.977,4.617,6.936,4.617,11.145s-1.639,8.168-4.617,11.145L183.721,491.168c-3.26,3.258-7.761,4.922-12.36,4.569
				L36.508,485.311c-7.923-0.612-14.169-7.06-14.531-14.997l-5.902-129.688c-0.201-4.414,1.475-8.736,4.599-11.862l35.596-35.595
				c3.136-3.136,3.136-8.22,0-11.356s-8.22-3.136-11.355,0L9.32,317.409c-6.308,6.308-9.694,15.036-9.287,23.947l5.902,129.688
				c0.729,16.026,13.341,29.043,29.335,30.28l134.853,10.426c0.824,0.063,1.646,0.095,2.465,0.095
				c8.408,0,16.492-3.324,22.489-9.321l106.461-106.462c6.011-6.009,9.321-14.001,9.321-22.5c0-8.499-3.31-16.49-9.321-22.5
				l-48.9-48.9l82.366-82.365c3.136-3.136,3.136-8.22,0-11.355c-3.135-3.136-8.219-3.136-11.355,0l-93.162,93.161l-5.75,5.749
				l-57.907,38.381l38.009-58.325l10.847-10.846c0.001-0.001,0.003-0.003,0.004-0.005l146.146-146.146l19.921,19.921l-36.427,36.427
				c-3.136,3.136-3.136,8.22,0,11.355c3.136,3.136,8.22,3.136,11.355,0l37.682-37.682l57.07,34.07
				c3.325,1.985,7.128,3.035,10.999,3.035c5.736,0,11.129-2.233,15.184-6.288l28.105-28.105
				C514.093,154.774,514.093,141.156,505.723,132.786z M494.366,151.789l-28.105,28.104c-1.021,1.021-2.381,1.585-3.828,1.585
				c-0.973,0-1.93-0.264-2.768-0.764l-61.584-36.765l-29.866-29.866l-36.764-61.584c-1.272-2.13-0.935-4.841,0.819-6.596
				l28.105-28.104c1.021-1.021,2.379-1.583,3.824-1.583c1.444,0,2.802,0.562,3.823,1.583l126.345,126.345
				C496.476,146.25,496.476,149.681,494.366,151.789z"/>
			<path d="M383.544,42.661c-4.146-4.146-9.657-6.428-15.52-6.428c-5.863,0-11.374,2.283-15.52,6.428
				c-8.558,8.558-8.558,22.481,0,31.039l80.753,80.753c4.146,4.145,9.657,6.428,15.52,6.428s11.374-2.283,15.52-6.428
				c8.556-8.558,8.556-22.481-0.001-31.039L383.544,42.661z M452.94,143.097c-1.112,1.112-2.591,1.725-4.164,1.725
				s-3.051-0.612-4.164-1.725l-80.752-80.753c-2.297-2.297-2.297-6.032,0-8.327c1.112-1.112,2.59-1.725,4.164-1.725
				c1.573,0,3.051,0.612,4.164,1.725l80.753,80.753C455.236,137.065,455.236,140.8,452.94,143.097z"/>
		</g>
	</g>
</g>
</svg>