<?xml version="1.0" encoding="UTF-8" standalone="no"?>
<!-- Generator: Adobe Illustrator 23.0.2, SVG Export Plug-In . SVG Version: 6.00 Build 0)  -->

<svg
   version="1.1"
   id="Layer_1"
   x="0px"
   y="0px"
   viewBox="100 32 470 195"
   style="enable-background:new 100 32 470 195;"
   xml:space="preserve"
   sodipodi:docname="evolution-silhouettes-remix.svg"
   inkscape:version="1.2.2 (b0a8486, 2022-12-01)"
   xmlns:inkscape="http://www.inkscape.org/namespaces/inkscape"
   xmlns:sodipodi="http://sodipodi.sourceforge.net/DTD/sodipodi-0.dtd"
   xmlns:xlink="http://www.w3.org/1999/xlink"
   xmlns="http://www.w3.org/2000/svg"
   xmlns:svg="http://www.w3.org/2000/svg"
   xmlns:rdf="http://www.w3.org/1999/02/22-rdf-syntax-ns#"
   xmlns:cc="http://creativecommons.org/ns#"
   xmlns:dc="http://purl.org/dc/elements/1.1/"><defs
   id="defs214049"><linearGradient
     inkscape:collect="always"
     xlink:href="#SVGID_15_"
     id="linearGradient218046"
     gradientUnits="userSpaceOnUse"
     gradientTransform="matrix(0.9982,0.0601,-0.0601,0.9982,10.197244,-1.6439591)"
     x1="546.8561"
     y1="88.2883"
     x2="493.0143"
     y2="37.4941" /><linearGradient
     inkscape:collect="always"
     xlink:href="#SVGID_12_"
     id="linearGradient218050"
     gradientUnits="userSpaceOnUse"
     gradientTransform="translate(4.3422283,-9.4739529)"
     x1="451.43942"
     y1="137.8945"
     x2="428.60312"
     y2="120.66837" /></defs><sodipodi:namedview
   id="namedview214047"
   pagecolor="#ffffff"
   bordercolor="#000000"
   borderopacity="0.25"
   inkscape:showpageshadow="2"
   inkscape:pageopacity="0.0"
   inkscape:pagecheckerboard="0"
   inkscape:deskcolor="#d1d1d1"
   showgrid="false"
   showguides="true"
   inkscape:zoom="1.6607987"
   inkscape:cx="367.59421"
   inkscape:cy="165.28192"
   inkscape:window-width="1652"
   inkscape:window-height="1099"
   inkscape:window-x="0"
   inkscape:window-y="25"
   inkscape:window-maximized="0"
   inkscape:current-layer="Layer_1" />
<style
   type="text/css"
   id="style213865">
	.st0{fill-rule:evenodd;clip-rule:evenodd;fill:#2a2218;}
	.st1{fill-rule:evenodd;clip-rule:evenodd;fill:#2a2218;}
	.st2{fill-rule:evenodd;clip-rule:evenodd;fill:#2a2218;}
	.st3{fill-rule:evenodd;clip-rule:evenodd;fill:none;stroke:none;stroke-width:0;stroke-miterlimit:10;}
	.st4{fill-rule:evenodd;clip-rule:evenodd;fill:none;stroke:none;stroke-width:0;stroke-miterlimit:10;}
	.st5{fill-rule:evenodd;clip-rule:evenodd;fill:#2a2218;}
	.st6{fill-rule:evenodd;clip-rule:evenodd;fill:#2a2218;}
	.st7{fill-rule:evenodd;clip-rule:evenodd;fill:#2a2218;}
	.st8{fill-rule:evenodd;clip-rule:evenodd;fill:#2a2218;}
	.st9{fill-rule:evenodd;clip-rule:evenodd;fill:#2a2218;}
	.st10{fill-rule:evenodd;clip-rule:evenodd;fill:#2a2218;}
	.st11{fill-rule:evenodd;clip-rule:evenodd;fill:#2a2218;}
	.st12{fill-rule:evenodd;clip-rule:evenodd;fill:#2a2218;}
	.st13{fill-rule:evenodd;clip-rule:evenodd;fill:#2a2218;}
	.st14{fill-rule:evenodd;clip-rule:evenodd;fill:#2a2218;}
	.st15{fill-rule:evenodd;clip-rule:evenodd;fill:#2a2218;}
	.st16{fill:#2a2218;}
	.st17{fill:#2a2218;}
	.st18{fill-rule:evenodd;clip-rule:evenodd;fill:#2a2218;}
	.st19{fill-rule:evenodd;clip-rule:evenodd;fill:#2a2218;}
	.st20{fill-rule:evenodd;clip-rule:evenodd;fill:#2a2218;}
</style>
<path
   class="st14"
   d="m 437.01222,117.35604 c 4.83,2.02 9.56,4.01 9.78,3.92 0.42,-0.18 2.55,0.07 3.02,0.41 0.47,0.34 3.99,1.69 4.55,1.89 0.57,0.2 1,1.04 1,1.04 0,0 2.03,0.75 2.65,1.67 0.62,0.91 0.71,1.75 0.53,2.44 -0.17,0.69 -1.12,0.99 -1.12,0.99 0,0 0.26,0.43 -0.34,1.02 -0.59,0.59 -1.09,1.03 -1.09,1.03 0,0 -0.23,0.24 -0.61,1.02 -0.38,0.78 -1.92,0.49 -1.92,0.49 0,0 -1.67,1.27 -2.76,0.57 -1.09,-0.7 -3.62,-2.39 -5.37,-2.87 -1.75,-0.48 -4.16,-4.2 -4.16,-4.2 0,0 -3.28,-0.48 -6.55,-1.02 0,0 -17.04,-3.84 -18.59,-6.49 0,0 -1.11,-0.66 -1.77,-1.77 -0.66,-1.11 -1.11,-4.2 -1.11,-4.2 0,0 0.33,-3.32 -0.22,-4.53 -0.55,-1.22 -2.43,-4.42 -2.54,-7.51999 5.03467,-2.077621 3.40179,-1.23916 12.72,0.23 -1.22,5.96999 -1.66,8.39999 -1.11,9.50999 l 0.55,1.11 c 0,0 12.54,4.46 14.46,5.26 z"
   id="path218048"
   style="fill:#2a2218"
   sodipodi:nodetypes="ccscccccccscsscccsccccscc" /><path
   class="st0"
   d="M429.78,141.73c-0.41-0.91,0.52-6.5,0.52-6.5c3.27,0.54,6.55,1.02,6.55,1.02s2.41,3.72,4.16,4.2  c1.75,0.48,4.28,2.16,5.37,2.87c1.09,0.7,2.76-0.57,2.76-0.57s1.54,0.29,1.92-0.49c0.38-0.78,0.61-1.02,0.61-1.02  s0.5-0.45,1.09-1.03c0.59-0.59,0.34-1.02,0.34-1.02s0.95-0.3,1.12-0.99c0.17-0.69,0.09-1.53-0.53-2.44  c-0.62-0.91-2.65-1.67-2.65-1.67s-0.44-0.85-1-1.04c-0.56-0.2-4.09-1.55-4.55-1.89c-0.47-0.34-2.6-0.59-3.02-0.41  c-0.23,0.1-4.99-1.82-9.78-3.92c0,0-0.13-0.52-0.13-1.19c0-0.66,0.33-1.82,0.55-2.87c0.22-1.05,0.94-6.25,0.94-6.25  s0.77-2.32,0.94-3.65c0.17-1.33-0.22-0.99,0.06-3.26c0.28-2.27,0.28-3.98,0.28-3.98c2.43-3.48,0.22-6.63-0.22-7.46  c-0.44-0.83-0.66-1.38-0.66-1.38l-0.17-0.33c0,0-0.06-0.17-0.11-0.33c-0.06-0.17-4.2-9.45-4.59-10.28  c-0.39-0.83-0.94-2.27-0.61-3.37c0.33-1.11,1.05-1.99,1.99-3.26s1.82-0.66,1.82-0.66c3.59,0.83,8.51-0.66,9.4-1.49  c0.88-0.83,0.94-1.6,0.94-1.6s0.66-0.11,1.22-0.83c0.55-0.72-0.22-0.94-0.22-0.94c0.88-0.39,0.66-1.27,0.66-1.27s0,0,0.17-0.72  c0.17-0.72-0.17-1.33-0.17-1.33s0.77-0.66,0.88-1.44c0.11-0.77-0.72-1.27-0.72-1.27l-2.43-1.33c-1.05-0.77-0.11-1.55-0.11-1.55  c1.33-1.16,0.39-1.44-0.55-2.21c-0.94-0.77-2.43-2.32-2.43-2.32c0.33-1.82-0.83-2.49-1.77-3.26c-0.94-0.77-3.43-0.61-4.92-0.61  c-1.49,0-1.88,0.17-2.82,0.17c-0.94,0-2.71-0.11-2.71-0.11c-2.1,0.33-6.85,2.54-7.85,3.48c-1,0.94-0.94,2.1-1.99,3.37  c-1.05,1.27-2.1,3.76-2.1,4.81s-0.77,2.87-0.83,4.04c-0.06,1.16-0.66,2.05-1.49,3.65c-0.83,1.6-1,4.42-1,4.42s-1.77,1.93-3.32,3.26  c-1.55,1.33-3.48,5.8-3.54,7.3c-0.06,1.49-0.44,3.92-0.44,3.92c-0.66,1.16-1.33,4.81-1.33,4.81c-0.33,6.14,1.82,14.21,2.43,16.2  c0.61,1.99,2.1,8.18,1.66,9.12c-0.44,0.94-0.72,3.43-0.72,3.43s-1.77,1.77-3.48,5.14c-1.71,3.37-2.05,8.13-1.49,10.28  c0.55,2.16,2.05,4.42,3.87,5.42s1.38,2.21,1.55,3.7c0.17,1.49,0.77,10.72,0.94,11.83c0.17,1.11,2.76,8.73,2.87,10.17  c0.11,1.44-0.83,2.54-2.16,3.81c-1.33,1.27-2.54,1.66-3.76,2.1c-0.87,0.31-1.82,1.05-2.29,1.45c-0.21,0.17-0.43,0.32-0.67,0.44  c-0.62,0.31-1.91,1.01-3.12,1.98c-1.66,1.33-3.43,5.91-4.97,8.24c-1.55,2.32-6.8,9.29-8.57,10.94c-1.77,1.66-2.16,1.55-2.76,2.21  c-0.61,0.66-1.44,1.82-0.28,3.76c1.16,1.93,1.82,1.88,3.87,3.81c2.05,1.93,3.7,4.86,4.04,5.8c0.33,0.94,1.77,1.6,2.05,1.88  c0.28,0.28,2.43,0.33,2.43,0.33s0.5-0.11,1.11,0.33c0.61,0.44,1.49,0.17,1.49,0.17s0,0.33,0.94,0.55c0.94,0.22,1.38-0.44,1.38-0.44  c0.44,0.28,1.22,0.06,1.22,0.06s-0.28-0.22,0.5,0c0.77,0.22,1.38-0.28,1.38-0.28s0.33,0.39,1.44,0.06c1.11-0.33,1.27-0.99,0.77-1.33  c-0.5-0.33-0.64-0.41-0.64-0.66c0-0.25-1.33-1.24-2.4-1.49c-1.08-0.25-2.65-1.16-2.65-1.16c-2.07-4.56-1.58-1.99-4.06-5.97  c-2.49-3.98,1.08-6.8,1.08-6.8s5.47-5.22,10.53-8.54c5.06-3.32,7.55-8.96,10.86-9.87c3.32-0.91,5.22-3.81,5.22-3.81  c0.33,1.24-0.75,3.98-1.99,7.3c-1.24,3.32,0.17,9.29,0.17,9.29s1.99,12.77,2.24,14.51c0.25,1.74-0.66,4.23-0.66,4.23  s-0.83,1.49-1.08,3.32c-0.25,1.82,1.16,2.98,1.16,2.98c2.9,1.49,4.89,0.75,7.3,0c2.4-0.75,4.64-0.25,5.39-0.17  c0.75,0.08,3.32-0.5,3.65-0.5c2.9,0.41,3.98,0.17,4.64,0.17c0.66,0,2.24-0.83,2.24-0.83s1.58,0.75,3.15-0.33  c1.58-1.08-0.58-2.24-0.58-2.24c-0.33-1-2.07-1.16-2.07-1.16c-1-1.49-4.56-0.5-4.56-0.5s-2.32-1.33-4.15-1.41  c-1.82-0.08-3.07-0.58-3.07-0.58c-3.23-1.66-2.98-5.8-2.98-5.8s1.08-7.3,1.99-12.77c0.91-5.47,0.41-7.38,0.33-9.87  c-0.08-2.49,1.41-6.88,1.41-6.88c0.83-1.41,1.33-1.82,1.33-3.81c0-1.99-0.66-3.48-1.16-4.31c-0.5-0.83-0.25-1.99-0.58-5.06  c0,0-0.25-14.26-2.9-18.41c0,0-1.99-2.98-2.49-4.15C429.11,144.22,429.78,141.73,429.78,141.73z"
   id="path213867" />
<linearGradient
   id="SVGID_1_"
   gradientUnits="userSpaceOnUse"
   x1="463.5444"
   y1="130.9305"
   x2="445.6343"
   y2="136.9005">
	<stop
   offset="0"
   style="stop-color:#EA7924"
   id="stop213869" />
	<stop
   offset="1"
   style="stop-color:#EA7924;stop-opacity:0"
   id="stop213871" />
</linearGradient>
<path
   class="st1"
   d="M429.78,141.73c-0.41-0.91,0.52-6.5,0.52-6.5c3.27,0.54,6.55,1.02,6.55,1.02s2.41,3.72,4.16,4.2  c1.75,0.48,4.28,2.16,5.37,2.87c1.09,0.7,2.76-0.57,2.76-0.57s1.54,0.29,1.92-0.49c0.38-0.78,0.61-1.02,0.61-1.02  s0.5-0.45,1.09-1.03c0.59-0.59,0.34-1.02,0.34-1.02s0.95-0.3,1.12-0.99c0.17-0.69,0.09-1.53-0.53-2.44  c-0.62-0.91-2.65-1.67-2.65-1.67s-0.44-0.85-1-1.04c-0.56-0.2-4.09-1.55-4.55-1.89c-0.47-0.34-2.6-0.59-3.02-0.41  c-0.23,0.1-4.99-1.82-9.78-3.92c0,0-0.13-0.52-0.13-1.19c0-0.66,0.33-1.82,0.55-2.87c0.22-1.05,0.94-6.25,0.94-6.25  s0.77-2.32,0.94-3.65c0.17-1.33-0.22-0.99,0.06-3.26c0.28-2.27,0.28-3.98,0.28-3.98c2.43-3.48,0.22-6.63-0.22-7.46  c-0.44-0.83-0.66-1.38-0.66-1.38l-0.17-0.33c0,0-0.06-0.17-0.11-0.33c-0.06-0.17-4.2-9.45-4.59-10.28  c-0.39-0.83-0.94-2.27-0.61-3.37c0.33-1.11,1.05-1.99,1.99-3.26s1.82-0.66,1.82-0.66c3.59,0.83,8.51-0.66,9.4-1.49  c0.88-0.83,0.94-1.6,0.94-1.6s0.66-0.11,1.22-0.83c0.55-0.72-0.22-0.94-0.22-0.94c0.88-0.39,0.66-1.27,0.66-1.27s0,0,0.17-0.72  c0.17-0.72-0.17-1.33-0.17-1.33s0.77-0.66,0.88-1.44c0.11-0.77-0.72-1.27-0.72-1.27l-2.43-1.33c-1.05-0.77-0.11-1.55-0.11-1.55  c1.33-1.16,0.39-1.44-0.55-2.21c-0.94-0.77-2.43-2.32-2.43-2.32c0.33-1.82-0.83-2.49-1.77-3.26c-0.94-0.77-3.43-0.61-4.92-0.61  c-1.49,0-1.88,0.17-2.82,0.17c-0.94,0-2.71-0.11-2.71-0.11c-2.1,0.33-6.85,2.54-7.85,3.48c-1,0.94-0.94,2.1-1.99,3.37  c-1.05,1.27-2.1,3.76-2.1,4.81s-0.77,2.87-0.83,4.04c-0.06,1.16-0.66,2.05-1.49,3.65c-0.83,1.6-1,4.42-1,4.42s-1.77,1.93-3.32,3.26  c-1.55,1.33-3.48,5.8-3.54,7.3c-0.06,1.49-0.44,3.92-0.44,3.92c-0.66,1.16-1.33,4.81-1.33,4.81c-0.33,6.14,1.82,14.21,2.43,16.2  c0.61,1.99,2.1,8.18,1.66,9.12c-0.44,0.94-0.72,3.43-0.72,3.43s-1.77,1.77-3.48,5.14c-1.71,3.37-2.05,8.13-1.49,10.28  c0.55,2.16,2.05,4.42,3.87,5.42s1.38,2.21,1.55,3.7c0.17,1.49,0.77,10.72,0.94,11.83c0.17,1.11,2.76,8.73,2.87,10.17  c0.11,1.44-0.83,2.54-2.16,3.81c-1.33,1.27-2.54,1.66-3.76,2.1c-0.87,0.31-1.82,1.05-2.29,1.45c-0.21,0.17-0.43,0.32-0.67,0.44  c-0.62,0.31-1.91,1.01-3.12,1.98c-1.66,1.33-3.43,5.91-4.97,8.24c-1.55,2.32-6.8,9.29-8.57,10.94c-1.77,1.66-2.16,1.55-2.76,2.21  c-0.61,0.66-1.44,1.82-0.28,3.76c1.16,1.93,1.82,1.88,3.87,3.81c2.05,1.93,3.7,4.86,4.04,5.8c0.33,0.94,1.77,1.6,2.05,1.88  c0.28,0.28,2.43,0.33,2.43,0.33s0.5-0.11,1.11,0.33c0.61,0.44,1.49,0.17,1.49,0.17s0,0.33,0.94,0.55c0.94,0.22,1.38-0.44,1.38-0.44  c0.44,0.28,1.22,0.06,1.22,0.06s-0.28-0.22,0.5,0c0.77,0.22,1.38-0.28,1.38-0.28s0.33,0.39,1.44,0.06c1.11-0.33,1.27-0.99,0.77-1.33  c-0.5-0.33-0.64-0.41-0.64-0.66c0-0.25-1.33-1.24-2.4-1.49c-1.08-0.25-2.65-1.16-2.65-1.16c-2.07-4.56-1.58-1.99-4.06-5.97  c-2.49-3.98,1.08-6.8,1.08-6.8s5.47-5.22,10.53-8.54c5.06-3.32,7.55-8.96,10.86-9.87c3.32-0.91,5.22-3.81,5.22-3.81  c0.33,1.24-0.75,3.98-1.99,7.3c-1.24,3.32,0.17,9.29,0.17,9.29s1.99,12.77,2.24,14.51c0.25,1.74-0.66,4.23-0.66,4.23  s-0.83,1.49-1.08,3.32c-0.25,1.82,1.16,2.98,1.16,2.98c2.9,1.49,4.89,0.75,7.3,0c2.4-0.75,4.64-0.25,5.39-0.17  c0.75,0.08,3.32-0.5,3.65-0.5c2.9,0.41,3.98,0.17,4.64,0.17c0.66,0,2.24-0.83,2.24-0.83s1.58,0.75,3.15-0.33  c1.58-1.08-0.58-2.24-0.58-2.24c-0.33-1-2.07-1.16-2.07-1.16c-1-1.49-4.56-0.5-4.56-0.5s-2.32-1.33-4.15-1.41  c-1.82-0.08-3.07-0.58-3.07-0.58c-3.23-1.66-2.98-5.8-2.98-5.8s1.08-7.3,1.99-12.77c0.91-5.47,0.41-7.38,0.33-9.87  c-0.08-2.49,1.41-6.88,1.41-6.88c0.83-1.41,1.33-1.82,1.33-3.81c0-1.99-0.66-3.48-1.16-4.31c-0.5-0.83-0.25-1.99-0.58-5.06  c0,0-0.25-14.26-2.9-18.41c0,0-1.99-2.98-2.49-4.15C429.11,144.22,429.78,141.73,429.78,141.73z"
   id="path213874" />
<linearGradient
   id="SVGID_2_"
   gradientUnits="userSpaceOnUse"
   x1="464.6996"
   y1="184.6589"
   x2="433.8545"
   y2="156.4671">
	<stop
   offset="0"
   style="stop-color:#EA7924"
   id="stop213876" />
	<stop
   offset="1"
   style="stop-color:#EA7924;stop-opacity:0"
   id="stop213878" />
</linearGradient>
<path
   class="st2"
   d="M429.78,141.73c-0.41-0.91,0.52-6.5,0.52-6.5c3.27,0.54,6.55,1.02,6.55,1.02s2.41,3.72,4.16,4.2  c1.75,0.48,4.28,2.16,5.37,2.87c1.09,0.7,2.76-0.57,2.76-0.57s1.54,0.29,1.92-0.49c0.38-0.78,0.61-1.02,0.61-1.02  s0.5-0.45,1.09-1.03c0.59-0.59,0.34-1.02,0.34-1.02s0.95-0.3,1.12-0.99c0.17-0.69,0.09-1.53-0.53-2.44  c-0.62-0.91-2.65-1.67-2.65-1.67s-0.44-0.85-1-1.04c-0.56-0.2-4.09-1.55-4.55-1.89c-0.47-0.34-2.6-0.59-3.02-0.41  c-0.23,0.1-4.99-1.82-9.78-3.92c0,0-0.13-0.52-0.13-1.19c0-0.66,0.33-1.82,0.55-2.87c0.22-1.05,0.94-6.25,0.94-6.25  s0.77-2.32,0.94-3.65c0.17-1.33-0.22-0.99,0.06-3.26c0.28-2.27,0.28-3.98,0.28-3.98c2.43-3.48,0.22-6.63-0.22-7.46  c-0.44-0.83-0.66-1.38-0.66-1.38l-0.17-0.33c0,0-0.06-0.17-0.11-0.33c-0.06-0.17-4.2-9.45-4.59-10.28  c-0.39-0.83-0.94-2.27-0.61-3.37c0.33-1.11,1.05-1.99,1.99-3.26s1.82-0.66,1.82-0.66c3.59,0.83,8.51-0.66,9.4-1.49  c0.88-0.83,0.94-1.6,0.94-1.6s0.66-0.11,1.22-0.83c0.55-0.72-0.22-0.94-0.22-0.94c0.88-0.39,0.66-1.27,0.66-1.27s0,0,0.17-0.72  c0.17-0.72-0.17-1.33-0.17-1.33s0.77-0.66,0.88-1.44c0.11-0.77-0.72-1.27-0.72-1.27l-2.43-1.33c-1.05-0.77-0.11-1.55-0.11-1.55  c1.33-1.16,0.39-1.44-0.55-2.21c-0.94-0.77-2.43-2.32-2.43-2.32c0.33-1.82-0.83-2.49-1.77-3.26c-0.94-0.77-3.43-0.61-4.92-0.61  c-1.49,0-1.88,0.17-2.82,0.17c-0.94,0-2.71-0.11-2.71-0.11c-2.1,0.33-6.85,2.54-7.85,3.48c-1,0.94-0.94,2.1-1.99,3.37  c-1.05,1.27-2.1,3.76-2.1,4.81s-0.77,2.87-0.83,4.04c-0.06,1.16-0.66,2.05-1.49,3.65c-0.83,1.6-1,4.42-1,4.42s-1.77,1.93-3.32,3.26  c-1.55,1.33-3.48,5.8-3.54,7.3c-0.06,1.49-0.44,3.92-0.44,3.92c-0.66,1.16-1.33,4.81-1.33,4.81c-0.33,6.14,1.82,14.21,2.43,16.2  c0.61,1.99,2.1,8.18,1.66,9.12c-0.44,0.94-0.72,3.43-0.72,3.43s-1.77,1.77-3.48,5.14c-1.71,3.37-2.05,8.13-1.49,10.28  c0.55,2.16,2.05,4.42,3.87,5.42s1.38,2.21,1.55,3.7c0.17,1.49,0.77,10.72,0.94,11.83c0.17,1.11,2.76,8.73,2.87,10.17  c0.11,1.44-0.83,2.54-2.16,3.81c-1.33,1.27-2.54,1.66-3.76,2.1c-0.87,0.31-1.82,1.05-2.29,1.45c-0.21,0.17-0.43,0.32-0.67,0.44  c-0.62,0.31-1.91,1.01-3.12,1.98c-1.66,1.33-3.43,5.91-4.97,8.24c-1.55,2.32-6.8,9.29-8.57,10.94c-1.77,1.66-2.16,1.55-2.76,2.21  c-0.61,0.66-1.44,1.82-0.28,3.76c1.16,1.93,1.82,1.88,3.87,3.81c2.05,1.93,3.7,4.86,4.04,5.8c0.33,0.94,1.77,1.6,2.05,1.88  c0.28,0.28,2.43,0.33,2.43,0.33s0.5-0.11,1.11,0.33c0.61,0.44,1.49,0.17,1.49,0.17s0,0.33,0.94,0.55c0.94,0.22,1.38-0.44,1.38-0.44  c0.44,0.28,1.22,0.06,1.22,0.06s-0.28-0.22,0.5,0c0.77,0.22,1.38-0.28,1.38-0.28s0.33,0.39,1.44,0.06c1.11-0.33,1.27-0.99,0.77-1.33  c-0.5-0.33-0.64-0.41-0.64-0.66c0-0.25-1.33-1.24-2.4-1.49c-1.08-0.25-2.65-1.16-2.65-1.16c-2.07-4.56-1.58-1.99-4.06-5.97  c-2.49-3.98,1.08-6.8,1.08-6.8s5.47-5.22,10.53-8.54c5.06-3.32,7.55-8.96,10.86-9.87c3.32-0.91,5.22-3.81,5.22-3.81  c0.33,1.24-0.75,3.98-1.99,7.3c-1.24,3.32,0.17,9.29,0.17,9.29s1.99,12.77,2.24,14.51c0.25,1.74-0.66,4.23-0.66,4.23  s-0.83,1.49-1.08,3.32c-0.25,1.82,1.16,2.98,1.16,2.98c2.9,1.49,4.89,0.75,7.3,0c2.4-0.75,4.64-0.25,5.39-0.17  c0.75,0.08,3.32-0.5,3.65-0.5c2.9,0.41,3.98,0.17,4.64,0.17c0.66,0,2.24-0.83,2.24-0.83s1.58,0.75,3.15-0.33  c1.58-1.08-0.58-2.24-0.58-2.24c-0.33-1-2.07-1.16-2.07-1.16c-1-1.49-4.56-0.5-4.56-0.5s-2.32-1.33-4.15-1.41  c-1.82-0.08-3.07-0.58-3.07-0.58c-3.23-1.66-2.98-5.8-2.98-5.8s1.08-7.3,1.99-12.77c0.91-5.47,0.41-7.38,0.33-9.87  c-0.08-2.49,1.41-6.88,1.41-6.88c0.83-1.41,1.33-1.82,1.33-3.81c0-1.99-0.66-3.48-1.16-4.31c-0.5-0.83-0.25-1.99-0.58-5.06  c0,0-0.25-14.26-2.9-18.41c0,0-1.99-2.98-2.49-4.15C429.11,144.22,429.78,141.73,429.78,141.73z"
   id="path213881" />



<path
   class="st0"
   d="M323.13,179.82c0,0-0.11,2.32-0.66,3.87c0,0,0.66,1.88-0.99,3.43c-1.66,1.55-6.52,4.09-6.52,4.09  s-11.83,6.3-17.14,7.08c0,0-4.42,1.44-4.42,3.43c0,0,0.66,2.76,0.77,3.98c0.11,1.22,0.22,2.54,2.1,3.76  c1.88,1.22,1.33,1.44,1.33,1.44s1.66,0.33,2.21,3.1c0,0,0.22,1.66-0.44,1.66c-0.66,0-0.66,0-0.66,0s-1.44,0.33-1.99-0.22  c-0.55-0.55-2.54-1.66-3.43-1.66l0.11,1.27c0,0,0.58,1.33-0.58,1.16c-1.16-0.17-2.16-0.58-2.16-0.99s-0.12-1.53-0.41-1.87  c-0.29-0.33-0.7-0.54-1-0.66s0.08,0.12-0.29-0.12c-0.37-0.25-0.7-0.83-0.79-2.07c-0.08-1.24,0.17-2.36-0.08-3.19  c-0.25-0.83-1.78-3.07-2.2-4.19s-1.04-3.19-0.54-4.23c0.5-1.04,2.16-2.16,2.16-2.16l7.96-5.6c0,0,4.27-3.98,5.68-4.73  c1.41-0.75,3.86-2.49,6.34-2.53c0,0,2.16-0.5,3.19-1.08c1.04-0.58,1.62-1.04,1.58-1.7c-0.04-0.66-3.44-10.74-3.69-12.27  c-0.25-1.53-0.04-3.4-0.33-4.19c-0.29-0.79-2.16-4.64-2.82-5.97c-0.66-1.33-0.95-2.03-1.08-3.36c-0.12-1.33,0.66-5.02,0.95-5.85  c0.29-0.83,1.78-5.76,2.03-7.42c0.25-1.66,0.17-4.27,0.17-4.27s-3.11-5.27-3.44-7.21l-0.29-0.91c0,0-0.62-1-0.17-1.45  c0.46-0.46,0.66-0.79,0.66-0.79s1.2-3.03,4.1-6.84c2.9-3.81,4.39-5.06,4.39-5.06s0.12-1.7,0.91-3.69c0.79-1.99,4.93-7.05,4.93-7.05  s6.72-6.22,7.5-7.05c0.79-0.83,2.65-3.11,3.4-4.52c0.75-1.41,3.48-4.35,6.51-4.81c3.03-0.46,5.68,0,5.68,0s2.2,0.41,2.69,1.33  c0.5,0.91,0.5,1.29,0.5,1.29s0.33,0.91,0.87,1.24c0.54,0.33,1.58,1.12,2.11,1.62c0.54,0.5,0.75,0.87,1.04,1.08  c0.29,0.21,0.54,0.04,0.58,0.79c0.04,0.75-0.08,0.91-0.79,1.45l0.04,0.25l1.33,1.91c0,0,0.79,0.83,0.17,1.66  c0,0,1.33,1.45,1.58,2.86c0,0,0.37,1.16-0.25,1.37c0,0,0.58,0.21,0.29,0.7c-0.29,0.5-0.5,0.91-0.83,1.08  c-0.33,0.17-2.03,3.28-5.1,2.61c-3.07-0.66-6.63-1.29-7.17-1.33c-0.54-0.04-2.03-0.41-2.07,0.83c-0.04,1.24,0.37,8.58,0.54,10.07  c0.17,1.49,1.12,6.14-1.33,9.25l-0.33,0.17c0,0-0.25,2.45-1.74,5.06l-0.66,1.49l8.29,0.08c0,0,2.65-0.12,3.98,0.33  c1.33,0.46,2.11-0.87,2.11-0.87s1.2-0.66,1.82-0.75s1.37-0.37,1.99,0.5c0.62,0.87,0.54,1,2.07,1.12s3.61,0.46,3.61,0.46  s1.37,0.17,1.41,1.33c0,0,1.37,1.16,0.95,2.36c-0.41,1.2-0.83,1.04-0.83,1.04s0,1.29-0.25,1.62c-0.25,0.33-1.12,0.91-1.12,0.91  s0.21,0.91-0.54,1.29c-0.75,0.37-1,0.41-1,0.41s0,1-0.7,1.04c-0.7,0.04-1.82,0.25-2.61-0.5c-0.79-0.75-0.95-0.83-0.95-0.83  l-3.32-1.87l-0.46-0.17c0,0-1.58-0.17-2.32-0.62c0,0-1.37-0.54-4.27-0.08c-2.9,0.46-7.26,1.41-9.87,0.99c0,0-1.78,3.48-4.15,6.55  c0,0-1.08,1.33-1.49,3.98c-0.41,2.65-0.17,2.32-0.17,2.32s1.87,4.02,3.03,5.18c1.16,1.16,2.82,2.99,4.81,7.13  c1.99,4.15,2.32,9.12,2.32,9.12l1,2.49c0,0,1.66,2.16,1.66,3.65c0,1.49-1.99,7.3-1.99,7.3s-0.17,5.31-1.49,10.28  c-1.33,4.98-3.32,9.62-2.98,11.77c0,0,0,2.49,0.33,3.15c0.33,0.66,4.15,0.66,6.96,2.16l1.66-0.17c0,0,0.99-0.58,2.16,1.08  c-0.08-0.08,2.32,0.66,2.9,2.07c0,0,0.75-0.17,0.66,1.08c-0.25,0-0.75,0.41-0.75,0.41s-0.5,0.66-2.24,0l-1.99,0.25  c0,0-1.24,0.17-2.49,0c-1.24-0.17-2.24,0.17-3.65,0.17c-1.41,0-1.41,0-1.41,0s-1.99-0.17-2.24-0.33c-0.25-0.17-3.65,0.66-4.89,0.5  c-1.24-0.17-2.07-0.58-2.65-1.82c-0.58-1.24-0.08-3.07-0.08-3.07s0.83-8.04,0.58-10.7c-0.25-2.65-1.58-7.63-1.08-9.7  c0.5-2.07,4.15-9.45,3.98-10.45S328.16,184.24,323.13,179.82z"
   id="path213889" />
<linearGradient
   id="SVGID_3_"
   gradientUnits="userSpaceOnUse"
   x1="367.4238"
   y1="149.4522"
   x2="338.2369"
   y2="156.0856">
	<stop
   offset="0"
   style="stop-color:#EA7924"
   id="stop213891" />
	<stop
   offset="1"
   style="stop-color:#EA7924;stop-opacity:0"
   id="stop213893" />
</linearGradient>
<path
   class="st5"
   d="M323.13,179.82c0,0-0.11,2.32-0.66,3.87c0,0,0.66,1.88-0.99,3.43c-1.66,1.55-6.52,4.09-6.52,4.09  s-11.83,6.3-17.14,7.08c0,0-4.42,1.44-4.42,3.43c0,0,0.66,2.76,0.77,3.98c0.11,1.22,0.22,2.54,2.1,3.76  c1.88,1.22,1.33,1.44,1.33,1.44s1.66,0.33,2.21,3.1c0,0,0.22,1.66-0.44,1.66c-0.66,0-0.66,0-0.66,0s-1.44,0.33-1.99-0.22  c-0.55-0.55-2.54-1.66-3.43-1.66l0.11,1.27c0,0,0.58,1.33-0.58,1.16c-1.16-0.17-2.16-0.58-2.16-0.99s-0.12-1.53-0.41-1.87  c-0.29-0.33-0.7-0.54-1-0.66s0.08,0.12-0.29-0.12c-0.37-0.25-0.7-0.83-0.79-2.07c-0.08-1.24,0.17-2.36-0.08-3.19  c-0.25-0.83-1.78-3.07-2.2-4.19s-1.04-3.19-0.54-4.23c0.5-1.04,2.16-2.16,2.16-2.16l7.96-5.6c0,0,4.27-3.98,5.68-4.73  c1.41-0.75,3.86-2.49,6.34-2.53c0,0,2.16-0.5,3.19-1.08c1.04-0.58,1.62-1.04,1.58-1.7c-0.04-0.66-3.44-10.74-3.69-12.27  c-0.25-1.53-0.04-3.4-0.33-4.19c-0.29-0.79-2.16-4.64-2.82-5.97c-0.66-1.33-0.95-2.03-1.08-3.36c-0.12-1.33,0.66-5.02,0.95-5.85  c0.29-0.83,1.78-5.76,2.03-7.42c0.25-1.66,0.17-4.27,0.17-4.27s-3.11-5.27-3.44-7.21l-0.29-0.91c0,0-0.62-1-0.17-1.45  c0.46-0.46,0.66-0.79,0.66-0.79s1.2-3.03,4.1-6.84c2.9-3.81,4.39-5.06,4.39-5.06s0.12-1.7,0.91-3.69c0.79-1.99,4.93-7.05,4.93-7.05  s6.72-6.22,7.5-7.05c0.79-0.83,2.65-3.11,3.4-4.52c0.75-1.41,3.48-4.35,6.51-4.81c3.03-0.46,5.68,0,5.68,0s2.2,0.41,2.69,1.33  c0.5,0.91,0.5,1.29,0.5,1.29s0.33,0.91,0.87,1.24c0.54,0.33,1.58,1.12,2.11,1.62c0.54,0.5,0.75,0.87,1.04,1.08  c0.29,0.21,0.54,0.04,0.58,0.79c0.04,0.75-0.08,0.91-0.79,1.45l0.04,0.25l1.33,1.91c0,0,0.79,0.83,0.17,1.66  c0,0,1.33,1.45,1.58,2.86c0,0,0.37,1.16-0.25,1.37c0,0,0.58,0.21,0.29,0.7c-0.29,0.5-0.5,0.91-0.83,1.08  c-0.33,0.17-2.03,3.28-5.1,2.61c-3.07-0.66-6.63-1.29-7.17-1.33c-0.54-0.04-2.03-0.41-2.07,0.83c-0.04,1.24,0.37,8.58,0.54,10.07  c0.17,1.49,1.12,6.14-1.33,9.25l-0.33,0.17c0,0-0.25,2.45-1.74,5.06l-0.66,1.49l8.29,0.08c0,0,2.65-0.12,3.98,0.33  c1.33,0.46,2.11-0.87,2.11-0.87s1.2-0.66,1.82-0.75s1.37-0.37,1.99,0.5c0.62,0.87,0.54,1,2.07,1.12s3.61,0.46,3.61,0.46  s1.37,0.17,1.41,1.33c0,0,1.37,1.16,0.95,2.36c-0.41,1.2-0.83,1.04-0.83,1.04s0,1.29-0.25,1.62c-0.25,0.33-1.12,0.91-1.12,0.91  s0.21,0.91-0.54,1.29c-0.75,0.37-1,0.41-1,0.41s0,1-0.7,1.04c-0.7,0.04-1.82,0.25-2.61-0.5c-0.79-0.75-0.95-0.83-0.95-0.83  l-3.32-1.87l-0.46-0.17c0,0-1.58-0.17-2.32-0.62c0,0-1.37-0.54-4.27-0.08c-2.9,0.46-7.26,1.41-9.87,0.99c0,0-1.78,3.48-4.15,6.55  c0,0-1.08,1.33-1.49,3.98c-0.41,2.65-0.17,2.32-0.17,2.32s1.87,4.02,3.03,5.18c1.16,1.16,2.82,2.99,4.81,7.13  c1.99,4.15,2.32,9.12,2.32,9.12l1,2.49c0,0,1.66,2.16,1.66,3.65c0,1.49-1.99,7.3-1.99,7.3s-0.17,5.31-1.49,10.28  c-1.33,4.98-3.32,9.62-2.98,11.77c0,0,0,2.49,0.33,3.15c0.33,0.66,4.15,0.66,6.96,2.16l1.66-0.17c0,0,0.99-0.58,2.16,1.08  c-0.08-0.08,2.32,0.66,2.9,2.07c0,0,0.75-0.17,0.66,1.08c-0.25,0-0.75,0.41-0.75,0.41s-0.5,0.66-2.24,0l-1.99,0.25  c0,0-1.24,0.17-2.49,0c-1.24-0.17-2.24,0.17-3.65,0.17c-1.41,0-1.41,0-1.41,0s-1.99-0.17-2.24-0.33c-0.25-0.17-3.65,0.66-4.89,0.5  c-1.24-0.17-2.07-0.58-2.65-1.82c-0.58-1.24-0.08-3.07-0.08-3.07s0.83-8.04,0.58-10.7c-0.25-2.65-1.58-7.63-1.08-9.7  c0.5-2.07,4.15-9.45,3.98-10.45S328.16,184.24,323.13,179.82z"
   id="path213896" />
<linearGradient
   id="SVGID_4_"
   gradientUnits="userSpaceOnUse"
   x1="359.0624"
   y1="217.4053"
   x2="333.1922"
   y2="176.2784">
	<stop
   offset="0"
   style="stop-color:#EA7924"
   id="stop213898" />
	<stop
   offset="1"
   style="stop-color:#EA7924;stop-opacity:0"
   id="stop213900" />
</linearGradient>
<path
   class="st6"
   d="M323.13,179.82c0,0-0.11,2.32-0.66,3.87c0,0,0.66,1.88-0.99,3.43c-1.66,1.55-6.52,4.09-6.52,4.09  s-11.83,6.3-17.14,7.08c0,0-4.42,1.44-4.42,3.43c0,0,0.66,2.76,0.77,3.98c0.11,1.22,0.22,2.54,2.1,3.76  c1.88,1.22,1.33,1.44,1.33,1.44s1.66,0.33,2.21,3.1c0,0,0.22,1.66-0.44,1.66c-0.66,0-0.66,0-0.66,0s-1.44,0.33-1.99-0.22  c-0.55-0.55-2.54-1.66-3.43-1.66l0.11,1.27c0,0,0.58,1.33-0.58,1.16c-1.16-0.17-2.16-0.58-2.16-0.99s-0.12-1.53-0.41-1.87  c-0.29-0.33-0.7-0.54-1-0.66s0.08,0.12-0.29-0.12c-0.37-0.25-0.7-0.83-0.79-2.07c-0.08-1.24,0.17-2.36-0.08-3.19  c-0.25-0.83-1.78-3.07-2.2-4.19s-1.04-3.19-0.54-4.23c0.5-1.04,2.16-2.16,2.16-2.16l7.96-5.6c0,0,4.27-3.98,5.68-4.73  c1.41-0.75,3.86-2.49,6.34-2.53c0,0,2.16-0.5,3.19-1.08c1.04-0.58,1.62-1.04,1.58-1.7c-0.04-0.66-3.44-10.74-3.69-12.27  c-0.25-1.53-0.04-3.4-0.33-4.19c-0.29-0.79-2.16-4.64-2.82-5.97c-0.66-1.33-0.95-2.03-1.08-3.36c-0.12-1.33,0.66-5.02,0.95-5.85  c0.29-0.83,1.78-5.76,2.03-7.42c0.25-1.66,0.17-4.27,0.17-4.27s-3.11-5.27-3.44-7.21l-0.29-0.91c0,0-0.62-1-0.17-1.45  c0.46-0.46,0.66-0.79,0.66-0.79s1.2-3.03,4.1-6.84c2.9-3.81,4.39-5.06,4.39-5.06s0.12-1.7,0.91-3.69c0.79-1.99,4.93-7.05,4.93-7.05  s6.72-6.22,7.5-7.05c0.79-0.83,2.65-3.11,3.4-4.52c0.75-1.41,3.48-4.35,6.51-4.81c3.03-0.46,5.68,0,5.68,0s2.2,0.41,2.69,1.33  c0.5,0.91,0.5,1.29,0.5,1.29s0.33,0.91,0.87,1.24c0.54,0.33,1.58,1.12,2.11,1.62c0.54,0.5,0.75,0.87,1.04,1.08  c0.29,0.21,0.54,0.04,0.58,0.79c0.04,0.75-0.08,0.91-0.79,1.45l0.04,0.25l1.33,1.91c0,0,0.79,0.83,0.17,1.66  c0,0,1.33,1.45,1.58,2.86c0,0,0.37,1.16-0.25,1.37c0,0,0.58,0.21,0.29,0.7c-0.29,0.5-0.5,0.91-0.83,1.08  c-0.33,0.17-2.03,3.28-5.1,2.61c-3.07-0.66-6.63-1.29-7.17-1.33c-0.54-0.04-2.03-0.41-2.07,0.83c-0.04,1.24,0.37,8.58,0.54,10.07  c0.17,1.49,1.12,6.14-1.33,9.25l-0.33,0.17c0,0-0.25,2.45-1.74,5.06l-0.66,1.49l8.29,0.08c0,0,2.65-0.12,3.98,0.33  c1.33,0.46,2.11-0.87,2.11-0.87s1.2-0.66,1.82-0.75s1.37-0.37,1.99,0.5c0.62,0.87,0.54,1,2.07,1.12s3.61,0.46,3.61,0.46  s1.37,0.17,1.41,1.33c0,0,1.37,1.16,0.95,2.36c-0.41,1.2-0.83,1.04-0.83,1.04s0,1.29-0.25,1.62c-0.25,0.33-1.12,0.91-1.12,0.91  s0.21,0.91-0.54,1.29c-0.75,0.37-1,0.41-1,0.41s0,1-0.7,1.04c-0.7,0.04-1.82,0.25-2.61-0.5c-0.79-0.75-0.95-0.83-0.95-0.83  l-3.32-1.87l-0.46-0.17c0,0-1.58-0.17-2.32-0.62c0,0-1.37-0.54-4.27-0.08c-2.9,0.46-7.26,1.41-9.87,0.99c0,0-1.78,3.48-4.15,6.55  c0,0-1.08,1.33-1.49,3.98c-0.41,2.65-0.17,2.32-0.17,2.32s1.87,4.02,3.03,5.18c1.16,1.16,2.82,2.99,4.81,7.13  c1.99,4.15,2.32,9.12,2.32,9.12l1,2.49c0,0,1.66,2.16,1.66,3.65c0,1.49-1.99,7.3-1.99,7.3s-0.17,5.31-1.49,10.28  c-1.33,4.98-3.32,9.62-2.98,11.77c0,0,0,2.49,0.33,3.15c0.33,0.66,4.15,0.66,6.96,2.16l1.66-0.17c0,0,0.99-0.58,2.16,1.08  c-0.08-0.08,2.32,0.66,2.9,2.07c0,0,0.75-0.17,0.66,1.08c-0.25,0-0.75,0.41-0.75,0.41s-0.5,0.66-2.24,0l-1.99,0.25  c0,0-1.24,0.17-2.49,0c-1.24-0.17-2.24,0.17-3.65,0.17c-1.41,0-1.41,0-1.41,0s-1.99-0.17-2.24-0.33c-0.25-0.17-3.65,0.66-4.89,0.5  c-1.24-0.17-2.07-0.58-2.65-1.82c-0.58-1.24-0.08-3.07-0.08-3.07s0.83-8.04,0.58-10.7c-0.25-2.65-1.58-7.63-1.08-9.7  c0.5-2.07,4.15-9.45,3.98-10.45S328.16,184.24,323.13,179.82z"
   id="path213903" />





<path
   class="st0"
   d="M247.77,119.79l2.98-2.21c0,0,2.43,2.54,4.42,3.21c1.99,0.66,1.55,0.66,1.99,0.66c0.44,0,3.21,0,3.21,0  s1.44,0.11,2.43-1.55l1.33-2.43c0,0,0.77,0.22,0.22-1.11c-0.55-1.33-0.77-1.66-0.77-1.66s0.33-1.11-0.22-1.55  c-0.55-0.44-1.55-1.11-1.55-2.43c0,0,1.66-1,0.99-1.88c-0.66-0.88-2.21-1.99-2.21-1.99l-1.44-1.44c0,0-0.11-2.65-2.98-3.65  c-2.87-0.99-5.09-0.55-6.08-0.44c-1,0.11-4.86,1.44-6.85,4.64c0,0-2.54,2.76-4.42,3.76c-1.88,1-7.19,4.31-7.85,5.2  c-0.66,0.88-5.09,5.75-6.19,8.96c-1.11,3.21-4.42,12.94-5.42,16.69c-1,3.76-1.99,17.03-1.99,17.03s-2.1,5.31-1.55,8.84  c0.55,3.54,4.64,6.74,4.64,6.74l8.84,14.7c0,0-0.22,2.87-2.1,3.65c-1.88,0.77-3.87,1.44-4.98,2.76c-1.11,1.33-5.2,8.96-5.2,8.96  l-3.65,5.86c0,0-2.76,2.21-0.66,5.97c0,0,0.77,1.88,3.1,2.98c0,0,1.27,1.44,1.27,2.85c0,1.41,0.75,1.74,1.33,1.82  c0.58,0.08,1-1.33,1-1.33s-0.83-1.82,0.66-0.91c1.49,0.91,3.07,2.4,3.81,2.24c0.75-0.17,0.95-0.79,1.82-0.33  c0.87,0.46,1.12,0.58,1.62,0.58c0.5,0,1.16-0.54,1.16-0.54s0.54,0,0.29-0.87l-0.21-0.66c0,0-0.46-0.62-0.91-0.79  c-0.46-0.17-3.48-1.66-3.48-1.66s-0.83-0.37-1.24-0.95c-0.41-0.58-1.12-1.74-1.62-1.99c-0.5-0.25-1.53-1.04-1.78-1.7  c-0.25-0.66-0.75-1.41,0.62-2.69c1.37-1.29,8.91-9.45,8.91-9.45s3.44-3.44,4.23-5.31c0,0,1.12-1.78,1.95-1.99  c0.83-0.21,1.74-1.12,1.99-1.95c0.25-0.83,0.83-2.86,0.75-3.19c-0.08-0.33,0.7-1.08,0.7-1.08l0.5-1.08c0,0,0.41-0.17,0.66,0.83  c0.25,1,0.66,3.15,0.46,3.73c-0.21,0.58-1,2.82-0.75,4.73c0.25,1.91,0.95,3.44,0.95,4.39c0,0.95-0.08,2.45,0.75,5.1  c0.83,2.65,1.29,7.63,1.29,9.83c0,0-0.21,0.87,0,1.62c0.21,0.75,0.46,1.87,0.46,1.87s-0.04,1.66,0.79,2.24  c0.83,0.58,2.07,1.29,2.82,1.24c0.75-0.04,0.54-0.04,0.75-0.04s0.21,0,0.21,0l4.06-0.17c0,0,0.79-0.29,2.36,0.41  c0,0,0.5,0.12,1.91,0.12s2.28-0.17,2.28-0.17s1.7,0.5,2.53,0c0,0,0.79-0.08,1.29-0.62c0,0,0.91,0.04,1.2-0.12  c0.29-0.17-0.7-1.2-0.7-1.2s0.25-0.79-0.12-0.99c-0.37-0.21-0.62-0.54-0.62-0.54s-0.12-0.62-1.08-0.95  c-0.95-0.33-1.87-0.21-1.87-0.21s-0.54-0.87-1.12-0.75c-0.58,0.12-0.75,0.25-1.53,0.21c-0.79-0.04-1.49-0.7-1.99-0.75  c-0.5-0.04-1.41,0-1.41,0s-0.87,0.33-1.78-0.58s-1.29-1.53-1.41-2.69c-0.12-1.16,0.37-10.24,0.37-10.24s0.29-6.51-0.46-8.62  c0,0-0.33-1.2,0-2.2c0.33-1,0.54-0.95,0.54-1.78c0-0.83-0.08-1.53-0.08-1.53s0.58-1.7,0.37-3.28c-0.21-1.58-1.45-3.86-1.45-3.86  l-3.48-4.85c0,0-1.37-2.45-2.49-3.65c-1.12-1.2-4.15-3.77-4.15-3.77s-2.03-1.78-2.53-2.74c0,0-1.41-3.19-1.37-4.44  c0,0,1.58-2.69,2.03-3.4c0.46-0.7,3.15-4.6,3.28-5.6c0,0,1.16,3.44,2.57,5.85c1.41,2.4,7.55,8.62,7.55,8.62s0.95,1.2,1.16,3.36  s0.7,2.45,0.7,2.45s-0.04,2.82,0.08,3.57c0.12,0.75-0.04,0.95,0,1.37c0.04,0.41-0.54,2.16-0.04,2.74l0.33,0.25  c0,0-0.7,2.24,0.12,2.45c0,0,0.33,0.83,1.53-0.04c0,0,1.41-0.83,1.99-2.11c0.58-1.29,0.75-1.29,0.75-1.29l-0.08-0.95  c0,0,0.95-1.24,0.91-2.86c0,0,0.54,0.58,0.87,0.37s0.46-1.7,0.21-2.57c-0.25-0.87-1.08-3.61-1.08-3.61s-0.21-0.83-0.41-0.83  c-0.21,0-0.58-0.54-0.79-0.83c-0.21-0.29-6.01-11.86-6.59-13.06c-0.58-1.2-0.95-2.74-1.95-4.27c-1-1.53-3.15-3.32-3.77-5.56  c0,0,1-3.94,1.12-4.64c0.12-0.7,0.46-3.57,0.46-3.57s1.33-0.25,1.74-1.58c0.41-1.33,0.04-3.44,0.04-3.44s0.75-0.41,0.66-2.69  c-0.08-2.28-0.54-5.39-0.54-6.22c0-0.83,0.66-0.7,0.54-1.7c-0.12-0.99-0.58-2.45-0.58-2.45S247.52,119.94,247.77,119.79z"
   id="path213915" />
<linearGradient
   id="SVGID_5_"
   gradientUnits="userSpaceOnUse"
   x1="284.7046"
   y1="144.5271"
   x2="272.267"
   y2="151.9897">
	<stop
   offset="0"
   style="stop-color:#EA7924"
   id="stop213917" />
	<stop
   offset="1"
   style="stop-color:#EA7924;stop-opacity:0"
   id="stop213919" />
</linearGradient>
<path
   class="st7"
   d="M247.77,119.79l2.98-2.21c0,0,2.43,2.54,4.42,3.21c1.99,0.66,1.55,0.66,1.99,0.66c0.44,0,3.21,0,3.21,0  s1.44,0.11,2.43-1.55l1.33-2.43c0,0,0.77,0.22,0.22-1.11c-0.55-1.33-0.77-1.66-0.77-1.66s0.33-1.11-0.22-1.55  c-0.55-0.44-1.55-1.11-1.55-2.43c0,0,1.66-1,0.99-1.88c-0.66-0.88-2.21-1.99-2.21-1.99l-1.44-1.44c0,0-0.11-2.65-2.98-3.65  c-2.87-0.99-5.09-0.55-6.08-0.44c-1,0.11-4.86,1.44-6.85,4.64c0,0-2.54,2.76-4.42,3.76c-1.88,1-7.19,4.31-7.85,5.2  c-0.66,0.88-5.09,5.75-6.19,8.96c-1.11,3.21-4.42,12.94-5.42,16.69c-1,3.76-1.99,17.03-1.99,17.03s-2.1,5.31-1.55,8.84  c0.55,3.54,4.64,6.74,4.64,6.74l8.84,14.7c0,0-0.22,2.87-2.1,3.65c-1.88,0.77-3.87,1.44-4.98,2.76c-1.11,1.33-5.2,8.96-5.2,8.96  l-3.65,5.86c0,0-2.76,2.21-0.66,5.97c0,0,0.77,1.88,3.1,2.98c0,0,1.27,1.44,1.27,2.85c0,1.41,0.75,1.74,1.33,1.82  c0.58,0.08,1-1.33,1-1.33s-0.83-1.82,0.66-0.91c1.49,0.91,3.07,2.4,3.81,2.24c0.75-0.17,0.95-0.79,1.82-0.33  c0.87,0.46,1.12,0.58,1.62,0.58c0.5,0,1.16-0.54,1.16-0.54s0.54,0,0.29-0.87l-0.21-0.66c0,0-0.46-0.62-0.91-0.79  c-0.46-0.17-3.48-1.66-3.48-1.66s-0.83-0.37-1.24-0.95c-0.41-0.58-1.12-1.74-1.62-1.99c-0.5-0.25-1.53-1.04-1.78-1.7  c-0.25-0.66-0.75-1.41,0.62-2.69c1.37-1.29,8.91-9.45,8.91-9.45s3.44-3.44,4.23-5.31c0,0,1.12-1.78,1.95-1.99  c0.83-0.21,1.74-1.12,1.99-1.95c0.25-0.83,0.83-2.86,0.75-3.19c-0.08-0.33,0.7-1.08,0.7-1.08l0.5-1.08c0,0,0.41-0.17,0.66,0.83  c0.25,1,0.66,3.15,0.46,3.73c-0.21,0.58-1,2.82-0.75,4.73c0.25,1.91,0.95,3.44,0.95,4.39c0,0.95-0.08,2.45,0.75,5.1  c0.83,2.65,1.29,7.63,1.29,9.83c0,0-0.21,0.87,0,1.62c0.21,0.75,0.46,1.87,0.46,1.87s-0.04,1.66,0.79,2.24  c0.83,0.58,2.07,1.29,2.82,1.24c0.75-0.04,0.54-0.04,0.75-0.04s0.21,0,0.21,0l4.06-0.17c0,0,0.79-0.29,2.36,0.41  c0,0,0.5,0.12,1.91,0.12s2.28-0.17,2.28-0.17s1.7,0.5,2.53,0c0,0,0.79-0.08,1.29-0.62c0,0,0.91,0.04,1.2-0.12  c0.29-0.17-0.7-1.2-0.7-1.2s0.25-0.79-0.12-0.99c-0.37-0.21-0.62-0.54-0.62-0.54s-0.12-0.62-1.08-0.95  c-0.95-0.33-1.87-0.21-1.87-0.21s-0.54-0.87-1.12-0.75c-0.58,0.12-0.75,0.25-1.53,0.21c-0.79-0.04-1.49-0.7-1.99-0.75  c-0.5-0.04-1.41,0-1.41,0s-0.87,0.33-1.78-0.58s-1.29-1.53-1.41-2.69c-0.12-1.16,0.37-10.24,0.37-10.24s0.29-6.51-0.46-8.62  c0,0-0.33-1.2,0-2.2c0.33-1,0.54-0.95,0.54-1.78c0-0.83-0.08-1.53-0.08-1.53s0.58-1.7,0.37-3.28c-0.21-1.58-1.45-3.86-1.45-3.86  l-3.48-4.85c0,0-1.37-2.45-2.49-3.65c-1.12-1.2-4.15-3.77-4.15-3.77s-2.03-1.78-2.53-2.74c0,0-1.41-3.19-1.37-4.44  c0,0,1.58-2.69,2.03-3.4c0.46-0.7,3.15-4.6,3.28-5.6c0,0,1.16,3.44,2.57,5.85c1.41,2.4,7.55,8.62,7.55,8.62s0.95,1.2,1.16,3.36  s0.7,2.45,0.7,2.45s-0.04,2.82,0.08,3.57c0.12,0.75-0.04,0.95,0,1.37c0.04,0.41-0.54,2.16-0.04,2.74l0.33,0.25  c0,0-0.7,2.24,0.12,2.45c0,0,0.33,0.83,1.53-0.04c0,0,1.41-0.83,1.99-2.11c0.58-1.29,0.75-1.29,0.75-1.29l-0.08-0.95  c0,0,0.95-1.24,0.91-2.86c0,0,0.54,0.58,0.87,0.37s0.46-1.7,0.21-2.57c-0.25-0.87-1.08-3.61-1.08-3.61s-0.21-0.83-0.41-0.83  c-0.21,0-0.58-0.54-0.79-0.83c-0.21-0.29-6.01-11.86-6.59-13.06c-0.58-1.2-0.95-2.74-1.95-4.27c-1-1.53-3.15-3.32-3.77-5.56  c0,0,1-3.94,1.12-4.64c0.12-0.7,0.46-3.57,0.46-3.57s1.33-0.25,1.74-1.58c0.41-1.33,0.04-3.44,0.04-3.44s0.75-0.41,0.66-2.69  c-0.08-2.28-0.54-5.39-0.54-6.22c0-0.83,0.66-0.7,0.54-1.7c-0.12-0.99-0.58-2.45-0.58-2.45S247.52,119.94,247.77,119.79z"
   id="path213922" />
<linearGradient
   id="SVGID_6_"
   gradientUnits="userSpaceOnUse"
   x1="211.9379"
   y1="162.09"
   x2="264.55469"
   y2="162.09"
   xlink:href="#SVGID_2_">
	<stop
   offset="0"
   style="stop-color:#EA7924"
   id="stop213924" />
	<stop
   offset="1"
   style="stop-color:#EA7924;stop-opacity:0"
   id="stop213926" />
</linearGradient>
<path
   class="st8"
   d="M247.77,119.79l2.98-2.21c0,0,2.43,2.54,4.42,3.21c1.99,0.66,1.55,0.66,1.99,0.66c0.44,0,3.21,0,3.21,0  s1.44,0.11,2.43-1.55l1.33-2.43c0,0,0.77,0.22,0.22-1.11c-0.55-1.33-0.77-1.66-0.77-1.66s0.33-1.11-0.22-1.55  c-0.55-0.44-1.55-1.11-1.55-2.43c0,0,1.66-1,0.99-1.88c-0.66-0.88-2.21-1.99-2.21-1.99l-1.44-1.44c0,0-0.11-2.65-2.98-3.65  c-2.87-0.99-5.09-0.55-6.08-0.44c-1,0.11-4.86,1.44-6.85,4.64c0,0-2.54,2.76-4.42,3.76c-1.88,1-7.19,4.31-7.85,5.2  c-0.66,0.88-5.09,5.75-6.19,8.96c-1.11,3.21-4.42,12.94-5.42,16.69c-1,3.76-1.99,17.03-1.99,17.03s-2.1,5.31-1.55,8.84  c0.55,3.54,4.64,6.74,4.64,6.74l8.84,14.7c0,0-0.22,2.87-2.1,3.65c-1.88,0.77-3.87,1.44-4.98,2.76c-1.11,1.33-5.2,8.96-5.2,8.96  l-3.65,5.86c0,0-2.76,2.21-0.66,5.97c0,0,0.77,1.88,3.1,2.98c0,0,1.27,1.44,1.27,2.85c0,1.41,0.75,1.74,1.33,1.82  c0.58,0.08,1-1.33,1-1.33s-0.83-1.82,0.66-0.91c1.49,0.91,3.07,2.4,3.81,2.24c0.75-0.17,0.95-0.79,1.82-0.33  c0.87,0.46,1.12,0.58,1.62,0.58c0.5,0,1.16-0.54,1.16-0.54s0.54,0,0.29-0.87l-0.21-0.66c0,0-0.46-0.62-0.91-0.79  c-0.46-0.17-3.48-1.66-3.48-1.66s-0.83-0.37-1.24-0.95c-0.41-0.58-1.12-1.74-1.62-1.99c-0.5-0.25-1.53-1.04-1.78-1.7  c-0.25-0.66-0.75-1.41,0.62-2.69c1.37-1.29,8.91-9.45,8.91-9.45s3.44-3.44,4.23-5.31c0,0,1.12-1.78,1.95-1.99  c0.83-0.21,1.74-1.12,1.99-1.95c0.25-0.83,0.83-2.86,0.75-3.19c-0.08-0.33,0.7-1.08,0.7-1.08l0.5-1.08c0,0,0.41-0.17,0.66,0.83  c0.25,1,0.66,3.15,0.46,3.73c-0.21,0.58-1,2.82-0.75,4.73c0.25,1.91,0.95,3.44,0.95,4.39c0,0.95-0.08,2.45,0.75,5.1  c0.83,2.65,1.29,7.63,1.29,9.83c0,0-0.21,0.87,0,1.62c0.21,0.75,0.46,1.87,0.46,1.87s-0.04,1.66,0.79,2.24  c0.83,0.58,2.07,1.29,2.82,1.24c0.75-0.04,0.54-0.04,0.75-0.04s0.21,0,0.21,0l4.06-0.17c0,0,0.79-0.29,2.36,0.41  c0,0,0.5,0.12,1.91,0.12s2.28-0.17,2.28-0.17s1.7,0.5,2.53,0c0,0,0.79-0.08,1.29-0.62c0,0,0.91,0.04,1.2-0.12  c0.29-0.17-0.7-1.2-0.7-1.2s0.25-0.79-0.12-0.99c-0.37-0.21-0.62-0.54-0.62-0.54s-0.12-0.62-1.08-0.95  c-0.95-0.33-1.87-0.21-1.87-0.21s-0.54-0.87-1.12-0.75c-0.58,0.12-0.75,0.25-1.53,0.21c-0.79-0.04-1.49-0.7-1.99-0.75  c-0.5-0.04-1.41,0-1.41,0s-0.87,0.33-1.78-0.58s-1.29-1.53-1.41-2.69c-0.12-1.16,0.37-10.24,0.37-10.24s0.29-6.51-0.46-8.62  c0,0-0.33-1.2,0-2.2c0.33-1,0.54-0.95,0.54-1.78c0-0.83-0.08-1.53-0.08-1.53s0.58-1.7,0.37-3.28c-0.21-1.58-1.45-3.86-1.45-3.86  l-3.48-4.85c0,0-1.37-2.45-2.49-3.65c-1.12-1.2-4.15-3.77-4.15-3.77s-2.03-1.78-2.53-2.74c0,0-1.41-3.19-1.37-4.44  c0,0,1.58-2.69,2.03-3.4c0.46-0.7,3.15-4.6,3.28-5.6c0,0,1.16,3.44,2.57,5.85c1.41,2.4,7.55,8.62,7.55,8.62s0.95,1.2,1.16,3.36  s0.7,2.45,0.7,2.45s-0.04,2.82,0.08,3.57c0.12,0.75-0.04,0.95,0,1.37c0.04,0.41-0.54,2.16-0.04,2.74l0.33,0.25  c0,0-0.7,2.24,0.12,2.45c0,0,0.33,0.83,1.53-0.04c0,0,1.41-0.83,1.99-2.11c0.58-1.29,0.75-1.29,0.75-1.29l-0.08-0.95  c0,0,0.95-1.24,0.91-2.86c0,0,0.54,0.58,0.87,0.37s0.46-1.7,0.21-2.57c-0.25-0.87-1.08-3.61-1.08-3.61s-0.21-0.83-0.41-0.83  c-0.21,0-0.58-0.54-0.79-0.83c-0.21-0.29-6.01-11.86-6.59-13.06c-0.58-1.2-0.95-2.74-1.95-4.27c-1-1.53-3.15-3.32-3.77-5.56  c0,0,1-3.94,1.12-4.64c0.12-0.7,0.46-3.57,0.46-3.57s1.33-0.25,1.74-1.58c0.41-1.33,0.04-3.44,0.04-3.44s0.75-0.41,0.66-2.69  c-0.08-2.28-0.54-5.39-0.54-6.22c0-0.83,0.66-0.7,0.54-1.7c-0.12-0.99-0.58-2.45-0.58-2.45S247.52,119.94,247.77,119.79z"
   id="path213929"
   style="fill-opacity:1.0" />
<linearGradient
   id="SVGID_7_"
   gradientUnits="userSpaceOnUse"
   x1="235.0126"
   y1="188.9765"
   x2="226.61031"
   y2="68.691399"
   xlink:href="#SVGID_15_">
	<stop
   offset="0"
   style="stop-color:#d77d34;stop-opacity:1;"
   id="stop213931" />
	<stop
   offset="1"
   style="stop-color:#EA7924;stop-opacity:0"
   id="stop213933" />
</linearGradient>
<path
   class="st9"
   d="m 235.66277,121.07962 c 0,0 -4.45297,-1.77347 -6.90259,-1.18353 -2.44962,0.58995 -8.52358,7.21072 -10.26475,8.86056 -1.75011,1.64627 -5.54252,7.28693 -6.0701,8.52117 -0.53128,1.24286 -1.99458,2.78116 -3.97579,3.89097 -1.98122,1.10981 -2.00201,7.13146 -2.27401,9.92194 -0.27198,2.79049 -0.50943,7.94811 -0.45402,10.53567 0.0554,2.58757 1.20364,11.52919 1.20364,11.52919 0,0 -1.03037,0.25626 -1.38212,1.34842 -0.35175,1.09214 -1.52616,3.30101 -2.3931,4.5213 -0.86693,1.22028 -2.02799,1.7578 -1.28885,3.28443 0,0 0.35669,2.15204 0.88907,2.25296 0.53238,0.10092 0.46125,1.63815 1.90225,1.76765 0,0 0.41063,0.38575 1.3344,-0.13518 0.91481,-0.52449 1.64281,-1.68901 1.64281,-1.68901 0,0 1.50771,0.26717 2.11396,-0.61253 0.60624,-0.8797 1.08594,-2.80972 1.08594,-2.80972 0,0 1.54445,-1.72818 1.9086,-3.92644 l -0.42067,-1.7331 c 0,0 0.51689,-12.2984 2.95567,-18.81149 0,0 0.4735,-1.37698 -0.027,-4.80841 -0.49673,-3.44005 1.00234,-6.40845 1.76472,-7.11486 0.76238,-0.7064 4.32149,-2.52104 5.86484,-5.59301 1.54335,-3.07197 2.81612,-5.24166 4.14321,-6.16758 1.31815,-0.92948 2.93521,0.15896 5.42682,-2.41414 2.49161,-2.57309 5.91987,-6.01551 3.21701,-9.43526 z"
   id="path213936"
   style="fill:#2a2218;fill-opacity:1;stroke-width:0" />







<path
   class="st0"
   d="M116.35,208.17c0,0-2.82,1.74-1.82,3.32c0,0,1.08,0.83,1.24,1.16c0.17,0.33,1,2.57,1.74,3.32s1.33,1.16,2.9,1  l2.32,1.91c0,0,0.91,1.08-0.08,2.07c0,0-0.08,0.75-1.08,0.75c-1,0-0.91-1-0.91-1s-1.33-0.5-2.24,0.17  c-0.91,0.66-2.24-0.58-2.24-0.58l-0.58-0.66l-1.49-0.83l-1.24,0.33c0,0,0.75,1.49-0.33,2.24c0,0-0.58,0.33-1.16-0.33  c-0.58-0.66-0.91-2.98-0.91-2.98l0.25-1l-2.16-3.48l-1.49-0.91l-0.99-2.32c0,0-0.58-0.91,0.25-1.41c0,0,0.41-1.24,2.49-3.48  c2.07-2.24,4.15-2.98,4.15-2.98s3.81-4.98,5.8-5.97c1.99-1,6.3-2.32,6.3-2.32s3.07-1.74,1-4.23c-2.07-2.49-5.39-7.38-5.39-7.38  s-2.9-4.89-2.65-6.14c0.25-1.24,3.15-8.79,4.81-10.95c1.66-2.16,15.26-17.25,23.96-21.72c0,0,6.8-3.07,8.46-3.07  c1.66,0,2.65,0.08,3.9-0.58c1.24-0.66,5.47-3.32,9.37-3.65c3.9-0.33,6.38,1.08,6.96,1.74c0.58,0.66,0.75,1.08,1.66,1.91  c0.91,0.83,2.82,2.57,1.58,3.4c0,0-1.12,0.58-0.58,1.66c0.54,1.08,1,1.37,1,1.37s0.79,0.54,0.75,1.49c0,0,1.16,1.16,1.08,1.62  c0,0,0.29-0.08,0.37,0.58c0.08,0.66-0.46,1.33-0.46,1.33l0.12,0.58c0,0-1.04,0.75-1.29,1.08c-0.25,0.33-0.21,0.91-0.29,1.2  c-0.08,0.29-1.12,0.79-1.24,0.79c-0.12,0-0.21-0.25-0.54-0.29c-0.33-0.04-0.5,0.04-0.7,0.12c-0.21,0.08,0.04,0.08-0.46,0.08  s-0.58,0-0.83,0c-0.25,0-0.21,0.08-0.41-0.04c-0.21-0.12-7.34-1.2-8.21-2.45c0,0-2.2,2.65-2.61,4.35c-0.41,1.7-1.7,4.81-1.7,4.81  l-0.58,1.99c0,0,0.12,6.55-1.08,9.99c0,0-0.17,3.57,0,4.39c0.17,0.83,2.16,5.22,2.57,6.8c0.41,1.58,2.69,13.97,2.69,13.97  s1.24,6.67,1.16,10.57c0,0-0.5,2.69-0.37,3.69c0.12,0.99-1,3.73-1,3.73s-0.29,1.53-2.32,2.11c0,0-1.33,0.91-3.07-0.25  c-1.74-1.16-2.07-1.62-2.2-3.03c0,0-1.16-0.75-0.91-1.24c0.25-0.5,0.87-0.83,0.87-0.83s0.37-0.62,1.16-0.58l1.04-1.82  c0,0-0.46-2.65,0.75-4.31l-4.73-10.45c0,0-2.16-5.51-2.45-7.59c-0.29-2.07-2.9-7.46-2.9-7.46s0.5,2.99,0.25,4.64  c-0.25,1.66-2.2,9.95-2.2,9.95s-1.45,8.33-1.45,8.46c0,0.12-0.33,0.91,0.04,2.57c0.37,1.66-0.21,4.35-1.49,5.97  c0,0-0.29,0.54-0.75,0.54c0,0-0.21,1.08,2.53,1.12c2.74,0.04,2.65,0.41,2.74,0.54c0.08,0.12,1.66-0.21,2.28,0.46  c0,0,1.29,0,1.99,0.79c0,0,1.37-0.12,1.04,1.66c0,0,0.79,0.29,0.41,1.04c-0.37,0.75-2.11,0.7-2.11,0.7s0.21,0.7-1.2,0.7  c-1.41,0-2.32-0.21-2.32-0.21s-0.46,0.25-1.24,0.33c-0.79,0.08-4.93-0.33-4.93-0.33s-1.04-0.41-1.49-0.46  c-0.46-0.04-1.82,0.33-2.69,0.12c-0.87-0.21-2.07-1.2-2.07-1.2s-0.83-0.66-0.37-1.91c0.46-1.24,0.41-2.24,0.41-2.57  c0-0.33-2.07-10.49-2.07-13.18c0-2.69,2.49-9.2,2.49-9.2s0.54-0.66-0.21-0.91c-0.75-0.25-4.64-1.33-4.64-1.33l0.29,4.52  c0,0,0.21,1.87-0.7,2.78s-2.2,1.08-2.2,1.08s-8.06,6.27-12.29,8.01c-0.32,0.13-0.62,0.3-0.9,0.49  C117.77,207.09,116.61,207.88,116.35,208.17z M136.99,178.49l6.97,5.47c0,0,0.66-8.13,2.16-10.28  C146.12,173.68,141.97,177.82,136.99,178.49z"
   id="path213952" />
<linearGradient
   id="SVGID_8_"
   gradientUnits="userSpaceOnUse"
   x1="127.1064"
   y1="171.6449"
   x2="147.6699"
   y2="216.9176">
	<stop
   offset="0"
   style="stop-color:#EA7924"
   id="stop213954" />
	<stop
   offset="1"
   style="stop-color:#EA7924;stop-opacity:0"
   id="stop213956" />
</linearGradient>
<path
   class="st10"
   d="M134.26,189.76c0,0,3.9,1.08,4.64,1.33c0.75,0.25,0.21,0.91,0.21,0.91s-2.49,6.51-2.49,9.2  c0,2.69,2.07,12.85,2.07,13.18c0,0.33,0.04,1.33-0.41,2.57c-0.46,1.24,0.37,1.91,0.37,1.91s1.2,1,2.07,1.2  c0.87,0.21,2.24-0.17,2.69-0.12c0.46,0.04,1.49,0.46,1.49,0.46s4.15,0.41,4.93,0.33c0.79-0.08,1.24-0.33,1.24-0.33  s0.91,0.21,2.32,0.21c1.41,0,1.2-0.7,1.2-0.7s1.74,0.04,2.11-0.7c0.37-0.75-0.41-1.04-0.41-1.04c0.33-1.78-1.04-1.66-1.04-1.66  c-0.7-0.79-1.99-0.79-1.99-0.79c-0.62-0.66-2.2-0.33-2.28-0.46c-0.08-0.12,0-0.5-2.74-0.54c-2.74-0.04-2.53-1.12-2.53-1.12  s-1.29-0.35-0.95-4.33c0.33-3.98,1.77-7.96,1.22-15.81c0,0,0.44-4.31,0.33-5.31c-0.11-1-0.55-1.88-0.55-1.88s-3.21-4.09-5.09-5.64  c-1.88-1.55-12.71-8.18-14.26-8.51s-7.46-2.65-8.35,4.53c0,0,0.83,6.85,4.92,8.18C127.1,186.17,134.26,189.76,134.26,189.76z"
   id="path213959" />
<linearGradient
   id="SVGID_9_"
   gradientUnits="userSpaceOnUse"
   x1="155.0993"
   y1="139.8969"
   x2="163.0593"
   y2="224.4722">
	<stop
   offset="0"
   style="stop-color:#EA7924"
   id="stop213961" />
	<stop
   offset="1"
   style="stop-color:#EA7924;stop-opacity:0"
   id="stop213963" />
</linearGradient>
<path
   class="st11"
   d="M162.7,161.78l-0.58,1.99c0,0,0.12,6.55-1.08,9.99c0,0-0.17,3.57,0,4.39c0.17,0.83,2.16,5.22,2.57,6.8  c0.41,1.58,2.69,13.97,2.69,13.97s1.24,6.67,1.16,10.57c0,0-0.5,2.69-0.37,3.69c0.12,0.99-1,3.73-1,3.73s-0.29,1.53-2.32,2.11  c0,0-1.33,0.91-3.07-0.25c-1.74-1.16-2.07-1.62-2.2-3.03c0,0-1.16-0.75-0.91-1.24c0.25-0.5,0.87-0.83,0.87-0.83s0.37-0.62,1.16-0.58  l1.04-1.82c0,0-0.46-2.65,0.75-4.31l-4.73-10.45c0,0-2.16-5.51-2.45-7.59c-0.29-2.07-2.9-7.46-2.9-7.46s-0.58-0.28,0.3-3.37  c0.88-3.1-0.33-11.06-0.33-11.39c0-0.33-0.66-4.75,1.22-7.74c0,0-0.44-4.09,0.66-5.75c1.11-1.66,3.98-5.31,7.08-3.98  s4.64,6.52,4.09,8.51C163.8,159.75,162.7,161.78,162.7,161.78z"
   id="path213966" />
<linearGradient
   id="SVGID_10_"
   gradientUnits="userSpaceOnUse"
   x1="180.0414"
   y1="143.3416"
   x2="164.7847"
   y2="148.4272">
	<stop
   offset="0"
   style="stop-color:#EA7924"
   id="stop213968" />
	<stop
   offset="1"
   style="stop-color:#EA7924;stop-opacity:0"
   id="stop213970" />
</linearGradient>
<path
   class="st12"
   d="M168.5,136.45c3.9-0.33,6.38,1.08,6.96,1.74c0.58,0.66,0.75,1.08,1.66,1.91c0.91,0.83,2.82,2.57,1.58,3.4  c0,0-1.12,0.58-0.58,1.66c0.54,1.08,1,1.37,1,1.37s0.79,0.54,0.75,1.49c0,0,1.16,1.16,1.08,1.62c0,0,0.29-0.08,0.37,0.58  c0.08,0.66-0.46,1.33-0.46,1.33l0.12,0.58c0,0-1.04,0.75-1.29,1.08c-0.25,0.33-0.21,0.91-0.29,1.2c-0.08,0.29-1.12,0.79-1.24,0.79  c-0.12,0-0.21-0.25-0.54-0.29c-0.33-0.04-0.5,0.04-0.7,0.12c-0.21,0.08,0.04,0.08-0.46,0.08s-0.58,0-0.83,0  c-0.25,0-0.21,0.08-0.41-0.04c-0.21-0.12-7.34-1.2-8.21-2.45c0,0-2.21-1.6-2.76-3.26c0,0-2.54-3.98-2.65-6.41  c-0.11-2.43,0.22-4.53,2.32-5.42C166.02,136.64,168.5,136.45,168.5,136.45z"
   id="path213973" />



<linearGradient
   id="SVGID_11_"
   gradientUnits="userSpaceOnUse"
   x1="340.22739"
   y1="136.55202"
   x2="311.60431"
   y2="99.303574">
	<stop
   offset="0"
   style="stop-color:#EA7924"
   id="stop213981" />
	<stop
   offset="1"
   style="stop-color:#EA7924;stop-opacity:0"
   id="stop213983" />
</linearGradient>
<path
   class="st13"
   d="M331.16,142.94c2.61,0.41,6.97-0.54,9.87-0.99c2.9-0.46,4.27,0.08,4.27,0.08c0.75,0.46,2.32,0.62,2.32,0.62  l0.46,0.17l3.32,1.87c0,0,0.17,0.08,0.95,0.83c0.79,0.75,1.91,0.54,2.61,0.5c0.7-0.04,0.7-1.04,0.7-1.04s0.25-0.04,1-0.41  c0.75-0.37,0.54-1.29,0.54-1.29s0.87-0.58,1.12-0.91c0.25-0.33,0.25-1.62,0.25-1.62s0.41,0.17,0.83-1.04  c0.41-1.2-0.95-2.36-0.95-2.36c-0.04-1.16-1.41-1.33-1.41-1.33s-2.07-0.33-3.61-0.46s-1.45-0.25-2.07-1.12  c-0.62-0.87-1.37-0.58-1.99-0.5s-1.82,0.75-1.82,0.75s-0.79,1.33-2.11,0.87c-1.33-0.46-3.98-0.33-3.98-0.33s-6.09,0.12-8.66-0.7  s-5.31-1.58-7.71-1.58c0,0-1.41-0.33-0.66-2.07c0.75-1.74,2.9-7.79,2.9-9.78c0-1.99,0.08-1.66,0.08-1.66s1.82-2.65,1.82-3.65  c0-1,1.33-7.96-1.91-9.62c-3.23-1.66-6.72-0.91-8.29,1.08c-1.58,1.99-2.74,8.54-3.32,11.69c-0.58,3.15-0.75,16.67-0.75,16.67  s-0.5,2.57,0.75,3.73c1.24,1.16,1.91,0.33,4.15,1.33S326.39,142.89,331.16,142.94z"
   id="path213986"
   style="fill:#2a2218" />
<linearGradient
   id="SVGID_12_"
   gradientUnits="userSpaceOnUse"
   x1="430.5178"
   y1="126.4468"
   x2="413.6027"
   y2="63.4299"
   gradientTransform="translate(0,0.39474803)">
	<stop
   offset="0"
   style="stop-color:#EA7924"
   id="stop213988" />
	<stop
   offset="1"
   style="stop-color:#EA7924;stop-opacity:0"
   id="stop213990" />
</linearGradient>
<path
   class="st14"
   d="m 432.67,127.22475 c 4.83,2.02 9.56,4.01 9.78,3.92 0.42,-0.18 2.55,0.07 3.02,0.41 0.47,0.34 3.99,1.69 4.55,1.89 0.57,0.2 1,1.04 1,1.04 0,0 2.03,0.75 2.65,1.67 0.62,0.91 0.71,1.75 0.53,2.44 -0.17,0.69 -1.12,0.99 -1.12,0.99 0,0 0.26,0.43 -0.34,1.02 -0.59,0.59 -1.09,1.03 -1.09,1.03 0,0 -0.23,0.24 -0.61,1.02 -0.38,0.78 -1.92,0.49 -1.92,0.49 0,0 -1.67,1.27 -2.76,0.57 -1.09,-0.7 -3.62,-2.39 -5.37,-2.87 -1.75,-0.48 -4.16,-4.2 -4.16,-4.2 0,0 -3.28,-0.48 -6.55,-1.02 0,0 -17.04,-3.84 -18.59,-6.49 0,0 -1.11,-0.66 -1.77,-1.77 -0.66,-1.11 -1.11,-4.2 -1.11,-4.2 0,0 0.33,-3.32 -0.22,-4.53 -0.55,-1.22 -2.43,-4.42 -2.54,-7.52 -0.11,-3.1 -0.55,-6.63 0.11,-11.940002 0,0 -0.77,-2.76 -0.33,-5.86 0.44,-3.1 3.21,-10.5 6.74,-10.5 3.53,0 7.52,0.66 8.4,5.97 0.58,3.47 -0.55,6.42 -1.39,8.05 -0.5,0.96 -0.7,2.03 -0.58,3.11 0.28,2.500002 0.61,7.240002 -0.23,11.400002 -1.22,5.97 -1.66,8.4 -1.11,9.51 0.55,1.11 0.55,1.11 0.55,1.11 0,0 12.54,4.46 14.46,5.26 z"
   id="path213993"
   style="fill:#2a2218" />
<g
   id="g214044">
	
	<path
   class="st0"
   d="m 530.64424,97.732441 c 1.44,-0.55 5.19,0.43 5.19,0.43 2.69,0.67 16.82,1.11 17.09,0.85 0.26,-0.26 1.95,-0.69 2.4,-0.56 0.45,0.12 3.5,0.12 3.99,0.1 0.48,-0.02 1.06,0.5 1.06,0.5 0,0 1.75,-0.02 2.48,0.49 0.74,0.509999 1.04,1.119999 1.11,1.689999 0.07,0.57 -0.56,1.07 -0.56,1.07 0,0 0.32,0.25 0.04,0.87 -0.28,0.62 -0.52,1.1 -0.52,1.1 0,0 -0.1,0.25 -0.17,0.95 -0.06,0.7 -1.31,0.93 -1.31,0.93 0,0 -0.89,1.44 -1.92,1.23 -1.02,-0.21 -3.42,-0.75 -4.88,-0.6 -1.46,0.15 -4.36,-1.96 -4.36,-1.96 0,0 -5.98,1.34 -8.92,1.84 -2.94,0.5 -11.55,-0.86 -11.55,-0.86 0,0 -2.27,-0.39 -2.82,-0.36 -0.55,0.03 -1.41,0.02 -1.83,-0.93 -0.42,-0.95 -0.38,-2.24 -0.49,-3.09 -0.11,-0.85 -0.57,-2.349999 -0.65,-2.719999 -0.08,-0.36 -0.36,-2.92 -0.36,-2.92 0,0 -1.15,-2.93 -1.22,-4.03 -0.06,-1.1 -0.17,-1.89 -0.17,-1.89 0,0 -0.92,-2.15 -1.02,-2.75 -0.1,-0.61 0.18,-3.13 0.23,-3.38 0.05,-0.25 0.12,-3.07 0.12,-3.07 0,0 1.58,-3.34 4.29,-3.01 2.71,0.33 5.8,1.92 5.71,5.48 -0.04,1.3 -0.16,2.06 -0.29,2.5 -0.15,0.48 -0.13,1 0.09,1.45 0.3,0.64 0.89,1.39 0.95,2.43 0.11,1.89 -0.13,4.05 -1.1,5.14 0.01,-0.02 -0.66,2.22 -0.61,3.08 z"
   id="path213997" />
	
		<linearGradient
   id="SVGID_13_"
   gradientUnits="userSpaceOnUse"
   x1="554.1431"
   y1="63.1862"
   x2="526.725"
   y2="62.3018"
   gradientTransform="matrix(0.9982,0.0601,-0.0601,0.9982,10.197244,-1.6439591)">
		<stop
   offset="0"
   style="stop-color:#EA7924"
   id="stop213999" />
		<stop
   offset="1"
   style="stop-color:#EA7924;stop-opacity:0"
   id="stop214001" />
	</linearGradient>
	<path
   class="st15"
   d="m 530.64424,97.732441 c 1.44,-0.55 5.19,0.43 5.19,0.43 2.69,0.67 16.82,1.11 17.09,0.85 0.26,-0.26 1.95,-0.69 2.4,-0.56 0.45,0.12 3.5,0.12 3.99,0.1 0.48,-0.02 1.06,0.5 1.06,0.5 0,0 1.75,-0.02 2.48,0.49 0.74,0.509999 1.04,1.119999 1.11,1.689999 0.07,0.57 -0.56,1.07 -0.56,1.07 0,0 0.32,0.25 0.04,0.87 -0.28,0.62 -0.52,1.1 -0.52,1.1 0,0 -0.1,0.25 -0.17,0.95 -0.06,0.7 -1.31,0.93 -1.31,0.93 0,0 -0.89,1.44 -1.92,1.23 -1.02,-0.21 -3.42,-0.75 -4.88,-0.6 -1.46,0.15 -4.36,-1.96 -4.36,-1.96 0,0 -5.98,1.34 -8.92,1.84 -2.94,0.5 -11.55,-0.86 -11.55,-0.86 0,0 -2.27,-0.39 -2.82,-0.36 -0.55,0.03 -1.41,0.02 -1.83,-0.93 -0.42,-0.95 -0.38,-2.24 -0.49,-3.09 -0.11,-0.85 -0.57,-2.349999 -0.65,-2.719999 -0.08,-0.36 -0.36,-2.92 -0.36,-2.92 0,0 -1.15,-2.93 -1.22,-4.03 -0.06,-1.1 -0.17,-1.89 -0.17,-1.89 0,0 -0.92,-2.15 -1.02,-2.75 -0.1,-0.61 0.18,-3.13 0.23,-3.38 0.05,-0.25 0.12,-3.07 0.12,-3.07 0,0 1.58,-3.34 4.29,-3.01 2.71,0.33 5.8,1.92 5.71,5.48 -0.04,1.3 -0.16,2.06 -0.29,2.5 -0.15,0.48 -0.13,1 0.09,1.45 0.3,0.64 0.89,1.39 0.95,2.43 0.11,1.89 -0.13,4.05 -1.1,5.14 0.01,-0.02 -0.66,2.22 -0.61,3.08 z"
   id="path214004"
   style="fill:#2a2218" />
	<path
   id="path214023"
   style="fill:#2a2218"
   class="st18"
   d="m 516.52022,117.33534 c -0.8966,0.065 -1.84276,0.21833 -2.84372,0.47891 0,0 -7.28483,3.97796 -4.71355,15.12066 2.57127,11.14271 10.9357,28.45021 10.9357,28.45021 l 3.07717,10.12816 c 0,0 0.36339,3.15507 0.72703,6.30998 -0.67303,1.92761 -1.18542,4.26763 -0.86162,6.52607 0.73403,5.11977 1.75582,16.16019 -0.1499,25.00851 0,0 -0.36498,2.01615 -2.07389,4.60656 -1.71542,2.59804 -1.73453,5.56417 1.25027,6.70259 2.99238,1.14491 5.77211,-0.1113 7.46605,0.58373 1.70043,0.68742 3.93421,0.48734 6.04307,1.40469 2.10239,0.92496 8.93255,1.9922 10.98506,0.50936 0,0 1.67099,-0.75904 1.33564,-1.22888 -0.32885,-0.47744 0.79585,-0.33231 1.33879,-0.90757 0.55056,-0.56876 0.45085,-1.45397 0.45085,-1.45397 0,0 0.80148,-0.0149 0.87048,-0.57367 0.069,-0.55878 -0.58415,-1.35038 -1.54315,-1.01154 -0.95901,0.33883 -5.44523,-0.0566 -8.11465,-0.88673 -2.65529,-0.83128 -6.33641,-0.11979 -8.76499,-5.76427 -2.42859,-5.64451 3.08399,-22.82282 3.08399,-22.82282 0,0 3.4462,-16.49809 3.18724,-21.62021 0,0 0.19572,-0.88153 -0.38333,-1.90317 0.0351,-1.64067 -0.038,-3.25695 -0.28545,-4.74339 -1.08833,-6.48682 -5.76828,-27.14592 -5.76828,-27.14592 l -1.58896,-5.97041 c -4.7e-4,10e-4 -0.068,-0.19164 -0.20966,-0.52644 -0.89898,-2.12387 -4.78317,-9.89952 -13.45019,-9.27044 z" /><path
   class="st0"
   d="m 523.79424,102.03244 c 2.05,-0.59 7.1,1.22 7.1,1.22 3.62,1.25 23.04,3.59 23.44,3.27 0.4,-0.32 2.77,-0.71 3.38,-0.48 0.61,0.22 4.81,0.59 5.48,0.63 0.67,0.04 1.4,0.82 1.4,0.82 0,0 2.41,0.18 3.36,0.98 0.95,0.79 1.3,1.67 1.32,2.46 0.03,0.79 -0.9,1.41 -0.9,1.41 0,0 0.41,0.38 -0.05,1.2 -0.46,0.82 -0.85,1.45 -0.85,1.45 0,0 -0.17,0.33 -0.35,1.29 -0.17,0.95 -1.92,1.11 -1.92,1.11 0,0 -1.41,1.88 -2.79,1.46 -1.39,-0.42 -4.63,-1.46 -6.65,-1.43 -2.03,0.03 -5.76,-3.24 -5.76,-3.24 0,0 -8.41,1.12 -12.52,1.44 -4.11,0.32 -15.81,-2.6 -15.81,-2.6 0,0 -3.08,-0.82 -3.84,-0.84 -0.76,-0.02 -1.94,-0.14 -2.41,-1.51 -0.47,-1.37 -0.24,-3.14 -0.29,-4.32 -0.05,-1.19 -0.49,-3.31 -0.56,-3.82 -0.07,-0.51 -0.13,-4.059999 -0.13,-4.059999 0,0 -1.23,-4.18 -1.18,-5.7 0.05,-1.52 -0.01,-2.62 -0.01,-2.62 0,0 -1.01,-3.07 -1.07,-3.92 -0.06,-0.85 0.64,-4.29 0.73,-4.63 0.09,-0.34 0.55,-4.21 0.55,-4.21 0,0 2.58,-4.4 6.28,-3.62 3.7,0.79 7.76,3.36 7.19,8.25 -0.21,1.79 -0.47,2.82 -0.71,3.41 -0.26,0.64 -0.3,1.36 -0.06,2.01 0.34,0.92 1.05,2.03 1.01,3.47 -0.08,2.62 -0.67,5.56 -2.15,6.95 -0.01,-0.02 -1.19,2.989999 -1.23,4.169999 z"
   id="path214006" />
	<g
   id="g214010"
   transform="translate(1.1842441,11.842441)">
		
			<rect
   x="553.21997"
   y="99.300003"
   transform="matrix(0.3937,-0.9192,0.9192,0.3937,247.2597,576.2557)"
   class="st16"
   width="14.49"
   height="2.79"
   id="rect214008" />
	</g>
	<path
   class="st17"
   d="m 516.85424,62.292441 c 0,0 -0.99,2.83 -1.51,3.82 -0.52,0.99 -5.41,4.79 -6,6.97 -0.6,2.18 -1.08,6.28 -1.08,6.28 0,0 -1.06,3.3 -0.73,5.11 0.33,1.81 0.65,3.24 0.65,3.24 0,0 -0.15,5.76 0.87,8.32 0,0 -0.25,2.61 0.19,4.249999 0.44,1.65 4.5,9.46 4.94,10.35 0.44,0.9 0.25,2.65 0.75,5.37 0.5,2.72 -1.87,7.39 -1.87,7.39 -1.03,2.47 -3.22,8.56 -3.11,11.93 0.06,1.96 0.7,3.59 1.57,4.87 0.54,1.35 1.29,2.78 2.39,4.29 6.71,9.26 21.16,21.94 21.16,21.94 l 6.78,8.13 c 0,0 -6.64,0.96 -10.06,4.84 -3.41,3.88 -11.16,11.82 -19.13,16.11 0,0 -1.77,1.03 -4.85,1.41 -3.09,0.38 -5.36,2.29 -4.29,5.3 1.07,3.02 3.83,4.32 4.4,6.06 0.58,1.74 2.18,3.31 2.85,5.51 0.66,2.2 4.28,8.09 6.74,8.69 0,0 1.66,0.78 1.8,0.22 0.15,-0.56 0.77,0.39 1.56,0.43 0.79,0.05 1.4,-0.6 1.4,-0.6 0,0 0.53,0.6 1,0.29 0.47,-0.31 0.65,-1.32 -0.23,-1.83 -0.62,-0.36 -2.1,-2.3 -3.31,-4.31 -0.02,-0.33 -0.03,-0.55 -0.03,-0.55 0,0 -1.31,-2.69 0.24,-9.64 1.55,-6.95 11.66,-10.77 16.74,-13.98 1.75,-1.11 4.75,-3.29 7.93,-5.76 4.11,-2.43 8.6,-5.26 10.44,-6.99 0,0 1.54,-0.78 1.42,-3.09 0.66,-0.7 1.07,-1.23 1.12,-1.53 0.34,-1.91 -1.25,-9.39 -6.23,-19.11 -3.99,-7.8 -11.22,-16.14 -13.94,-19.14 -0.12,-0.89 -0.17,-2.07 0.18,-2.93 0.18,-0.45 0.69,-1.68 0.54,-2.8 -0.16,-1.11 -0.36,-3.72 0.37,-5.57 0.73,-1.85 2.59,-5.96 2.65,-11.16 0.06,-5.2 1.05,-5.45 1.23,-6.62 0.18,-1.17 -0.06,-3.65 -0.31,-4.58 -0.25,-0.93 0.27,-2.05 0.24,-2.94 -0.03,-0.879999 -1.33,-7.149999 -1.33,-7.149999 0,0 0.67,-1.62 0.57,-3.11 -0.1,-1.49 -6.08,-12.48 -6.08,-12.48 0,0 -1.78,-3.87 -2.07,-4.3 -0.29,-0.43 -1.14,-1.07 -1.93,-1.49 -0.79,-0.42 -1.84,-0.89 -2.25,-1.65 l 0.02,-0.31 c 0,0 0.27,-1.56 2.08,-3.25 1.81,-1.68 3.76,-1.15 5.81,-1.5 2.05,-0.35 1.93,-1.41 2.09,-1.85 0.16,-0.45 -0.46,-1.71 -0.52,-2.27 -0.06,-0.55 0.43,-1.22 0.54,-1.72 0.11,-0.5 -0.62,-0.94 -0.62,-0.94 0.88,-0.4 0.71,-1.28 0.71,-1.28 0,0 -0.06,-0.5 -0.4,-1.22 -0.34,-0.72 0.27,-1 0.27,-1 0,0 1.44,-0.07 1.88,-0.96 0.43,-0.89 -0.63,-1.82 -0.63,-1.82 0,0 -0.9,-0.88 -2.19,-2.2 -1.29,-1.32 -0.74,-1.6 -0.74,-1.6 0.43,-1.34 0.32,-1.67 0.32,-1.67 -0.07,-1.55 -2.95,-6.13 -2.95,-6.13 1.11,-0.23 0.93,-1.34 0.93,-1.34 -0.13,-1.44 -1.74,-2.14 -3.47,-2.63 -1.72,-0.48 -1.83,-0.26 -2.78,-0.25 -0.94,0.01 -1.28,-0.26 -3.38,-0.13 -2.11,0.13 -3.83,-0.02 -6.32,0.73 -2.49,0.75 -4.3,2.26 -5.18,3.22 -0.88,0.95 -2.07,3.63 -2.39,4.63 -0.32,1 -0.47,2.5 -0.74,3.39 -0.27,0.89 0.08,2.66 0.32,3.71 0.23,1.05 3.8,7.56 3.91,7.95 0.12,0.39 0.88,0.88 0.88,0.88 z"
   id="path214012" />
	<path
   class="st17"
   d="m 516.85424,62.292441 c 0,0 -0.99,2.83 -1.51,3.82 -0.52,0.99 -5.41,4.79 -6,6.97 -0.6,2.18 -1.08,6.28 -1.08,6.28 0,0 -1.06,3.3 -0.73,5.11 0.33,1.81 0.65,3.24 0.65,3.24 0,0 -0.15,5.76 0.87,8.32 0,0 -0.25,2.61 0.19,4.249999 0.44,1.65 4.5,9.46 4.94,10.35 0.44,0.9 0.25,2.65 0.75,5.37 0.5,2.72 -1.87,7.39 -1.87,7.39 -1.03,2.47 -3.22,8.56 -3.11,11.93 0.06,1.96 0.7,3.59 1.57,4.87 0.54,1.35 1.29,2.78 2.39,4.29 6.71,9.26 21.16,21.94 21.16,21.94 l 6.78,8.13 c 0,0 -6.64,0.96 -10.06,4.84 -3.41,3.88 -11.16,11.82 -19.13,16.11 0,0 -1.77,1.03 -4.85,1.41 -3.09,0.38 -5.36,2.29 -4.29,5.3 1.07,3.02 3.83,4.32 4.4,6.06 0.58,1.74 2.18,3.31 2.85,5.51 0.66,2.2 4.28,8.09 6.74,8.69 0,0 1.66,0.78 1.8,0.22 0.15,-0.56 0.77,0.39 1.56,0.43 0.79,0.05 1.4,-0.6 1.4,-0.6 0,0 0.53,0.6 1,0.29 0.47,-0.31 0.65,-1.32 -0.23,-1.83 -0.62,-0.36 -2.1,-2.3 -3.31,-4.31 -0.02,-0.33 -0.03,-0.55 -0.03,-0.55 0,0 -1.31,-2.69 0.24,-9.64 1.55,-6.95 11.66,-10.77 16.74,-13.98 1.75,-1.11 4.75,-3.29 7.93,-5.76 4.11,-2.43 8.6,-5.26 10.44,-6.99 0,0 1.54,-0.78 1.42,-3.09 0.66,-0.7 1.07,-1.23 1.12,-1.53 0.34,-1.91 -1.25,-9.39 -6.23,-19.11 -3.99,-7.8 -11.22,-16.14 -13.94,-19.14 -0.12,-0.89 -0.17,-2.07 0.18,-2.93 0.18,-0.45 0.69,-1.68 0.54,-2.8 -0.16,-1.11 -0.36,-3.72 0.37,-5.57 0.73,-1.85 2.59,-5.96 2.65,-11.16 0.06,-5.2 1.05,-5.45 1.23,-6.62 0.18,-1.17 -0.06,-3.65 -0.31,-4.58 -0.25,-0.93 0.27,-2.05 0.24,-2.94 -0.03,-0.879999 -1.33,-7.149999 -1.33,-7.149999 0,0 0.67,-1.62 0.57,-3.11 -0.1,-1.49 -6.08,-12.48 -6.08,-12.48 0,0 -1.78,-3.87 -2.07,-4.3 -0.29,-0.43 -1.14,-1.07 -1.93,-1.49 -0.79,-0.42 -1.84,-0.89 -2.25,-1.65 l 0.02,-0.31 c 0,0 0.27,-1.56 2.08,-3.25 1.81,-1.68 3.76,-1.15 5.81,-1.5 2.05,-0.35 1.93,-1.41 2.09,-1.85 0.16,-0.45 -0.46,-1.71 -0.52,-2.27 -0.06,-0.55 0.43,-1.22 0.54,-1.72 0.11,-0.5 -0.62,-0.94 -0.62,-0.94 0.88,-0.4 0.71,-1.28 0.71,-1.28 0,0 -0.06,-0.5 -0.4,-1.22 -0.34,-0.72 0.27,-1 0.27,-1 0,0 1.44,-0.07 1.88,-0.96 0.43,-0.89 -0.63,-1.82 -0.63,-1.82 0,0 -0.9,-0.88 -2.19,-2.2 -1.29,-1.32 -0.74,-1.6 -0.74,-1.6 0.43,-1.34 0.32,-1.67 0.32,-1.67 -0.07,-1.55 -2.95,-6.13 -2.95,-6.13 1.11,-0.23 0.93,-1.34 0.93,-1.34 -0.13,-1.44 -1.74,-2.14 -3.47,-2.63 -1.72,-0.48 -1.83,-0.26 -2.78,-0.25 -0.94,0.01 -1.28,-0.26 -3.38,-0.13 -2.11,0.13 -3.83,-0.02 -6.32,0.73 -2.49,0.75 -4.3,2.26 -5.18,3.22 -0.88,0.95 -2.07,3.63 -2.39,4.63 -0.32,1 -0.47,2.5 -0.74,3.39 -0.27,0.89 0.08,2.66 0.32,3.71 0.23,1.05 3.8,7.56 3.91,7.95 0.12,0.39 0.88,0.88 0.88,0.88 z"
   id="path214014" />
	<path
   class="st17"
   d="m 516.85424,62.292441 c 0,0 -0.99,2.83 -1.51,3.82 -0.52,0.99 -5.41,4.79 -6,6.97 -0.6,2.18 -1.08,6.28 -1.08,6.28 0,0 -1.06,3.3 -0.73,5.11 0.33,1.81 0.65,3.24 0.65,3.24 0,0 -0.15,5.76 0.87,8.32 0,0 -0.25,2.61 0.19,4.249999 0.44,1.65 4.5,9.46 4.94,10.35 0.44,0.9 0.25,2.65 0.75,5.37 0.5,2.72 -1.87,7.39 -1.87,7.39 -1.03,2.47 -3.22,8.56 -3.11,11.93 0.06,1.96 0.7,3.59 1.57,4.87 0.54,1.35 1.29,2.78 2.39,4.29 6.71,9.26 21.16,21.94 21.16,21.94 l 6.78,8.13 c 0,0 -6.64,0.96 -10.06,4.84 -3.41,3.88 -11.16,11.82 -19.13,16.11 0,0 -1.77,1.03 -4.85,1.41 -3.09,0.38 -5.36,2.29 -4.29,5.3 1.07,3.02 3.83,4.32 4.4,6.06 0.58,1.74 2.18,3.31 2.85,5.51 0.66,2.2 4.28,8.09 6.74,8.69 0,0 1.66,0.78 1.8,0.22 0.15,-0.56 0.77,0.39 1.56,0.43 0.79,0.05 1.4,-0.6 1.4,-0.6 0,0 0.53,0.6 1,0.29 0.47,-0.31 0.65,-1.32 -0.23,-1.83 -0.62,-0.36 -2.1,-2.3 -3.31,-4.31 -0.02,-0.33 -0.03,-0.55 -0.03,-0.55 0,0 -1.31,-2.69 0.24,-9.64 1.55,-6.95 11.66,-10.77 16.74,-13.98 1.75,-1.11 4.75,-3.29 7.93,-5.76 4.11,-2.43 8.6,-5.26 10.44,-6.99 0,0 1.54,-0.78 1.42,-3.09 0.66,-0.7 1.07,-1.23 1.12,-1.53 0.34,-1.91 -1.25,-9.39 -6.23,-19.11 -3.99,-7.8 -11.22,-16.14 -13.94,-19.14 -0.12,-0.89 -0.17,-2.07 0.18,-2.93 0.18,-0.45 0.69,-1.68 0.54,-2.8 -0.16,-1.11 -0.36,-3.72 0.37,-5.57 0.73,-1.85 2.59,-5.96 2.65,-11.16 0.06,-5.2 1.05,-5.45 1.23,-6.62 0.18,-1.17 -0.06,-3.65 -0.31,-4.58 -0.25,-0.93 0.27,-2.05 0.24,-2.94 -0.03,-0.879999 -1.33,-7.149999 -1.33,-7.149999 0,0 0.67,-1.62 0.57,-3.11 -0.1,-1.49 -6.08,-12.48 -6.08,-12.48 0,0 -1.78,-3.87 -2.07,-4.3 -0.29,-0.43 -1.14,-1.07 -1.93,-1.49 -0.79,-0.42 -1.84,-0.89 -2.25,-1.65 l 0.02,-0.31 c 0,0 0.27,-1.56 2.08,-3.25 1.81,-1.68 3.76,-1.15 5.81,-1.5 2.05,-0.35 1.93,-1.41 2.09,-1.85 0.16,-0.45 -0.46,-1.71 -0.52,-2.27 -0.06,-0.55 0.43,-1.22 0.54,-1.72 0.11,-0.5 -0.62,-0.94 -0.62,-0.94 0.88,-0.4 0.71,-1.28 0.71,-1.28 0,0 -0.06,-0.5 -0.4,-1.22 -0.34,-0.72 0.27,-1 0.27,-1 0,0 1.44,-0.07 1.88,-0.96 0.43,-0.89 -0.63,-1.82 -0.63,-1.82 0,0 -0.9,-0.88 -2.19,-2.2 -1.29,-1.32 -0.74,-1.6 -0.74,-1.6 0.43,-1.34 0.32,-1.67 0.32,-1.67 -0.07,-1.55 -2.95,-6.13 -2.95,-6.13 1.11,-0.23 0.93,-1.34 0.93,-1.34 -0.13,-1.44 -1.74,-2.14 -3.47,-2.63 -1.72,-0.48 -1.83,-0.26 -2.78,-0.25 -0.94,0.01 -1.28,-0.26 -3.38,-0.13 -2.11,0.13 -3.83,-0.02 -6.32,0.73 -2.49,0.75 -4.3,2.26 -5.18,3.22 -0.88,0.95 -2.07,3.63 -2.39,4.63 -0.32,1 -0.47,2.5 -0.74,3.39 -0.27,0.89 0.08,2.66 0.32,3.71 0.23,1.05 3.8,7.56 3.91,7.95 0.12,0.39 0.88,0.88 0.88,0.88 z"
   id="path214016" />
	
		<linearGradient
   id="SVGID_14_"
   gradientUnits="userSpaceOnUse"
   x1="533.1424"
   y1="169.2308"
   x2="518.3229"
   y2="116.6218"
   gradientTransform="matrix(0.69330816,-0.72065182,0.72065182,0.69330816,46.703196,463.82938)">
		<stop
   offset="0"
   style="stop-color:#EA7924"
   id="stop214018" />
		<stop
   offset="1"
   style="stop-color:#EA7924;stop-opacity:0"
   id="stop214020" />
	</linearGradient>
	
	
	
		<linearGradient
   id="SVGID_15_"
   gradientUnits="userSpaceOnUse"
   x1="546.8561"
   y1="88.2883"
   x2="493.0143"
   y2="37.4941"
   gradientTransform="matrix(0.9982 0.0601 -0.0601 0.9982 9.013 -13.4864)">
		<stop
   offset="0"
   style="stop-color:#EA7924"
   id="stop214035" />
		<stop
   offset="1"
   style="stop-color:#EA7924;stop-opacity:0"
   id="stop214037" />
	</linearGradient>
	<path
   class="st20"
   d="m 524.63424,102.11244 c 2.05,-0.59 6.27,1.15 6.27,1.15 3.62,1.25 23.04,3.59 23.44,3.27 0.4,-0.32 2.77,-0.71 3.38,-0.48 0.61,0.22 4.81,0.59 5.48,0.63 0.67,0.04 1.4,0.82 1.4,0.82 0,0 2.41,0.18 3.36,0.98 0.95,0.79 1.3,1.67 1.32,2.46 0.03,0.79 -0.9,1.41 -0.9,1.41 0,0 0.41,0.38 -0.05,1.2 -0.46,0.82 -0.85,1.45 -0.85,1.45 0,0 -0.17,0.33 -0.35,1.29 -0.17,0.95 -1.92,1.11 -1.92,1.11 0,0 -1.41,1.88 -2.79,1.46 -1.39,-0.42 -4.63,-1.46 -6.65,-1.43 -2.03,0.03 -5.76,-3.24 -5.76,-3.24 0,0 -8.41,1.12 -12.52,1.44 -4.11,0.32 -15.81,-2.6 -15.81,-2.6 0,0 -3.08,-0.82 -3.84,-0.84 -0.76,-0.02 -1.94,-0.14 -2.41,-1.51 -0.47,-1.37 -0.24,-3.14 -0.29,-4.32 -0.05,-1.19 -0.49,-3.31 -0.56,-3.82 -0.07,-0.51 -1.5,-4.139999 -1.5,-4.139999 0,0 -1.03,-4.17 -0.99,-5.69 0.05,-1.52 -1.12,-5.13 -1.12,-5.13 0,0 -1.01,-3.07 -1.07,-3.92 -0.06,-0.85 0.64,-4.29 0.73,-4.63 0.09,-0.34 1.7,-2.92 1.7,-2.92 0,0 3.72,-3.12 7.42,-2.34 3.7,0.79 7.76,3.36 7.19,8.25 -0.21,1.79 -0.47,2.82 -0.71,3.41 -0.26,0.64 -0.3,1.36 -0.06,2.01 0.34,0.92 1.05,2.03 1.01,3.47 -0.08,2.62 0.27,6.14 -1.21,7.53 -0.01,-0.02 -1.31,2.489999 -1.34,3.669999 z"
   id="path214040"
   style="fill:#2a2218" />
	
</g>
<metadata
   id="metadata218575"><rdf:RDF><cc:Work
       rdf:about=""><dc:creator><cc:Agent><dc:title>j4p4n</dc:title></cc:Agent></dc:creator><cc:license
         rdf:resource="http://creativecommons.org/publicdomain/zero/1.0/" /></cc:Work><cc:License
       rdf:about="http://creativecommons.org/publicdomain/zero/1.0/"><cc:permits
         rdf:resource="http://creativecommons.org/ns#Reproduction" /><cc:permits
         rdf:resource="http://creativecommons.org/ns#Distribution" /><cc:permits
         rdf:resource="http://creativecommons.org/ns#DerivativeWorks" /></cc:License></rdf:RDF></metadata></svg>
