<?xml version="1.0" encoding="UTF-8" standalone="no"?>
<svg
   xmlns:dc="http://purl.org/dc/elements/1.1/"
   xmlns:cc="http://creativecommons.org/ns#"
   xmlns:rdf="http://www.w3.org/1999/02/22-rdf-syntax-ns#"
   xmlns:svg="http://www.w3.org/2000/svg"
   xmlns="http://www.w3.org/2000/svg"
   xmlns:sodipodi="http://sodipodi.sourceforge.net/DTD/sodipodi-0.dtd"
   xmlns:inkscape="http://www.inkscape.org/namespaces/inkscape"
   viewBox="0 0 632.96027 467.10138"
   sodipodi:docname="Hominini_lineage.svg"
   inkscape:version="1.0 (4035a4fb49, 2020-05-01)"
   version="1.1"
   id="svg5287"
   height="498.24149"
   width="675.15759">
  <defs
     id="defs5289" />
  <sodipodi:namedview
     inkscape:document-rotation="0"
     inkscape:snap-bbox-edge-midpoints="true"
     inkscape:snap-object-midpoints="true"
     inkscape:snap-global="true"
     inkscape:object-paths="true"
     inkscape:bbox-nodes="true"
     fit-margin-left="10"
     fit-margin-right="10"
     fit-margin-bottom="10"
     fit-margin-top="10"
     inkscape:window-maximized="1"
     inkscape:window-y="-8"
     inkscape:window-x="-8"
     inkscape:window-height="962"
     inkscape:window-width="1280"
     inkscape:object-nodes="true"
     inkscape:snap-bbox="true"
     inkscape:guide-bbox="true"
     showguides="false"
     showgrid="false"
     inkscape:current-layer="layer1"
     inkscape:document-units="px"
     inkscape:cy="241.44858"
     inkscape:cx="407.98026"
     inkscape:zoom="1"
     inkscape:pageshadow="2"
     inkscape:pageopacity="0.0"
     borderopacity="1.0"
     bordercolor="#666666"
     pagecolor="#ffffff"
     id="base" />
  <metadata
     id="metadata5292">
    <rdf:RDF>
      <cc:Work
         rdf:about="">
        <dc:format>image/svg+xml</dc:format>
        <dc:type
           rdf:resource="http://purl.org/dc/dcmitype/StillImage" />
        <dc:title />
      </cc:Work>
    </rdf:RDF>
  </metadata>
  <g
     transform="translate(-318.91473,1089.6902)"
     id="layer1"
     inkscape:groupmode="layer"
     inkscape:label="Layer 1">
    <path
       sodipodi:nodetypes="cccccccccccccccccccccccccccccccccccccssscccssssssscccscszcccscccccccsscccscccsccccccccccccc"
       id="path3003-4"
       d="m 514.53324,-1045.7172 -67.01552,0.8887 c 2.21797,8.5223 2.02135,6.1701 6.2505,11.1304 1.50634,5.1573 10.13757,4.3207 12.50868,7.5176 5.24986,4.5476 2.14782,2.0095 7.1609,6.1698 2.63485,4.0733 1.93151,1.0482 4.40556,9.0524 2.44742,8.155 -2.55054,8.3387 -3.74145,17.77589 -2.86892,4.83267 -4.95423,7.79418 -7.16298,4.92338 -1.29318,-4.56415 -5.40378,-2.67644 -4.83977,-8.79696 1.30025,-12.61481 -4.31961,-4.11371 -5.44109,-10.22271 -0.60368,-4.8899 -2.46938,-3.2734 -0.92826,3.101 -0.85392,4.26062 -1.83469,5.28014 -1.44017,11.88567 4.28959,2.95927 2.36091,4.67735 -2.57804,7.48188 -5.25759,-0.78957 -6.6729,-0.0257 -6.8654,-7.28905 0.11486,-8.8982 -0.21259,-2.23634 0.80708,-11.0163 2.28959,-8.0196 -4.50284,-5.6443 -0.29774,-13.4948 1.47976,-6.8191 -0.2439,-7.2551 -2.51983,-7.3378 -1.08203,1.02 -1.71967,4.1415 -1.98717,5.1635 -0.45832,5.5535 0.0117,5.1211 1.1501,9.5597 -1.32405,3.0057 -1.63793,3.3929 -3.65213,0.8483 -1.93672,-4.702 -2.86119,-14.4624 -1.84151,-16.4533 0.89471,-7.2329 -2.43968,-4.0209 -3.72813,-3.3674 -1.4851,2.0961 -0.76015,2.5284 -1.1184,3.0139 -0.3504,7.6429 5.44146,15.6147 3.46875,21.633 0.8521,5.92795 -8.35552,-4.0306 -10.99896,-9.7451 -1.13314,-5.0897 -1.15531,-7.1497 -1.28262,-12.8746 -0.15553,-4.4277 0.69536,-3.3828 0.22111,-6.7227 l 0.18375,-5.1789 c 0.70577,-1.79 -0.92085,-2.0225 -2.61943,-1.4348 -0.59143,3.6556 -1.35482,7.4462 -2.21245,13.7356 0.29247,4.4692 0.49583,8.3058 0.66554,13.1384 1.3294,4.0701 1.76844,6.2528 5.52259,12.0473 2.59421,4.86935 11.24291,15.41583 11.24291,15.41583 10.01586,6.99454 16.09388,9.36491 22.93982,16.56662 6.35475,6.1255 8.48998,6.28209 10.62205,8.23403 10.49922,0.0605 5.6039,14.63734 13.36013,17.38437 l 5.95955,-5.17739 c 0.50999,-0.8248 10.06312,-8.33247 9.28104,-14.19114 -0.77754,-5.82476 1.56972,-4.65024 2.66832,-6.89092 1.89284,-3.86061 -3.24337,-8.96579 -5.06844,-4.65975 -5.96597,14.07596 -9.8073,12.05975 -10.21317,10.93042 -3.02348,-7.14552 -1.17854,-9.82217 1.45289,-15.69208 4.59614,-6.61215 -0.0933,-0.44434 5.59696,-10.06519 4.75767,-2.94918 10.58191,-6.79392 12.99956,-10.068 1.13932,-1.5429 5.92043,-5.6245 5.15632,-12.2843 -0.56676,-4.9398 2.09672,-7.5672 2.37858,-9.1316 1.86247,-10.337 -1.17414,-11.2465 -1.48424,-10.2885 -1.58606,4.9 -5.36672,22.7665 -5.99944,23.0503 -1.27025,0.5698 -2.59538,-1.7594 -2.35292,-4.3711 0.98822,-10.6449 8.79828,-27.8426 9.31363,-28.944 0.34285,-0.7328 2.07294,-2.7495 2.07294,-2.7495 z m -4.58648,4.5415 c 0.83591,1.0792 -2.21232,4.7976 -7.91497,19.2249 -0.63879,1.6161 -6.14223,24.38248 -7.15038,24.12728 -3.23892,-0.8199 -0.34907,-10.36428 1.70733,-18.03328 0.9006,-2.9971 1.61062,-6.2627 2.52183,-8.8513 1.1688,-3.3203 6.6026,-16.1258 8.316,-16.4109 1.71339,-0.2851 2.52019,-0.057 2.52019,-0.057 z m -58.61842,-0.6818 c 3.49707,0.5004 9.7333,-0.3286 13.12037,0.5239 -1.08806,2.2321 -2.744,-0.4087 -2.79417,3.6049 -0.01,2.6333 6.26021,1.128 4.5488,4.0991 -1.5747,2.5282 4.1117,3.857 0.35612,3.8496 -4.64839,0.064 -2.00823,-2.8421 -4.8281,-2.5521 -3.01553,0.2768 -4.29992,-1.5034 -3.63964,-2.0246 0.8989,-0.3774 1.78818,-3.0759 -0.30184,-2.823 -3.11627,1.1652 -7.13698,-2.3153 -6.46154,-4.6778 z m 53.28747,0.671 c 1.71243,-0.6248 -3.69191,4.5624 -4.43171,7.673 -0.8702,3.659 -3.28304,8.852 -3.28304,8.852 -0.91115,2.9099 -0.74021,3.7485 -2.39019,7.2099 -0.94918,3.2892 -7.09218,5.2732 -6.83331,0.5502 0.0388,-2.7858 -0.47575,2.2618 1.56868,-3.6027 0.1053,-0.5696 5.62076,-8.7591 5.84717,-9.0949 l 7.71934,-11.4461 z m -5.43042,2.0331 c -1.50855,2.1254 -1.36342,2.8251 -3.17725,5.2175 -2.11079,2.7841 -6.77644,7.8741 -6.42862,7.2532 0.34781,-0.621 2.33392,-6.8921 2.99205,-7.8515 0.21812,-1.6702 6.39514,-5.9441 8.10757,-6.5688 z m -30.81037,-2.5764 c 2.52141,0.01 6.51622,-1.1778 10.89947,0.3643 3.0744,0.536 3.29686,0.4952 8.28885,6.4084 3.67275,4.8178 -8.01881,10.7831 -12.94733,6.4318 -4.13734,-2.4296 1.89578,-3.8736 -2.45783,-5.1043 -5.81491,-1.3502 0.8111,-2.6051 -2.90737,-4.3058 -2.59432,-1.1189 -3.3972,-3.7977 -0.87579,-3.7944 z"
       style="fill:#98d5f8;fill-opacity:1;stroke:#b3b3b3;stroke-width:0.9375;stroke-linecap:butt;stroke-linejoin:miter;stroke-miterlimit:4;stroke-dasharray:none;stroke-opacity:1"
       inkscape:connector-curvature="0" />
    <g
       id="g4377">
      <path
         style="fill:none;stroke:#000000;stroke-width:1.5;stroke-linecap:butt;stroke-linejoin:miter;stroke-miterlimit:4;stroke-dasharray:none;stroke-opacity:1"
         d="m 941.1328,-1044.8285 v 405.72258 H 370.89473 v -405.72258 z"
         id="path3787-8"
         inkscape:connector-curvature="0"
         sodipodi:nodetypes="ccccc" />
      <path
         style="fill:none;stroke:#000000;stroke-width:1.5;stroke-linecap:butt;stroke-linejoin:miter;stroke-miterlimit:4;stroke-dasharray:none;stroke-opacity:1"
         d="m 360.87348,-1044.8285 h 10.02125 v 81.14453 h -10.02125 10.02125 v 81.14451 h -10.02125 10.02125 v 81.14451 h -10.02125 10.02125 v 81.14452 h -10.02125 10.02125 v 81.14451 h -10.02125"
         id="path3881-8"
         inkscape:connector-curvature="0"
         sodipodi:nodetypes="cccccccccccccccc" />
    </g>
    <g
       id="g4387">
      <text
         xml:space="preserve"
         style="font-style:normal;font-variant:normal;font-weight:normal;font-stretch:normal;line-height:0%;font-family:'Segoe UI';-inkscape-font-specification:'Segoe UI';letter-spacing:0px;word-spacing:0px;fill:#000000;fill-opacity:1;stroke:none"
         x="341.88739"
         y="-1038.5311"
         id="text3891-2"><tspan
           sodipodi:role="line"
           id="tspan3893-4"
           x="341.88739"
           y="-1038.5311"
           style="font-size:18px;line-height:1.25">0</tspan></text>
      <text
         xml:space="preserve"
         style="font-style:normal;font-variant:normal;font-weight:normal;font-stretch:normal;line-height:0%;font-family:'Segoe UI';-inkscape-font-specification:'Segoe UI';letter-spacing:0px;word-spacing:0px;fill:#000000;fill-opacity:1;stroke:none"
         x="328.15887"
         y="-957.38654"
         id="text3895-5"><tspan
           sodipodi:role="line"
           id="tspan3897-5"
           x="328.15887"
           y="-957.38654"
           style="font-size:18px;line-height:1.25">  2</tspan></text>
      <text
         xml:space="preserve"
         style="font-style:normal;font-variant:normal;font-weight:normal;font-stretch:normal;line-height:0%;font-family:'Segoe UI';-inkscape-font-specification:'Segoe UI';letter-spacing:0px;word-spacing:0px;fill:#000000;fill-opacity:1;stroke:none"
         x="328.28192"
         y="-876.242"
         id="text3899-1"><tspan
           sodipodi:role="line"
           id="tspan3901-7"
           x="328.28192"
           y="-876.242"
           style="font-size:18px;line-height:1.25">  4</tspan></text>
      <text
         xml:space="preserve"
         style="font-style:normal;font-variant:normal;font-weight:normal;font-stretch:normal;line-height:0%;font-family:'Segoe UI';-inkscape-font-specification:'Segoe UI';letter-spacing:0px;word-spacing:0px;fill:#000000;fill-opacity:1;stroke:none"
         x="328.51044"
         y="-795.04919"
         id="text3903-1"><tspan
           sodipodi:role="line"
           id="tspan3905-1"
           x="328.51044"
           y="-795.04919"
           style="font-size:18px;line-height:1.25">  6</tspan></text>
      <text
         xml:space="preserve"
         style="font-style:normal;font-variant:normal;font-weight:normal;font-stretch:normal;line-height:0%;font-family:'Segoe UI';-inkscape-font-specification:'Segoe UI';letter-spacing:0px;word-spacing:0px;fill:#000000;fill-opacity:1;stroke:none"
         x="328.26434"
         y="-713.91785"
         id="text3907-5"><tspan
           sodipodi:role="line"
           id="tspan3909-2"
           x="328.26434"
           y="-713.91785"
           style="font-size:18px;line-height:1.25">  8</tspan></text>
      <text
         xml:space="preserve"
         style="font-style:normal;font-variant:normal;font-weight:normal;font-stretch:normal;line-height:0%;font-family:'Segoe UI';-inkscape-font-specification:'Segoe UI';letter-spacing:0px;word-spacing:0px;fill:#000000;fill-opacity:1;stroke:none"
         x="328.28192"
         y="-632.80853"
         id="text3911-7"><tspan
           sodipodi:role="line"
           id="tspan3913-6"
           x="328.28192"
           y="-632.80853"
           style="font-size:18px;line-height:1.25">10</tspan></text>
    </g>
    <text
       id="text3789-2-5-1-2"
       y="-955.06165"
       x="466.03818"
       style="font-style:normal;font-weight:normal;line-height:0%;font-family:sans-serif;letter-spacing:0px;word-spacing:0px;fill:#000000;fill-opacity:1;stroke:none"
       xml:space="preserve"><tspan
         style="font-style:italic;font-variant:normal;font-weight:normal;font-stretch:normal;font-size:12.5px;line-height:1.25;font-family:'Segoe UI';-inkscape-font-specification:'Segoe UI';fill:#000000"
         y="-955.06165"
         x="466.03818"
         id="tspan3791-4-5-7-7"
         sodipodi:role="line">Homo</tspan></text>
    <path
       sodipodi:nodetypes="cssssssscscsssscsscscccscssssssssssssssscssccsccccc"
       id="path3003-4-2"
       d="m 680.01244,-781.68012 c -0.68197,-3.71709 -41.09162,-41.40572 -51.00901,-44.77482 -9.8227,-3.33694 -10.66545,-4.07724 -18.51839,-15.20986 -1.77026,-2.50959 -4.2031,-9.22569 -5.1615,-12.09912 -0.9584,-2.87343 7.45398,-38.73737 0.0921,-24.33164 -2.96388,5.79968 -6.06512,12.60872 -6.06512,12.60872 -5.75508,20.78687 -1.57895,-14.63883 -3.52388,-14.54697 -8.07483,0.3814 -7.43539,29.78665 -14.01778,18.87409 -5.71018,-9.46659 -12.14926,-16.21819 -12.60487,-25.38942 -0.13351,-8.98444 30.28264,-35.40562 31.49473,-47.83076 1.13895,-11.6754 -14.03505,20.56898 -21.79475,16.07985 0,0 4.18437,-26.00631 3.09094,-29.24703 -3.3683,-9.983 -10.2908,19.48465 -12.30997,30.39266 -2.3613,12.75631 -6.6549,-14.58985 -7.18766,-4.9107 -0.80647,14.65191 -0.89911,20.33719 -2.16277,29.95197 -1.77154,13.47899 -10.65774,14.81795 -11.00806,10.07272 -3.99449,-38.83841 12.38236,-90.93996 10.25686,-109.43251 -1.19885,-10.43036 -4.71393,-3.02689 -6.36789,8.71265 -1.65397,11.73955 -1.11535,31.95838 -4.48194,30.91743 -1.286,-3.29434 -4.95752,-43.50402 -6.20482,-44.53219 -1.2473,-1.02818 -3.37807,-0.92692 -4.5145,4.06799 0.0937,6.2156 -0.40732,7.89315 2.45981,17.50362 2.40266,14.3543 0.48003,12.2869 1.94354,30.44672 -2.23628,30.31494 -8.35726,5.55486 -12.27145,-1.33061 -3.91419,-6.88547 -6.78167,-0.20526 -1.35084,20.89849 7.46333,19.85879 9.07504,30.3026 8.27465,41.40138 -0.13669,1.8954 -3.22224,3.29145 -4.02553,3.19092 -0.80329,-0.10053 -4.1998,-0.69564 -7.40287,-6.66181 -6.011,-11.19635 0.13244,-24.88008 -3.84727,-23.71431 -2.85111,0.83517 -5.11709,15.46551 -7.50165,15.09494 -7.39172,-1.1487 -2.84875,-28.91696 -5.08704,-30.2961 -2.2383,-1.37913 -4.49747,17.23981 -3.7818,8.77242 0.2281,-2.69886 -1.57204,19.7013 -3.39862,17.73416 -1.82659,-1.96714 -3.45616,-4.07701 -4.79459,-6.32533 -10.70748,-17.98655 -8.49481,-44.5918 -8.49031,-42.44725 0.002,1.07228 -2.80341,-1.06839 -7.36369,0.10941 -4.56028,1.17781 0.2101,11.67937 -5.93826,10.87961 -3.67006,-0.47739 -6.90094,-2.66622 -8.52662,-5.58007 -4.35126,-7.79914 -4.46328,-10.78907 -6.61079,-14.03281 -3.28975,-4.96907 -8.83376,7.51577 -1.28566,16.4324 5.54484,6.55016 13.50362,18.00552 13.5218,22.30285 -9.54424,1.69442 -19.87432,-2.02378 -27.87261,-6.4276 -7.39287,-4.07048 -4.94641,-16.65936 -8.76422,-17.22425 0,0 -0.84427,6.45817 -0.37815,12.67685 4.52696,9.10854 5.40633,11.6337 17.45875,17.00211 9.20272,3.11702 13.53799,4.81144 27.52995,12.37445 13.99195,7.56302 14.01208,7.96232 20.41199,12.34769 11.01528,8.31108 16.5168,11.18186 25.40786,18.56631 23.76746,14.46951 50.81778,36.95696 53.6206,38.75185 17.88261,11.71919 43.68778,41.68259 44.95973,50.53688 3.99531,34.68442 -0.12866,8.46622 6.21151,50.82228"
       style="fill:#007ee4;fill-opacity:1;stroke:#b3b3b3;stroke-width:1.5;stroke-linecap:butt;stroke-linejoin:miter;stroke-miterlimit:4;stroke-dasharray:none;stroke-opacity:1"
       inkscape:connector-curvature="0" />
    <path
       sodipodi:nodetypes="csssssssccsccssscsssscsc"
       id="path3003-4-2-7"
       d="m 700.15005,-722.26275 c -0.68197,-3.71709 27.41828,32.92119 25.22385,7.24704 -1.09722,-12.83707 -47.54563,-10.94199 -32.87474,-40.91221 7.0664,-14.43549 15.8673,-26.64651 14.36597,-43.4853 -3.00266,-33.67757 -21.9113,53.95177 -27.51181,26.61877 -1.0674,-5.20939 7.44845,-41.45157 6.47288,-55.90589 -0.97557,-14.45433 -11.18767,29.93966 -15.90286,14.47814 -9.92312,-32.53873 10.47837,-88.05411 14.41241,-110.71949 1.96869,-11.34229 -0.0629,-29.76354 -0.68949,-31.71943 -0.13483,-18.00063 -1.51955,-10.02248 1.48488,-30.54754 4.11398,-31.88544 3.17041,-69.36764 -0.80306,-53.88764 -2.39315,9.3232 1.72605,43.52208 -7.97486,44.4276 -7.30882,-7.0661 -5.36436,-4.337 -10.02312,-17.4567 -1.80683,-1.9435 2.15261,-25.5463 0.71573,-29.4058 -1.43687,-3.8595 -4.74526,21.1476 -5.85257,17.4767 -1.10731,-3.6709 -3.95305,-16.2681 -4.77118,-17.6458 -0.81813,-1.3778 -1.26738,0.7922 -1.83671,3.8121 2.36215,13.9974 -8.96214,-12.4933 -5.99841,-0.8974 2.96372,11.596 7.36022,10.8945 10.04473,20.6324 2.68451,9.7379 23.24844,55.66766 18.68584,79.83365 -4.12532,21.84985 -10.44007,56.97619 -24.01487,80.98812 -13.5748,24.01193 -23.13975,24.66342 -30.38073,31.7684 -13.88331,25.10833 34.99926,24.68013 34.67373,49.51285 -0.11219,8.55843 -26.15202,31.48889 -26.47328,49.54832"
       style="fill:#ba34ff;fill-opacity:1;stroke:#b3b3b3;stroke-width:1.5;stroke-linecap:butt;stroke-linejoin:miter;stroke-miterlimit:4;stroke-dasharray:none;stroke-opacity:1"
       inkscape:connector-curvature="0" />
    <path
       sodipodi:nodetypes="ccssscsssssssssccc"
       id="path3003-4-2-7-5"
       d="m 767.88498,-639.10592 c -1.75148,-29.73678 -12.09673,-45.21432 14.10022,-79.36713 7.97647,-11.41393 33.29432,-33.11939 35.34237,-44.20181 1.95906,-10.60088 3.90791,-29.32483 0.43889,-35.40415 -4.09731,-7.18038 -13.62179,56.99293 -38.18925,51.74683 -8.21214,-1.75361 -34.23856,-91.97822 -23.11931,-143.36185 7.42194,-29.98209 13.99058,-62.31992 33.78503,-85.19426 4.59601,-5.31112 4.83332,-5.48538 11.53463,-17.72299 8.6806,-15.85212 8.79105,-22.10252 16.15038,-45.31082 6.60946,-20.8435 -6.79513,11.5375 -9.74188,9.7509 -1.94047,-1.1765 -1.73191,-26.0261 -3.83209,-10.9799 -2.11081,15.1224 -5.51362,54.05468 -12.08333,48.32283 -5.20263,-4.53912 1.47052,-46.02853 0.76702,-52.32153 -0.70356,-6.293 -5.3816,20.6688 -7.13829,12.9767 -6.64854,-29.1125 -5.04454,-6.5849 -1.45546,19.6269 4.23804,30.95135 -22.11556,49.58697 -37.87463,113.82449 -6.71226,37.40601 -7.4286,90.14492 -9.23223,135.88884 -5.40672,48.06135 -40.10306,23.03298 -52.02803,55.47404"
       style="fill:#ff349c;fill-opacity:1;stroke:#b3b3b3;stroke-width:1.6997937;stroke-linecap:butt;stroke-linejoin:miter;stroke-miterlimit:4;stroke-dasharray:none;stroke-opacity:1"
       inkscape:connector-curvature="0" />
    <text
       id="text3789-2-5-1-2-3-5-6"
       y="-955.35724"
       x="756.54694"
       style="font-style:normal;font-weight:normal;font-size:12px;line-height:0%;font-family:sans-serif;letter-spacing:0px;word-spacing:0px;fill:#000000;fill-opacity:1;stroke:none;stroke-width:1"
       xml:space="preserve"><tspan
         style="font-style:italic;font-variant:normal;font-weight:normal;font-stretch:normal;font-size:12.5px;line-height:1.25;font-family:'Segoe UI';-inkscape-font-specification:'Segoe UI';fill:#000000;stroke-width:1"
         y="-955.35724"
         x="756.54694"
         id="tspan3791-4-5-7-7-6-3-2"
         sodipodi:role="line">Gorilla</tspan></text>
    <text
       transform="rotate(-80)"
       id="text107"
       y="376.92542"
       x="994.9306"
       style="font-style:normal;font-weight:normal;font-size:37.5px;line-height:1.25;font-family:sans-serif;letter-spacing:0px;word-spacing:0px;fill:#000000;fill-opacity:1;stroke:none;stroke-width:0.9375"
       xml:space="preserve"><tspan
         style="font-style:italic;font-variant:normal;font-weight:normal;font-stretch:normal;font-size:10px;font-family:sans-serif;-inkscape-font-specification:'sans-serif Italic';stroke-width:0.9375"
         y="376.92542"
         x="994.9306"
         id="tspan105"
         sodipodi:role="line">Paranthropus</tspan></text>
    <text
       transform="rotate(10)"
       id="text3789-2-5-1-2-3-3"
       y="-962.79828"
       x="270.6188"
       style="font-style:normal;font-weight:normal;font-size:12px;line-height:0%;font-family:sans-serif;letter-spacing:0px;word-spacing:0px;fill:#000000;fill-opacity:1;stroke:none;stroke-width:1"
       xml:space="preserve"><tspan
         style="font-style:italic;font-variant:normal;font-weight:normal;font-stretch:normal;font-size:12.5px;line-height:1.25;font-family:'Segoe UI';-inkscape-font-specification:'Segoe UI';fill:#000000;stroke-width:1"
         y="-962.79828"
         x="270.6188"
         id="tspan3791-4-5-7-7-6-6"
         sodipodi:role="line">Australopithecus</tspan></text>
    <text
       transform="rotate(-70)"
       id="text107-7"
       y="391.30688"
       x="949.54755"
       style="font-style:normal;font-weight:normal;font-size:37.5px;line-height:1.25;font-family:sans-serif;letter-spacing:0px;word-spacing:0px;fill:#000000;fill-opacity:1;stroke:none;stroke-width:0.9375"
       xml:space="preserve"><tspan
         style="font-style:italic;font-variant:normal;font-weight:normal;font-stretch:normal;font-size:8.75px;font-family:sans-serif;-inkscape-font-specification:'sans-serif Italic';stroke-width:0.9375"
         y="391.30688"
         x="949.54755"
         id="tspan105-5"
         sodipodi:role="line">Sahelanthropus</tspan></text>
    <text
       id="text3789-2-5-1-2-3-2"
       y="-744.23346"
       x="626.65588"
       style="font-style:normal;font-weight:normal;font-size:12px;line-height:0%;font-family:'Segoe UI';letter-spacing:0px;word-spacing:0px;fill:#000000;fill-opacity:1;stroke:none;stroke-width:1;-inkscape-font-specification:'Segoe UI';font-stretch:normal;font-variant:normal;"
       xml:space="preserve"><tspan
         style="font-style:normal;font-variant:normal;font-weight:normal;font-stretch:normal;font-size:16.25px;line-height:1.25;font-family:'Segoe UI';-inkscape-font-specification:'Segoe UI';fill:#000000;stroke-width:1;"
         y="-744.23346"
         x="626.65588"
         id="tspan3791-4-5-7-7-6-9"
         sodipodi:role="line">Hominini</tspan></text>
    <text
       id="text3789-2-5-1-2-3-2-1"
       y="-731.7597"
       x="729.08142"
       style="font-style:normal;font-weight:normal;font-size:12px;line-height:0%;font-family:'Segoe UI';letter-spacing:0px;word-spacing:0px;fill:#000000;fill-opacity:1;stroke:none;stroke-width:1;-inkscape-font-specification:'Segoe UI';font-stretch:normal;font-variant:normal;"
       xml:space="preserve"><tspan
         style="font-style:normal;font-variant:normal;font-weight:normal;font-stretch:normal;font-size:16.25px;line-height:1.25;font-family:'Segoe UI';-inkscape-font-specification:'Segoe UI';fill:#000000;stroke-width:1;"
         y="-731.7597"
         x="729.08142"
         id="tspan3791-4-5-7-7-6-9-2"
         sodipodi:role="line">Gorillini</tspan></text>
    <text
       transform="rotate(-70)"
       id="text3789-2-5-1-2-3-5-6-7"
       y="510.12039"
       x="955.60114"
       style="font-style:normal;font-weight:normal;font-size:12px;line-height:0%;font-family:sans-serif;letter-spacing:0px;word-spacing:0px;fill:#000000;fill-opacity:1;stroke:none;stroke-width:1"
       xml:space="preserve"><tspan
         style="font-style:italic;font-variant:normal;font-weight:normal;font-stretch:normal;font-size:10px;line-height:1.25;font-family:'Segoe UI';-inkscape-font-specification:'Segoe UI';fill:#000000;stroke-width:1"
         y="510.12039"
         x="955.60114"
         id="tspan3791-4-5-7-7-6-3-2-0"
         sodipodi:role="line">Chororapithecus</tspan></text>
    <path
       sodipodi:nodetypes="csccccc"
       id="path3003-4-2-6"
       d="m 908.77389,-640.45023 c 6.55289,-22.98905 7.53021,-36.43618 -4.81527,-17.20132 -9.76868,15.22008 -4.21507,-45.8742 -11.56234,-29.81015 -12.17417,36.11855 -25.37746,-21.05139 -27.03557,-40.25798 -1.79575,-6.39971 -10.55681,-34.85196 -9.0508,12.83039 2.77383,26.21584 12.42549,13.46766 10.36035,44.07415 -5.13551,25.6713 -2.43193,14.97378 -21.00474,31.1943"
       style="fill:#ff0000;fill-opacity:1;stroke:#b3b3b3;stroke-width:1.5;stroke-linecap:butt;stroke-linejoin:miter;stroke-miterlimit:4;stroke-dasharray:none;stroke-opacity:1"
       inkscape:connector-curvature="0" />
    <text
       id="text252"
       y="-680.28168"
       x="831.89539"
       style="font-style:normal;font-weight:normal;font-size:37.5px;line-height:1.25;font-family:sans-serif;letter-spacing:0px;word-spacing:0px;fill:#000000;fill-opacity:1;stroke:none;stroke-width:0.9375;-inkscape-font-specification:sans-serif;font-stretch:normal;font-variant:normal;"
       xml:space="preserve"><tspan
         style="font-style:normal;font-variant:normal;font-weight:normal;font-stretch:normal;font-size:15px;font-family:sans-serif;-inkscape-font-specification:sans-serif;stroke-width:0.9375;"
         y="-680.28168"
         x="831.89539"
         id="tspan250"
         sodipodi:role="line">Dryopithecini</tspan></text>
    <text
       transform="rotate(-70)"
       id="text107-7-0"
       y="365.90314"
       x="983.13269"
       style="font-style:normal;font-weight:normal;font-size:37.5px;line-height:1.25;font-family:sans-serif;letter-spacing:0px;word-spacing:0px;fill:#000000;fill-opacity:1;stroke:none;stroke-width:0.9375"
       xml:space="preserve"><tspan
         style="font-style:italic;font-variant:normal;font-weight:normal;font-stretch:normal;font-size:10px;font-family:sans-serif;-inkscape-font-specification:'sans-serif Italic';stroke-width:0.9375"
         y="365.90314"
         x="983.13269"
         id="tspan105-5-6"
         sodipodi:role="line">Orrorin</tspan></text>
    <text
       id="text107-2"
       y="-870.45911"
       x="578.35962"
       style="font-style:normal;font-weight:normal;font-size:37.5px;line-height:1.25;font-family:sans-serif;letter-spacing:0px;word-spacing:0px;fill:#000000;fill-opacity:1;stroke:none;stroke-width:0.9375"
       xml:space="preserve"><tspan
         style="font-style:italic;font-variant:normal;font-weight:normal;font-stretch:normal;font-size:7.5px;font-family:sans-serif;-inkscape-font-specification:'sans-serif Italic';stroke-width:0.9375"
         y="-870.45911"
         x="578.35962"
         id="tspan105-6"
         sodipodi:role="line">Ardipithecus</tspan></text>
    <path
       sodipodi:nodetypes="ccccscc"
       id="path3003-4-2-6-1"
       d="m 776.50284,-639.10592 c -21.20038,-32.28651 -29.816,-41.07313 -37.77992,-56.64221 -14.16779,-21.69549 -19.08046,-17.15781 -27.47691,-30.6364 -42.73969,-1.07943 -52.84705,-3.86447 -80.12363,-2.11733 1.38691,13.10795 19.29781,16.10158 40.72294,24.88812 27.55777,11.30157 37.72582,24.55963 50.1009,35.78173 16.28528,23.79806 3.85313,6.19054 19.76438,28.72609"
       style="fill:#ff0000;fill-opacity:1;stroke:#b3b3b3;stroke-width:1.5;stroke-linecap:butt;stroke-linejoin:miter;stroke-miterlimit:4;stroke-dasharray:none;stroke-opacity:1"
       inkscape:connector-curvature="0" />
    <text
       id="text3789-2-5-1-2-3-2-9"
       y="-652.53497"
       x="742.32166"
       style="font-style:normal;font-weight:normal;font-size:12px;line-height:0%;font-family:'Segoe UI';letter-spacing:0px;word-spacing:0px;fill:#000000;fill-opacity:1;stroke:none;stroke-width:1;-inkscape-font-specification:'Segoe UI';font-stretch:normal;font-variant:normal;"
       xml:space="preserve"><tspan
         style="font-style:normal;font-variant:normal;font-weight:normal;font-stretch:normal;font-size:25px;line-height:1.25;font-family:'Segoe UI';-inkscape-font-specification:'Segoe UI';fill:#000000;stroke-width:1;"
         y="-652.53497"
         x="742.32166"
         id="tspan3791-4-5-7-7-6-9-3"
         sodipodi:role="line">Homininae</tspan></text>
    <text
       id="text107-2-9"
       y="-711.64661"
       x="653.12317"
       style="font-style:normal;font-weight:normal;font-size:37.5px;line-height:1.25;font-family:sans-serif;letter-spacing:0px;word-spacing:0px;fill:#000000;fill-opacity:1;stroke:none;stroke-width:0.9375"
       xml:space="preserve"><tspan
         style="font-style:italic;font-variant:normal;font-weight:normal;font-stretch:normal;font-size:7.5px;font-family:sans-serif;-inkscape-font-specification:'sans-serif Italic';stroke-width:0.9375"
         y="-711.64661"
         x="653.12317"
         id="tspan105-6-2"
         sodipodi:role="line">Ouranopithecus</tspan></text>
    <text
       id="text3789-2-5-1-2-0"
       y="-1037.6693"
       x="462.33121"
       style="font-style:normal;font-weight:normal;font-size:12px;line-height:0%;font-family:sans-serif;letter-spacing:0px;word-spacing:0px;fill:#000000;fill-opacity:1;stroke:none;stroke-width:1"
       xml:space="preserve"><tspan
         style="font-style:italic;font-variant:normal;font-weight:normal;font-stretch:normal;font-size:7.5px;line-height:1.25;font-family:'Segoe UI';-inkscape-font-specification:'Segoe UI';fill:#000000;stroke-width:1"
         y="-1037.6693"
         x="462.33121"
         id="tspan3791-4-5-7-7-2"
         sodipodi:role="line">H. sapiens</tspan></text>
    <text
       id="text3789-2-5-1-2-0-3"
       y="-990.73334"
       x="439.95233"
       style="font-style:normal;font-weight:normal;font-size:12px;line-height:0%;font-family:sans-serif;letter-spacing:0px;word-spacing:0px;fill:#000000;fill-opacity:1;stroke:none;stroke-width:1"
       xml:space="preserve"><tspan
         style="font-style:italic;font-variant:normal;font-weight:normal;font-stretch:normal;font-size:10px;line-height:1.25;font-family:'Segoe UI';-inkscape-font-specification:'Segoe UI';fill:#000000;stroke-width:1"
         y="-990.73334"
         x="439.95233"
         id="tspan3791-4-5-7-7-2-7"
         sodipodi:role="line">H. erectus</tspan></text>
    <text
       id="text3789-2-5-1-2-3"
       y="-844.03192"
       x="509.40509"
       style="font-style:normal;font-weight:normal;font-size:12px;line-height:0%;font-family:'Segoe UI';letter-spacing:0px;word-spacing:0px;fill:#000000;fill-opacity:1;stroke:none;stroke-width:1;-inkscape-font-specification:'Segoe UI';font-stretch:normal;font-variant:normal;"
       xml:space="preserve"><tspan
         style="font-style:normal;font-variant:normal;font-weight:normal;font-stretch:normal;font-size:14px;line-height:1.25;font-family:'Segoe UI';-inkscape-font-specification:'Segoe UI';fill:#000000;stroke-width:1;"
         y="-844.03192"
         x="509.40509"
         id="tspan3791-4-5-7-7-6"
         sodipodi:role="line">Australopithecina</tspan></text>
    <text
       transform="rotate(-90)"
       id="text65"
       y="694.86023"
       x="1005.9156"
       style="font-style:normal;font-weight:normal;font-size:37.5px;line-height:1.25;font-family:sans-serif;letter-spacing:0px;word-spacing:0px;fill:#000000;fill-opacity:1;stroke:none;stroke-width:0.9375"
       xml:space="preserve"><tspan
         style="font-style:italic;font-variant:normal;font-weight:normal;font-stretch:normal;font-size:6.25px;font-family:sans-serif;-inkscape-font-specification:'sans-serif Italic';stroke-width:0.9375"
         y="694.86023"
         x="1005.9156"
         id="tspan63"
         sodipodi:role="line">P. Paniscus</tspan></text>
    <text
       transform="rotate(-110)"
       id="text65-3"
       y="962.354"
       x="709.93726"
       style="font-style:normal;font-weight:normal;font-size:37.5px;line-height:1.25;font-family:sans-serif;letter-spacing:0px;word-spacing:0px;fill:#000000;fill-opacity:1;stroke:none;stroke-width:0.9375"
       xml:space="preserve"><tspan
         style="font-style:italic;font-variant:normal;font-weight:normal;font-stretch:normal;font-size:6.25px;font-family:sans-serif;-inkscape-font-specification:'sans-serif Italic';stroke-width:0.9375"
         y="962.354"
         x="709.93726"
         id="tspan63-6"
         sodipodi:role="line">P. troglodytes</tspan></text>
    <text
       id="text3789-2-5-1-2-3-5"
       y="-953.90991"
       x="665.58667"
       style="font-style:normal;font-weight:normal;font-size:12px;line-height:0%;font-family:sans-serif;letter-spacing:0px;word-spacing:0px;fill:#000000;fill-opacity:1;stroke:none;stroke-width:1"
       xml:space="preserve"><tspan
         style="font-style:italic;font-variant:normal;font-weight:normal;font-stretch:normal;font-size:12.5px;line-height:1.25;font-family:'Segoe UI';-inkscape-font-specification:'Segoe UI';fill:#000000;stroke-width:1"
         y="-953.90991"
         x="665.58667"
         id="tspan3791-4-5-7-7-6-3"
         sodipodi:role="line">Pan</tspan></text>
    <text
       transform="rotate(-70)"
       id="text65-3-7"
       y="420.70029"
       x="1211.5687"
       style="font-style:normal;font-weight:normal;font-size:37.5px;line-height:1.25;font-family:sans-serif;letter-spacing:0px;word-spacing:0px;fill:#000000;fill-opacity:1;stroke:none;stroke-width:0.9375"
       xml:space="preserve"><tspan
         style="font-style:italic;font-variant:normal;font-weight:normal;font-stretch:normal;font-size:6.25px;font-family:sans-serif;-inkscape-font-specification:'sans-serif Italic';stroke-width:0.9375"
         y="420.70029"
         x="1211.5687"
         id="tspan63-6-5"
         sodipodi:role="line">G. beringei</tspan></text>
    <text
       transform="rotate(-90)"
       id="text65-3-7-3"
       y="779.8316"
       x="1003.3008"
       style="font-style:normal;font-weight:normal;font-size:37.5px;line-height:1.25;font-family:sans-serif;letter-spacing:0px;word-spacing:0px;fill:#000000;fill-opacity:1;stroke:none;stroke-width:0.9375"
       xml:space="preserve"><tspan
         style="font-style:italic;font-variant:normal;font-weight:normal;font-stretch:normal;font-size:6.25px;font-family:sans-serif;-inkscape-font-specification:'sans-serif Italic';stroke-width:0.9375"
         y="779.8316"
         x="1003.3008"
         id="tspan63-6-5-5"
         sodipodi:role="line">G. gorilla</tspan></text>
    <text
       transform="rotate(70)"
       id="text252-2"
       y="-1060.809"
       x="-415.13184"
       style="font-style:normal;font-weight:normal;font-size:37.5px;line-height:1.25;font-family:sans-serif;letter-spacing:0px;word-spacing:0px;fill:#000000;fill-opacity:1;stroke:none;stroke-width:0.9375"
       xml:space="preserve"><tspan
         style="font-style:italic;font-variant:normal;font-weight:normal;font-stretch:normal;font-size:8.75px;font-family:sans-serif;-inkscape-font-specification:'sans-serif Italic';stroke-width:0.9375"
         y="-1060.809"
         x="-415.13184"
         id="tspan250-9"
         sodipodi:role="line">Oreopithecus</tspan></text>
    <text
       transform="rotate(-70)"
       id="text107-2-1"
       y="228.43175"
       x="1035.4774"
       style="font-style:normal;font-weight:normal;font-size:37.5px;line-height:1.25;font-family:sans-serif;letter-spacing:0px;word-spacing:0px;fill:#000000;fill-opacity:1;stroke:none;stroke-width:0.9375"
       xml:space="preserve"><tspan
         style="font-style:italic;font-variant:normal;font-weight:normal;font-stretch:normal;font-size:7.5px;font-family:sans-serif;-inkscape-font-specification:'sans-serif Italic';stroke-width:0.9375"
         y="228.43175"
         x="1035.4774"
         id="tspan105-6-27"
         sodipodi:role="line">Praeanthropus</tspan></text>
    <text
       transform="rotate(20)"
       id="text3789-2-5-1-2-0-3-3"
       y="-1034.1152"
       x="103.10957"
       style="font-style:italic;font-variant:normal;font-weight:normal;font-stretch:normal;font-size:7.5px;line-height:1.25;font-family:'Segoe UI';-inkscape-font-specification:'Segoe UI';font-variant-ligatures:normal;font-variant-position:normal;font-variant-caps:normal;font-variant-numeric:normal;font-variant-alternates:normal;font-feature-settings:normal;text-indent:0;text-align:start;text-decoration:none;text-decoration-line:none;text-decoration-style:solid;text-decoration-color:#000000;letter-spacing:0px;word-spacing:0px;text-transform:none;writing-mode:lr-tb;direction:ltr;text-orientation:mixed;dominant-baseline:auto;baseline-shift:baseline;text-anchor:start;white-space:normal;shape-padding:0;opacity:1;vector-effect:none;fill:#000000;fill-opacity:1;stroke:none;stroke-width:1;stroke-linecap:butt;stroke-linejoin:miter;stroke-miterlimit:4;stroke-dasharray:none;stroke-dashoffset:0;stroke-opacity:1"
       xml:space="preserve"><tspan
         style="font-style:italic;font-variant:normal;font-weight:normal;font-stretch:normal;font-size:7.5px;line-height:1.25;font-family:'Segoe UI';-inkscape-font-specification:'Segoe UI';font-variant-ligatures:normal;font-variant-position:normal;font-variant-caps:normal;font-variant-numeric:normal;font-variant-alternates:normal;font-feature-settings:normal;text-indent:0;text-align:start;text-decoration:none;text-decoration-line:none;text-decoration-style:solid;text-decoration-color:#000000;letter-spacing:0px;word-spacing:0px;text-transform:none;writing-mode:lr-tb;direction:ltr;text-orientation:mixed;dominant-baseline:auto;baseline-shift:baseline;text-anchor:start;white-space:normal;shape-padding:0;vector-effect:none;fill:#000000;fill-opacity:1;stroke:none;stroke-width:1;stroke-linecap:butt;stroke-linejoin:miter;stroke-miterlimit:4;stroke-dasharray:none;stroke-dashoffset:0;stroke-opacity:1"
         y="-1034.1152"
         x="103.10957"
         id="tspan3791-4-5-7-7-2-7-6"
         sodipodi:role="line">A. africanus</tspan></text>
    <text
       transform="rotate(20)"
       id="text3789-2-5-1-2-0-3-3-0"
       y="-1023.9583"
       x="151.96144"
       style="font-style:normal;font-weight:normal;font-size:12px;line-height:0%;font-family:sans-serif;letter-spacing:0px;word-spacing:0px;fill:#000000;fill-opacity:1;stroke:none;stroke-width:1"
       xml:space="preserve"><tspan
         style="font-style:italic;font-variant:normal;font-weight:normal;font-stretch:normal;font-size:6.25px;line-height:1.25;font-family:'Segoe UI';-inkscape-font-specification:'Segoe UI';fill:#000000;stroke-width:1"
         y="-1023.9583"
         x="151.96144"
         id="tspan3791-4-5-7-7-2-7-6-6"
         sodipodi:role="line">A. deyiremeda </tspan></text>
    <text
       id="text3789-2-5-1-2-0-3-3-9"
       y="-928.14685"
       x="420.94424"
       style="font-style:normal;font-weight:normal;font-size:12px;line-height:0%;font-family:sans-serif;letter-spacing:0px;word-spacing:0px;fill:#000000;fill-opacity:1;stroke:none;stroke-width:1"
       xml:space="preserve"><tspan
         style="font-style:italic;font-variant:normal;font-weight:normal;font-stretch:normal;font-size:7.5px;line-height:1.25;font-family:'Segoe UI';-inkscape-font-specification:'Segoe UI';fill:#000000;stroke-width:1"
         y="-928.14685"
         x="420.94424"
         id="tspan3791-4-5-7-7-2-7-6-2"
         sodipodi:role="line">A. garhi</tspan></text>
    <text
       id="text3789-2-5-1-2-0-3-0"
       y="-947.3114"
       x="439.59653"
       style="font-style:normal;font-weight:normal;font-size:12px;line-height:0%;font-family:sans-serif;letter-spacing:0px;word-spacing:0px;fill:#000000;fill-opacity:1;stroke:none;stroke-width:1"
       xml:space="preserve"><tspan
         style="font-style:italic;font-variant:normal;font-weight:normal;font-stretch:normal;font-size:7.5px;line-height:1.25;font-family:'Segoe UI';-inkscape-font-specification:'Segoe UI';fill:#000000;stroke-width:1"
         y="-947.3114"
         x="439.59653"
         id="tspan3791-4-5-7-7-2-7-2"
         sodipodi:role="line">A. sediba</tspan></text>
  </g>
</svg>
