<svg viewBox="0 0 800 400" xmlns="http://www.w3.org/2000/svg" style="display:block;width:100%;height:auto;background:#faf8f3;font-family:sans-serif;">
  <rect x="85" y="30" width="680" height="310" fill="#ffffff" stroke="none"/>

  <line x1="85" y1="30"    x2="765" y2="30"    stroke="#e8e2d2" stroke-width="1"/>
  <line x1="85" y1="107.5" x2="765" y2="107.5" stroke="#e8e2d2" stroke-width="1"/>
  <line x1="85" y1="185"   x2="765" y2="185"   stroke="#e8e2d2" stroke-width="1"/>
  <line x1="85" y1="262.5" x2="765" y2="262.5" stroke="#e8e2d2" stroke-width="1"/>

  <line x1="255" y1="30" x2="255" y2="340" stroke="#e8e2d2" stroke-width="1"/>
  <line x1="425" y1="30" x2="425" y2="340" stroke="#e8e2d2" stroke-width="1"/>
  <line x1="595" y1="30" x2="595" y2="340" stroke="#e8e2d2" stroke-width="1"/>

  <rect x="480" y="30" width="22" height="310" fill="#8b1a1a" fill-opacity="0.10"/>

  <line x1="85" y1="340" x2="765" y2="340" stroke="#3d3020" stroke-width="1.5"/>
  <line x1="85" y1="30"  x2="85"  y2="340" stroke="#3d3020" stroke-width="1.5"/>

  <g font-size="14" fill="#3d3020" text-anchor="middle">
    <line x1="85"  y1="340" x2="85"  y2="346" stroke="#3d3020" stroke-width="1.5"/>
    <text x="85"  y="362">-80°</text>
    <line x1="255" y1="340" x2="255" y2="346" stroke="#3d3020" stroke-width="1.5"/>
    <text x="255" y="362">-40°</text>
    <line x1="425" y1="340" x2="425" y2="346" stroke="#3d3020" stroke-width="1.5"/>
    <text x="425" y="362">0°</text>
    <line x1="595" y1="340" x2="595" y2="346" stroke="#3d3020" stroke-width="1.5"/>
    <text x="595" y="362">40°</text>
    <line x1="765" y1="340" x2="765" y2="346" stroke="#3d3020" stroke-width="1.5"/>
    <text x="765" y="362">80°</text>
  </g>

  <text x="170" y="386" font-size="14" fill="#3d3020" text-anchor="middle">← 耳側 (temporal)</text>
  <text x="680" y="386" font-size="14" fill="#3d3020" text-anchor="middle">鼻側 (nasal) →</text>

  <g font-size="13" fill="#3d3020" text-anchor="end">
    <line x1="79" y1="340" x2="85" y2="340" stroke="#3d3020" stroke-width="1.5"/>
    <text x="76" y="345">0</text>
    <line x1="79" y1="262.5" x2="85" y2="262.5" stroke="#3d3020" stroke-width="1.5"/>
    <text x="76" y="267">50k</text>
    <line x1="79" y1="185" x2="85" y2="185" stroke="#3d3020" stroke-width="1.5"/>
    <text x="76" y="190">100k</text>
    <line x1="79" y1="107.5" x2="85" y2="107.5" stroke="#3d3020" stroke-width="1.5"/>
    <text x="76" y="112">150k</text>
    <line x1="79" y1="30" x2="85" y2="30" stroke="#3d3020" stroke-width="1.5"/>
    <text x="76" y="35">200k</text>
  </g>

  <text x="38" y="185" font-size="14" fill="#3d3020" text-anchor="middle" transform="rotate(-90 38 185)">受容体の数 (個 / mm²)</text>

  <polyline points="85,334 155,334 255,334 340,329 382,318 404,301 416,247 421,154 425,32 429,154 434,247 446,301 468,318 480,326 488,340 500,340 510,326 595,333 680,334 765,334"
            fill="none" stroke="#2c5d8f" stroke-width="2.5" stroke-linejoin="round" stroke-linecap="round"/>

  <polyline points="85,247 170,216 255,185 340,115 348,92 382,138 404,216 416,286 421,321 425,340 429,321 434,286 446,216 468,138 478,100 488,340 500,340 510,92 595,185 680,216 765,247"
            fill="none" stroke="#a83a3a" stroke-width="2.5" stroke-dasharray="6,3" stroke-linejoin="round" stroke-linecap="round"/>

  <text x="425" y="22" font-size="13" fill="#1a1208" text-anchor="middle" font-weight="600">Fovea</text>
  <text x="491" y="22" font-size="13" fill="#8b1a1a" text-anchor="middle" font-weight="600">Blind spot</text>

  <rect x="600" y="48" width="150" height="56" fill="#ffffff" fill-opacity="0.92" stroke="#c8bfaa" stroke-width="1"/>
  <line x1="612" y1="64" x2="640" y2="64" stroke="#2c5d8f" stroke-width="2.5" stroke-linecap="round"/>
  <text x="648" y="68" font-size="14" fill="#1a1208">Cones (錐体)</text>
  <line x1="612" y1="88" x2="640" y2="88" stroke="#a83a3a" stroke-width="2.5" stroke-dasharray="6,3" stroke-linecap="round"/>
  <text x="648" y="92" font-size="14" fill="#1a1208">Rods (桿体)</text>
</svg>
