<?xml version="1.0" encoding="UTF-8" standalone="no"?>
<!-- Created with Inkscape (http://www.inkscape.org/) -->

<svg
   xmlns:dc="http://purl.org/dc/elements/1.1/"
   xmlns:cc="http://creativecommons.org/ns#"
   xmlns:rdf="http://www.w3.org/1999/02/22-rdf-syntax-ns#"
   xmlns:svg="http://www.w3.org/2000/svg"
   xmlns="http://www.w3.org/2000/svg"
   xmlns:xlink="http://www.w3.org/1999/xlink"
   xmlns:sodipodi="http://sodipodi.sourceforge.net/DTD/sodipodi-0.dtd"
   xmlns:inkscape="http://www.inkscape.org/namespaces/inkscape"
   width="738.44666"
   height="419.45874"
   id="svg2"
   sodipodi:version="0.32"
   inkscape:version="0.91 r13725"
   sodipodi:docname="Evolution_eye.svg"
   inkscape:output_extension="org.inkscape.output.svg.inkscape"
   version="1.0">
  <defs
     id="defs4">
    <linearGradient
       id="linearGradient6091">
      <stop
         style="stop-color:#ecfaff;stop-opacity:1;"
         offset="0"
         id="stop6093" />
      <stop
         style="stop-color:#e8faff;stop-opacity:1;"
         offset="1"
         id="stop6095" />
    </linearGradient>
    <marker
       inkscape:stockid="Arrow1Lstart"
       orient="auto"
       refY="0"
       refX="0"
       id="Arrow1Lstart"
       style="overflow:visible">
      <path
         id="path3200"
         d="M 0,0 L 5,-5 L -12.5,0 L 5,5 L 0,0 z"
         style="fill-rule:evenodd;stroke:#000000;stroke-width:1pt;marker-start:none"
         transform="matrix(0.8,0,0,0.8,10,0)" />
    </marker>
    <linearGradient
       id="linearGradient7381">
      <stop
         style="stop-color:#c32a0a;stop-opacity:1;"
         offset="0"
         id="stop7383" />
      <stop
         style="stop-color:#a60909;stop-opacity:1;"
         offset="1"
         id="stop7385" />
    </linearGradient>
    <linearGradient
       id="linearGradient7355">
      <stop
         style="stop-color:#efda43;stop-opacity:1;"
         offset="0"
         id="stop7357" />
      <stop
         style="stop-color:#0000ff;stop-opacity:1;"
         offset="1"
         id="stop7359" />
    </linearGradient>
    <inkscape:perspective
       sodipodi:type="inkscape:persp3d"
       inkscape:vp_x="0 : 526.18109 : 1"
       inkscape:vp_y="6.1230318e-14 : 1000 : 0"
       inkscape:vp_z="744.09448 : 526.18109 : 1"
       inkscape:persp3d-origin="372.04724 : 350.78739 : 1"
       id="perspective10" />
    <inkscape:perspective
       id="perspective2390"
       inkscape:persp3d-origin="372.04724 : 350.78739 : 1"
       inkscape:vp_z="744.09448 : 526.18109 : 1"
       inkscape:vp_y="0 : 1000 : 0"
       inkscape:vp_x="0 : 526.18109 : 1"
       sodipodi:type="inkscape:persp3d" />
    <radialGradient
       inkscape:collect="always"
       xlink:href="#linearGradient7381"
       id="radialGradient7387"
       cx="235.62411"
       cy="540.86572"
       fx="235.62411"
       fy="540.86572"
       r="163.09018"
       gradientTransform="matrix(1,0,0,0.8684724,0,71.138775)"
       gradientUnits="userSpaceOnUse"
       spreadMethod="pad" />
    <radialGradient
       inkscape:collect="always"
       xlink:href="#linearGradient7381"
       id="radialGradient7395"
       cx="165.51653"
       cy="195.80191"
       fx="165.51653"
       fy="195.80191"
       r="141.96999"
       gradientTransform="matrix(0.8021353,0.1570206,-9.5085928e-2,0.4857439,-1.6244269,492.23466)"
       gradientUnits="userSpaceOnUse" />
    <inkscape:perspective
       id="perspective2407"
       inkscape:persp3d-origin="372.04724 : 350.78739 : 1"
       inkscape:vp_z="744.09448 : 526.18109 : 1"
       inkscape:vp_y="0 : 1000 : 0"
       inkscape:vp_x="0 : 526.18109 : 1"
       sodipodi:type="inkscape:persp3d" />
    <radialGradient
       inkscape:collect="always"
       xlink:href="#linearGradient7381"
       id="radialGradient6213"
       gradientUnits="userSpaceOnUse"
       gradientTransform="matrix(0.8021353,0.1570206,-9.5085928e-2,0.4857439,384.54799,492.23675)"
       cx="165.51653"
       cy="195.80191"
       fx="165.51653"
       fy="195.80191"
       r="141.96999" />
  </defs>
  <sodipodi:namedview
     id="base"
     pagecolor="#ffffff"
     bordercolor="#666666"
     borderopacity="1.0"
     inkscape:pageopacity="0.0"
     inkscape:pageshadow="2"
     inkscape:zoom="0.5683773"
     inkscape:cx="697.49843"
     inkscape:cy="496.00366"
     inkscape:document-units="px"
     inkscape:current-layer="layer1"
     showgrid="false"
     inkscape:window-width="1024"
     inkscape:window-height="719"
     inkscape:window-x="-4"
     inkscape:window-y="-4"
     showguides="true"
     inkscape:guide-bbox="true"
     inkscape:snap-global="true"
     guidetolerance="3"
     inkscape:window-maximized="1">
    <inkscape:grid
       type="xygrid"
       id="grid2485"
       visible="true"
       enabled="true" />
  </sodipodi:namedview>
  <metadata
     id="metadata7">
    <rdf:RDF>
      <cc:Work
         rdf:about="">
        <dc:format>image/svg+xml</dc:format>
        <dc:type
           rdf:resource="http://purl.org/dc/dcmitype/StillImage" />
        <dc:title></dc:title>
      </cc:Work>
    </rdf:RDF>
  </metadata>
  <g
     inkscape:label="Calque 1"
     inkscape:groupmode="layer"
     id="layer1"
     transform="translate(4.8846598,-475.38931)">
    <path
       style="opacity:1;fill:#f9e181;fill-opacity:1;fill-rule:evenodd;stroke:none;stroke-width:1px;stroke-linecap:butt;stroke-linejoin:miter;marker:none;marker-start:none;marker-mid:none;marker-end:none;stroke-miterlimit:4;stroke-dasharray:none;stroke-dashoffset:0;stroke-opacity:1;visibility:visible;display:inline;overflow:visible;enable-background:accumulate"
       d="M 270.33609,774.25988 C 291.98015,738.12829 227.86634,693.75401 219.16462,656.11058 C 210.43425,618.34319 166.30966,548.06386 86.427794,551.22922 C 74.518173,551.70114 80.890899,588.0055 91.913102,586.34077 C 173.77136,583.72296 196.27975,656.8164 179.23373,729.86502 C 159.26883,734.17166 141.24998,784.1753 83.952937,781.4855 C 54.871154,819.45091 133.42082,798.43262 147.87169,794.99331 C 199.85156,783.59279 243.61595,818.86525 270.33609,774.25988 z"
       id="path7406"
       sodipodi:nodetypes="czsccccs" />
    <path
       id="path5792"
       style="opacity:1;fill:none;fill-opacity:1;fill-rule:evenodd;stroke:#f2a832;stroke-width:1.35081649;stroke-linecap:butt;stroke-linejoin:miter;marker:none;marker-start:none;marker-mid:none;marker-end:none;stroke-miterlimit:4;stroke-dasharray:none;stroke-dashoffset:0;stroke-opacity:1;visibility:visible;display:inline;overflow:visible;enable-background:accumulate"
       d="M 85.163329,647.47982 C 85.163329,647.47982 85.390739,637.03053 85.333896,632.81111 C 85.296621,630.04392 79.57823,627.82836 80.216902,625.13563 C 80.909723,622.2146 88.544544,623.16823 88.915789,620.18921 C 89.354379,616.6698 79.664993,615.47428 80.38747,612.00202 C 80.987719,609.1172 89.138849,611.50129 89.598052,608.59069 C 90.126114,605.24366 81.796122,604.81335 80.728605,601.59747 C 80.044275,599.53592 83.623979,594.29029 82.725443,592.31268 C 80.052164,586.42903 81.283656,581.47793 82.417126,579.80074 C 84.886087,576.14743 85.002224,586.88291 89.012149,585.97247 C 91.097222,585.49906 88.870442,592.29922 88.745221,594.43369 C 88.59986,596.91157 91.808583,600.18588 90.792019,602.4503 C 89.376701,605.60295 80.775762,604.28895 80.558038,607.73786 C 80.319274,611.52001 91.356356,611.13247 90.96258,614.90164 C 90.61698,618.20969 81.35791,615.89984 80.728605,619.16581 C 80.037129,622.75441 89.269156,624.04293 89.427485,627.69412 C 89.509236,629.5794 85.333896,632.46998 85.333896,632.46998 M 86.357288,712.63616 C 86.357288,712.63616 86.473371,729.54367 86.698424,738.22111 C 86.742001,739.86833 83.330649,741.01293 83.457666,742.65583 C 83.708682,745.90257 91.152761,747.07494 91.133147,750.33131 C 91.115053,753.33463 83.192359,754.42341 83.969362,757.32454 C 84.611514,759.72217 91.513828,756.93451 91.985978,759.37133 C 92.529142,762.17464 84.392864,762.14576 84.310498,765.00002 C 84.222431,768.05184 94.310923,769.31821 92.156546,771.48154 C 87.414775,776.24302 91.753523,780.16379 89.556663,780.53367 C 83.450055,781.56184 83.236747,785.70842 81.757029,784.30181 C 80.360954,782.9747 83.414488,776.276 83.287099,770.62871 C 83.213243,767.28464 93.016834,768.51546 93.009377,765.17058 C 93.002333,762.00963 84.054464,763.2042 83.798795,760.0536 C 83.571912,757.25777 91.261921,757.05641 91.133147,754.25434 C 91.012607,751.63144 83.941218,752.10029 83.798795,749.47848 C 83.641006,746.57372 91.058879,746.23682 91.303715,743.33809 C 91.48076,741.24199 86.698424,738.05054 86.698424,738.05054"
       sodipodi:nodetypes="cssssssssssssssscccsssssssscsssssc" />
    <path
       id="path3247"
       style="fill:#e4c75d;fill-opacity:1;fill-rule:evenodd;stroke:#6e750f;stroke-width:0.87803066;stroke-linecap:butt;stroke-linejoin:round;stroke-miterlimit:4;stroke-opacity:1"
       d="M 261.30415,769.73051 C 261.06436,770.47794 260.47373,770.95205 259.98581,770.78879 C 259.49788,770.62553 259.2965,769.88641 259.53631,769.13898 C 259.7761,768.39155 260.36673,767.91744 260.85466,768.0807 C 261.34258,768.24396 261.54396,768.98307 261.30415,769.73051 z M 257.29585,777.83241 C 257.05605,778.57984 256.46543,779.05395 255.97751,778.89069 C 255.48958,778.72743 255.2882,777.98831 255.528,777.24088 C 255.7678,776.49345 256.35842,776.01934 256.84635,776.1826 C 257.33427,776.34586 257.53565,777.08497 257.29585,777.83241 z" />
    <path
       id="path7379"
       style="opacity:1;fill:#e4c75d;fill-opacity:1;fill-rule:evenodd;stroke:#6e750f;stroke-width:0.87803066;stroke-linecap:butt;stroke-linejoin:miter;marker:none;marker-start:none;marker-mid:none;marker-end:none;stroke-miterlimit:4;stroke-dasharray:none;stroke-dashoffset:0;stroke-opacity:1;visibility:visible;display:inline;overflow:visible;enable-background:accumulate"
       d="M 91.551279,585.01407 C 88.871293,585.00405 88.053624,579.52638 87.812408,577.89817 C 87.571193,576.26996 89.420521,575.34529 90.345189,576.33026 C 91.269857,577.31522 90.527083,582.9633 92.260296,583.18426 L 106.57992,584.70828 L 99.831878,581.28127 C 97.334921,580.25199 98.430622,575.51138 98.746403,573.80605 C 98.973462,572.57986 101.33333,572.49889 101.42049,573.51487 C 101.61669,575.80193 98.91048,578.83395 101.3559,579.83397 L 113.73824,585.27598 C 114.43066,585.55914 106.55185,580.70808 105.23001,579.6634 C 103.98372,578.67843 104.42048,574.81599 104.88281,573.40889 C 105.34514,572.00179 107.7792,572.13281 108.00401,573.35288 C 108.39628,575.48186 105.54549,577.93315 107.66287,579.10425 L 119.804,586.638 C 120.60179,587.07925 114.21734,581.80406 112.62852,580.08981 C 111.10081,578.4415 112.41715,574.71549 112.91969,573.40889 C 113.42223,572.10229 115.49276,572.27092 115.8143,573.5295 C 116.29674,575.41785 113.32291,576.78343 115.13204,579.1956 C 116.94116,581.60777 128.32081,590.29897 127.83733,589.77383 L 120.25613,581.1546 C 118.49989,579.24705 120.2811,575.70415 121.3209,573.68544 C 121.96424,572.43645 124.22735,572.91091 124.22764,574.20319 C 124.22822,576.8993 120.61597,578.28483 122.43314,580.31034 L 132.43257,591.46235 L 126.64838,582.72251 C 125.38477,580.54028 127.07716,577.03144 128.59881,574.91222 C 129.51337,573.6385 131.14253,574.22876 131.34355,575.63586 C 131.54456,577.04296 127.2534,579.83097 128.98134,582.07558 L 137.91242,594.34233 L 132.67881,585.49651 C 131.43544,583.37951 134.64018,578.42996 135.80607,577.20377 C 136.97195,575.97758 138.60076,576.66163 138.48015,578.30995 C 138.35954,579.95827 133.61662,583.06335 135.33826,585.4733 L 145.31951,598.5051 C 145.69362,599.02876 139.30076,589.67081 139.2916,587.03265 C 139.28256,584.43079 141.17315,581.82711 142.43954,580.70143 C 143.70593,579.57575 145.49496,580.76174 145.09293,582.38995 C 144.6909,584.01816 141.45456,586.29059 141.82438,588.35934 C 142.19419,590.42809 144.73764,595.97377 145.94576,593.45668 C 147.15388,590.93958 150.65615,587.17409 152.24416,586.24942 C 153.83218,585.32475 155.62667,586.59603 154.88292,588.26445 C 154.13916,589.93287 146.8356,591.98468 148.11671,595.98946 C 149.39782,599.99423 160.12579,615.48785 151.61437,599.12528 C 150.00746,596.03613 156.53921,591.30582 158.12723,590.32085 C 159.71524,589.33588 160.96212,590.93912 160.31887,592.40652 C 159.67563,593.87393 154.04723,595.62335 153.92662,598.69886 C 153.80601,601.77438 157.52419,605.79896 157.88602,606.12058 C 158.24784,606.4422 156.01658,603.80891 156.43871,601.05502 C 156.86084,598.30112 160.90123,595.2256 162.46914,594.42154 C 164.03705,593.61748 165.49589,595.11475 164.99335,596.40124 C 164.49081,597.68773 159.91626,598.76345 159.45392,602.14049 C 158.99159,605.51754 162.28823,611.78918 162.71036,612.15101 C 163.13249,612.51283 161.00174,607.22616 161.9867,604.31145 C 162.97167,601.39675 166.68675,599.69788 168.21445,599.17524 C 169.74216,598.65261 171.18947,600.0597 170.38541,601.34619 C 169.58135,602.63268 165.06223,603.66821 164.15766,606.72363 C 163.2531,609.77904 166.02709,616.39242 166.56983,616.73414 C 167.11257,617.07586 165.86199,612.5257 166.98767,610.05322 C 168.11335,607.58074 170.08935,605.32081 172.47965,604.67328 C 173.81614,604.31122 175.10208,605.88146 174.50679,606.76501 C 172.92056,609.11939 170.36412,608.71189 169.01733,611.12407 C 167.67053,613.53624 168.8682,621.06141 169.41093,621.66446 C 169.95367,622.2675 170.44941,615.46775 172.35904,613.71892 C 174.26868,611.9701 177.46481,611.38716 178.99252,611.42736 C 180.52022,611.46756 182.42986,613.17618 181.5253,613.96014 C 180.62074,614.74409 175.61548,614.12095 173.56513,616.1311 C 171.51479,618.14124 171.93573,625.98686 172.43827,626.5095 C 172.94081,627.03214 173.36412,620.09108 175.73608,618.66388 C 178.10805,617.23667 181.75188,616.25348 183.19918,616.4344 C 184.64649,616.61531 185.46599,618.45524 184.24077,619.07315 C 181.28394,620.56435 179.00948,620.56223 177.19196,621.35865 C 175.37876,622.15319 175.64172,634.55169 176.12024,635.10962 C 176.53641,635.59488 176.88586,628.16634 178.51008,625.77978 C 179.93673,623.68353 184.12319,622.77571 186.59086,622.52335 C 188.38838,622.33952 189.33557,624.30268 187.76768,625.14749 C 184.91611,626.68394 182.01564,625.5578 180.88693,627.65099 C 179.01686,631.11903 177.57582,633.8931 178.80732,641.47709 C 180.86911,654.17415 181.49002,648.2612 184.32856,637.43743 C 185.21865,634.04336 188.57899,633.7534 192.65056,633.72783 C 194.4417,633.71658 195.07686,635.70499 193.5362,636.33126 C 190.4088,637.60253 188.31412,636.09611 186.46419,639.06743 C 184.17377,642.74627 181.52959,653.6658 181.7105,654.42965 C 181.89142,655.19351 184.52042,646.8863 186.95269,643.99169 C 189.38496,641.09708 194.2093,640.17241 195.87772,640.13221 C 197.54614,640.09201 198.3703,641.63982 197.08381,642.7856 C 195.79732,643.93138 190.63125,643.62986 188.15877,647.0069 C 185.6863,650.38394 183.1414,660.14334 183.32231,661.0278 C 183.50322,661.91226 186.28934,654.78615 189.24425,652.31368 C 192.19916,649.84121 197.96827,649.19795 199.85781,649.17785 C 201.74735,649.15775 202.10917,651.2081 200.58146,652.19307 C 199.05375,653.17804 193.50576,652.33378 190.69155,655.08768 C 187.87735,657.84157 183.55555,668.21391 183.69626,668.71645 C 183.83696,669.21899 188.07837,661.0176 191.05338,658.88685 C 194.02839,656.7561 199.96375,655.70903 201.54633,656.41437 C 203.23089,657.16517 202.61765,659.15642 201.54632,659.97232 C 200.16872,661.02149 194.73194,659.6909 192.01824,662.02267 C 189.30455,664.35443 185.46518,672.61613 185.7466,674.02323 C 186.02802,675.43033 190.84261,671.26326 194.01864,670.2783 C 197.19466,669.29333 201.54204,669.6284 203.29087,670.01033 C 205.0397,670.39226 205.07443,672.24824 203.42611,672.93168 C 201.77779,673.61513 197.89821,671.20296 194.74229,672.81108 C 191.58636,674.41919 185.90741,680.89792 185.7466,681.62157 C 185.58579,682.34523 190.79206,677.46058 193.94799,676.55601 C 197.10391,675.65145 201.80765,676.19418 203.59668,676.55601 C 205.38571,676.91783 205.40581,678.64656 203.59668,679.08879 C 201.78755,679.53102 196.60138,677.17915 193.82738,678.84757 C 191.05338,680.51599 188.05827,688.11433 188.03817,688.73748 C 188.01807,689.36062 190.99308,683.61162 193.70677,682.58644 C 196.42047,681.56127 201.64684,682.20451 203.23485,682.94827 C 204.82286,683.69202 204.09921,686.04388 202.5112,686.56652 C 200.92318,687.08916 197.50594,684.07394 194.79225,685.72226 C 192.07855,687.37058 187.0934,696.09461 186.95269,696.93887 C 186.81198,697.78313 191.2544,691.73259 193.94799,690.78782 C 196.64158,689.84306 201.06389,689.86316 202.5112,690.54661 C 203.9585,691.23006 203.61677,693.2201 202.14937,693.56182 C 200.68196,693.90354 196.84259,692.13462 194.30981,693.3206 C 191.77703,694.50659 187.59593,701.16017 187.43512,702.00443 C 187.27431,702.84869 190.91267,698.98921 193.34494,698.38617 C 195.77722,697.78312 200.01862,697.20018 201.42572,697.66251 C 202.83281,698.12485 202.69211,699.99429 201.1845,700.43652 C 199.67689,700.87875 195.4757,699.83348 192.98312,701.03956 C 190.49054,702.24564 187.00852,707.10155 187.31451,707.67303 C 190.04831,712.77879 191.93784,704.23568 194.30981,703.45173 C 196.68178,702.66777 199.07385,703.39143 200.34024,703.45173 C 201.60663,703.51204 202.29017,705.74664 199.8578,705.86391 C 196.10128,706.04503 189.77777,706.27427 193.22434,709.12033 C 207.77359,721.1346 263.15888,749.99229 265.95133,751.33335 C 267.26405,751.96379 265.51801,754.35679 264.20251,753.26309 C 262.887,752.16939 212.35831,725.67031 192.59458,712.17154 C 190.65347,710.84576 188.64746,711.68009 192.15102,714.27612 C 210.93182,728.19213 261.93586,755.63727 263.12509,756.27761 C 264.2673,756.89263 262.77915,758.85165 261.96267,758.31 C 261.08662,757.72884 203.8663,727.25622 190.15484,715.14664 C 185.72686,711.23597 187.18041,716.58704 191.71442,720.06422 C 201.03107,727.20927 259.62224,760.77866 260.7156,761.28687 C 261.85831,761.81801 260.50745,763.3573 259.83677,763.05151 C 259.1661,762.74572 191.95132,725.5664 187.2373,718.45227 C 189.9407,724.96693 258.34212,762.54155 259.51217,763.40108 C 260.62744,764.22035 259.92481,765.91146 258.69858,765.19734 C 241.89743,754.76859 210.48437,737.9684 186.6637,722.925 C 185.11377,719.98891 184.67353,723.42174 186.06691,725.22427 C 194.63806,736.31221 254.89598,764.69229 257.61307,766.91426 C 258.72212,767.82122 257.42314,769.74224 256.34216,768.77162 C 254.05535,766.71826 181.95109,731.72896 182.61162,724.01837 C 189.00088,649.43446 173.95393,589.39112 91.551279,585.01407 z M 99.196637,779.70563 L 94.566018,781.64654 C 92.588902,782.28419 93.240961,785.10679 93.360792,787.48085 C 93.428475,788.82177 95.738952,788.70984 95.768758,787.70584 C 95.903333,783.17289 92.626779,783.35742 104.80935,779.12209 C 97.835378,782.66071 100.04938,785.55717 100.27539,788.362 C 100.38608,789.73561 102.45906,789.62554 102.89094,788.62483 C 103.23368,787.83067 101.71958,782.83512 102.95962,782.30978 C 105.43379,781.26161 113.69985,774.62691 117.63788,772.21074 C 117.84305,772.08486 108.68139,778.63249 108.63455,780.17193 C 108.54252,783.1968 112.20863,786.73023 112.65779,787.39532 C 113.10503,788.05759 114.47144,787.60315 114.76844,787.03349 C 115.8684,784.92368 109.90762,780.8765 111.75322,779.37484 L 130.20634,764.35907 L 115.19057,777.68633 C 113.60861,779.15183 117.69785,785.286 118.74852,786.61136 C 119.23542,787.22557 120.90049,786.48238 121.221,785.7671 C 122.24872,783.47351 116.13284,779.76908 117.96456,778.04815 L 125.80413,771.35438 L 121.221,776.60086 C 119.53986,778.41198 122.76957,783.84426 124.53773,785.10376 C 125.32326,785.66331 127.18028,784.74984 127.49264,783.83737 C 128.16931,781.86069 122.39961,778.14108 123.87438,776.66116 L 141.12141,759.35382 L 131.41243,771.41469 C 129.83483,773.491 134.22492,779.40396 136.6589,780.33972 C 137.33709,780.60045 138.67505,780.22814 138.95046,779.55577 C 139.83981,777.38455 131.96634,773.95411 133.52308,772.19864 L 149.2625,754.28826 L 135.75433,770.93225 C 134.33239,772.76262 137.66577,777.79353 139.73442,778.47028 C 140.50338,778.72185 141.91032,778.038 142.14659,777.2642 C 142.70491,775.43568 137.00146,772.16163 138.34742,770.63073 L 154.14715,752.66005 L 141.78477,768.21855 C 140.47362,769.86868 143.94116,775.03288 146.00606,775.45507 C 146.86657,775.63101 148.30556,774.74827 148.47854,773.88716 C 148.85216,772.02723 143.35082,768.66454 144.61906,767.25369 L 156.86084,751.9967 L 147.51367,764.96212 C 146.27587,766.43394 150.07432,770.94861 151.97619,771.23377 C 152.85995,771.36628 154.4027,770.55316 154.50897,769.66586 C 154.71738,767.92568 148.94729,765.31605 150.16706,764.05755 L 162.95157,749.58452 C 166.59333,745.82716 155.8327,755.21239 156.07688,760.4393 C 156.16123,762.24474 158.14283,765.76369 159.93636,765.98729 C 160.69822,766.08228 161.93156,765.29902 162.04701,764.53999 C 162.29301,762.92265 158.58611,761.53209 158.54936,759.89656 C 157.41058,758.08609 165.81963,748.74708 169.22322,745.84566 C 166.12098,747.83641 166.25576,750.788 166.46636,752.72212 C 166.68263,754.7083 166.62805,759.02088 168.62018,759.17291 C 169.47489,759.23813 170.598,757.97967 170.61022,757.12256 C 170.63543,755.35571 169.4341,753.47461 169.01806,751.75725 C 164.58821,733.47114 245.70726,787.80223 246.63107,788.02121 C 247.53221,788.23482 248.4416,787.03465 247.79179,786.17494 C 247.1822,785.36847 182.75252,743.67006 170.12125,745.13154 C 178.46462,738.08031 248.12155,782.71438 248.96181,782.84463 C 249.80207,782.97488 250.8428,781.55264 250.04535,780.82427 C 249.24789,780.0959 186.40874,741.07654 171.08709,739.79829 C 177.54787,732.32702 250.67573,777.60575 251.87601,777.68302 C 253.0763,777.7603 253.36459,776.39267 252.91079,775.92259 C 252.45699,775.45251 183.93287,734.68684 176.21822,735.53607 C 168.67208,736.36675 174.42699,734.64448 178.66173,733.26144 C 182.78774,731.91391 253.45255,773.05768 254.78107,773.66147 C 256.10959,774.26526 257.33342,771.25992 255.72955,771.65292 C 254.12568,772.04591 182.49537,728.83223 177.54284,731.54735 C 166.21452,733.26915 116.48188,774.13084 99.196637,779.70563 z M 267.44455,754.89124 C 267.20475,755.63867 266.61412,756.11278 266.1262,755.94952 C 265.63827,755.78626 265.43689,755.04714 265.6767,754.29971 C 265.9165,753.55228 266.50712,753.07816 266.99505,753.24143 C 267.48297,753.40469 267.68435,754.1438 267.44455,754.89124 z M 265.65363,758.47313 C 265.41384,759.22056 264.82321,759.69467 264.33529,759.53141 C 263.84736,759.36815 263.64598,758.62903 263.88579,757.8816 C 264.12558,757.13417 264.71621,756.66006 265.20414,756.82332 C 265.69206,756.98658 265.89344,757.72569 265.65363,758.47313 z M 262.66869,764.10182 C 262.4289,764.84925 261.83827,765.32336 261.35035,765.1601 C 260.86242,764.99684 260.66104,764.25772 260.90085,763.51029 C 261.14064,762.76286 261.73127,762.28875 262.2192,762.45201 C 262.70712,762.61527 262.9085,763.35438 262.66869,764.10182 z M 260.53661,767.76899 C 260.29682,768.51643 259.70619,768.99054 259.21827,768.82728 C 258.73034,768.66401 258.52896,767.9249 258.76877,767.17747 C 259.00856,766.43004 259.59919,765.95592 260.08711,766.11919 C 260.57504,766.28245 260.77642,767.02156 260.53661,767.76899 z M 264.88605,766.91616 C 264.64626,767.6636 264.05563,768.13771 263.56771,767.97445 C 263.07978,767.81118 262.8784,767.07207 263.1182,766.32463 C 263.358,765.57721 263.94863,765.10309 264.43655,765.26636 C 264.92448,765.42962 265.12586,766.16873 264.88605,766.91616 z M 266.42115,761.96974 C 266.18135,762.71717 265.59073,763.19128 265.1028,763.02802 C 264.61488,762.86476 264.4135,762.12564 264.6533,761.37821 C 264.8931,760.63078 265.48372,760.15667 265.97165,760.31993 C 266.45957,760.48319 266.66095,761.2223 266.42115,761.96974 z M 259.00151,772.03315 C 258.76171,772.78058 258.17109,773.25469 257.68317,773.09143 C 257.19524,772.92817 256.99386,772.18906 257.23366,771.44163 C 257.47346,770.69419 258.06408,770.22009 258.55201,770.38334 C 259.03993,770.5466 259.24131,771.28572 259.00151,772.03315 z M 262.75397,771.60674 C 262.51417,772.35417 261.92355,772.82828 261.43563,772.66502 C 260.9477,772.50176 260.74632,771.76264 260.98612,771.01521 C 261.22592,770.26778 261.81654,769.79367 262.30447,769.95693 C 262.79239,770.12019 262.99377,770.8593 262.75397,771.60674 z M 260.36604,776.38259 C 260.12624,777.13002 259.53562,777.60414 259.0477,777.44087 C 258.55977,777.27761 258.35839,776.5385 258.59819,775.79107 C 258.83799,775.04363 259.42861,774.56952 259.91654,774.73278 C 260.40446,774.89604 260.60584,775.63516 260.36604,776.38259 z M 255.93131,776.63844 C 255.69152,777.38588 255.10089,777.85999 254.61297,777.69673 C 254.12504,777.53347 253.92366,776.79435 254.16347,776.04692 C 254.40326,775.29949 254.99389,774.82538 255.48182,774.98864 C 255.96974,775.1519 256.17112,775.89101 255.93131,776.63844 z M 256.18717,782.9494 C 255.94737,783.69683 255.35674,784.17094 254.86882,784.00768 C 254.38089,783.84442 254.17951,783.10531 254.41932,782.35787 C 254.65912,781.61044 255.24974,781.13633 255.73767,781.29959 C 256.22559,781.46285 256.42697,782.20197 256.18717,782.9494 z M 253.4581,781.49958 C 253.21831,782.24702 252.62768,782.72113 252.13976,782.55787 C 251.65183,782.3946 251.45045,781.65549 251.69026,780.90806 C 251.93005,780.16063 252.52068,779.68651 253.00861,779.84978 C 253.49653,780.01304 253.69791,780.75215 253.4581,781.49958 z M 252.69056,787.4694 C 252.45076,788.21684 251.86014,788.69095 251.37221,788.52769 C 250.88429,788.36443 250.68291,787.62531 250.92271,786.87788 C 251.16251,786.13045 251.75313,785.65634 252.24106,785.8196 C 252.72898,785.98286 252.93036,786.72198 252.69056,787.4694 z M 251.07018,785.16676 C 250.83038,785.91419 250.23976,786.3883 249.75184,786.22504 C 249.26391,786.06178 249.06253,785.32267 249.30233,784.57523 C 249.54213,783.8278 250.13275,783.35369 250.62068,783.51695 C 251.1086,783.68021 251.30998,784.41933 251.07018,785.16676 z M 248.4264,790.79545 C 248.1866,791.54288 247.59598,792.01699 247.10806,791.85373 C 246.62013,791.69047 246.41875,790.95136 246.65855,790.20392 C 246.89835,789.45649 247.48897,788.98238 247.9769,789.14564 C 248.46483,789.3089 248.6662,790.04802 248.4264,790.79545 z"
       sodipodi:nodetypes="csscccssccsssccssssccsscccsscccssccsssssssssssssssssssssssssssssssssssssssssssssssssssssssssssssssssssssssssssssssssssssssssssssssssssssscsccsssscccsscssssssscccsscccsscccsscccsscccsscccssccsssccsssssscsscsssssscccsssccsssccsssccsssccsssccsssccsssccsssccsssccsssccsssccsssccsssccsssccsssc" />
    <path
       id="path2402"
       style="fill:#ecfaff;fill-opacity:1;fill-rule:evenodd;stroke:#adabf7;stroke-width:2.02622461;stroke-linecap:butt;stroke-linejoin:miter;stroke-miterlimit:4;stroke-dasharray:none;stroke-opacity:1"
       d="M 73.452027,787.63945 C 79.182211,780.80562 97.376992,822.60321 171.39358,760.11523 C 178.06361,749.56943 225.29821,782.34563 245.78181,793.56338 C 252.91776,797.47135 278.36592,755.73045 266.22387,749.59945 C 251.12841,741.00753 206.33803,718.64029 206.402,713.42397 C 215.20775,640.6116 190.67214,592.69724 139.25483,571.72894 C 95.478224,553.87655 78.796505,580.91189 73.922915,573.49561 C 69.158329,566.2452 60.70106,571.74714 55.860204,578.10781 C 19.220526,626.25068 9.7117131,715.98934 62.648572,785.46798 C 66.018511,789.89096 71.082243,790.46566 73.452027,787.63945 z M 282.95714,723.83459 C 304.36079,734.20913 249.50683,832.10444 231.33867,820.43408 C 177.87684,788.93419 99.715066,801.27698 94.685781,870.3979 C 94.597404,873.04351 85.264782,872.851 85.333896,868.53378 C 86.020726,825.62902 76.346685,813.92504 63.243043,800.57271 C 5.4768232,741.71014 8.7433365,618.73028 59.056636,563.77105 C 69.948881,551.87301 87.386881,534.85897 88.062958,497.04031 C 88.135645,492.97434 99.032904,493.95655 98.86701,497.57283 C 98.534514,504.82079 94.548653,527.98714 105.23148,534.30642 C 142.42708,556.30903 174.36009,558.66809 203.35546,594.54215 C 225.30611,621.70026 226.82148,647.70401 232.78396,673.6614 C 238.25867,697.49533 257.07549,711.28952 282.95714,723.83459 z"
       sodipodi:nodetypes="cccccssssscccsssssssss" />
    <path
       id="path5796"
       style="opacity:1;fill:url(#radialGradient7395);fill-opacity:1;fill-rule:evenodd;stroke:none;stroke-width:1px;stroke-linecap:butt;stroke-linejoin:miter;marker:none;marker-start:none;marker-mid:none;marker-end:none;stroke-miterlimit:4;stroke-dasharray:none;stroke-dashoffset:0;stroke-opacity:1;visibility:visible;display:inline;overflow:visible;enable-background:accumulate"
       d="M 246.18652,792.26137 C 253.76637,795.067 274.8666,755.3554 266.19255,751.09213 C 254.98572,745.26095 220.55058,726.12056 202.75241,714.90955 C 197.61815,711.29688 213.71559,683.55445 201.42572,647.85116 C 189.17296,612.25568 156.55209,576.84672 126.52777,572.35018 C 96.3855,567.83596 85.114801,574.25048 77.801893,585.25529 C 70.544483,596.17657 66.871793,627.43663 65.258599,636.75517 C 63.648787,646.05417 50.231051,648.34189 50.061914,635.54908 C 49.894371,622.87686 67.281847,567.3282 91.551272,562.09844 C 115.76994,556.87961 140.56852,564.56635 159.69514,576.81269 C 178.73631,589.00431 202.49664,616.94852 210.55059,650.82499 C 219.51795,688.54341 205.70354,713.15914 209.86833,715.39199 C 216.63364,719.01904 253.28628,741.24061 269.00793,750.03237 C 277.67767,754.98151 254.38656,800.38681 244.30172,794.16686 C 231.22018,786.75424 212.18215,774.3495 188.86766,761.92982 C 186.15038,760.26043 182.24222,761.73888 179.31594,764.31775 C 170.8151,771.80942 152.42942,791.98597 114.1596,798.26045 C 101.75316,800.29454 82.990649,802.24841 73.564814,787.85591 C 62.935312,771.6255 54.040975,732.55853 54.631953,724.74636 C 55.320521,715.64416 65.088901,714.90711 67.083296,723.21127 C 70.125966,735.85226 71.544843,751.87956 73.905949,763.63549 C 83.124494,797.54636 104.57734,793.72148 132.4102,783.76232 C 146.72255,778.31411 165.98355,764.81899 173.55452,756.00139 C 179.16834,749.46321 224.85728,780.65131 246.18652,792.26137 z"
       sodipodi:nodetypes="cccsssscsssscccsssccccsc"
       inkscape:transform-center-x="2.8946069" />
    <path
       id="path5802"
       style="fill:#dcbd4d;fill-opacity:1;fill-rule:evenodd;stroke:#545710;stroke-width:0.87803066;stroke-linecap:butt;stroke-linejoin:round;marker:none;marker-start:none;marker-mid:none;marker-end:none;stroke-miterlimit:4;stroke-dasharray:none;stroke-dashoffset:0;stroke-opacity:1;visibility:visible;display:inline;overflow:visible;enable-background:accumulate"
       d="M 244.483,790.16933 C 245.7399,790.88743 246.87507,788.01847 245.80969,787.69685 C 222.1302,774.3495 180.57055,748.66037 173.32391,748.61966 C 166.25819,748.57996 159.55443,752.11731 158.79058,754.40887 C 158.02673,756.70043 162.76964,759.9544 165.00192,761.46447 C 165.50344,761.80374 166.72978,760.31836 166.44922,759.77595 C 165.5237,757.9866 159.65266,755.78709 161.38366,754.46917 C 163.15259,753.12238 165.41221,750.81846 172.96209,750.67 C 180.51291,750.52153 220.85736,776.67146 244.483,790.16933 z M 248.58369,783.17402 C 249.31535,783.59486 248.74165,786.17452 247.37761,785.52589 C 245.94076,784.84263 180.95878,743.73709 173.50483,745.0617 C 165.9924,746.3967 152.62283,756.08395 150.77011,759.0523 C 148.90067,762.04741 157.4249,764.81304 158.00662,766.77125 C 158.34852,767.92216 156.9808,769.15755 156.01658,768.45977 C 154.18801,767.13648 146.79002,763.45451 148.29763,758.992 C 149.82353,754.47531 164.2518,743.67105 173.68574,743.07166 C 183.17974,742.46845 226.11613,770.25123 248.58369,783.17402 z M 254.31259,773.64594 C 232.57649,760.22136 188.48966,735.54842 176.88187,733.12145 C 165.21628,730.6824 134.67553,763.34022 105.42127,777.38481 C 102.7841,778.65088 104.97876,786.79012 106.44644,789.02354 C 106.82809,789.60432 108.93435,789.14704 108.85861,788.54111 C 108.61273,786.57405 105.37547,779.67336 107.59222,778.59089 C 133.27159,766.0514 164.6085,733.10299 177.3643,735.41302 C 190.10941,737.7211 230.72855,762.99688 252.92559,775.63599 C 253.71278,776.08422 255.09252,774.12765 254.31259,773.64594 z M 256.07302,771.67785 C 227.65503,754.0903 180.19471,731.84619 180.41181,726.56313 C 183.10223,661.09325 178.01469,589.90189 95.957777,584.2551 C 92.768804,584.03564 93.021683,576.88459 93.701542,574.35056 C 93.906144,573.58796 95.55077,573.56482 95.871237,574.28117 C 96.917667,576.62024 93.712923,582.33117 96.858056,582.48129 C 179.53731,586.42776 187.24473,666.77905 182.29159,724.37931 C 181.52522,733.29148 226.7377,749.78832 256.78508,769.12312 C 257.69614,769.70937 257.0128,772.25947 256.07302,771.67785 z M 250.1516,780.40002 C 251.00467,780.8682 252.31455,778.66648 251.47829,778.16876 C 229.27898,764.95616 182.69648,737.21271 173.92696,738.12671 C 165.16386,739.04003 144.02984,755.82377 125.74381,771.23376 C 123.64597,773.00167 128.91006,780.61136 130.62847,782.32976 C 131.16142,782.86272 133.03625,782.13197 132.92003,781.06337 C 132.71374,779.16672 126.36136,773.73094 128.39721,771.89712 C 144.98576,756.95465 165.21796,741.53727 173.92696,740.23735 C 182.64496,738.93608 227.50471,767.97107 250.1516,780.40002 z M 258.11177,766.65065 C 259.11586,767.27647 260.78,764.5312 259.48413,763.75426 C 238.34096,751.07794 187.12132,730.45863 187.31451,719.55298 C 188.20782,669.127 181.81572,616.49925 144.9395,592.21276 C 142.44811,590.57194 149.27004,586.87836 149.97329,584.47562 C 150.23491,583.58173 149.16103,582.51435 148.25676,582.92234 C 144.9681,584.40615 140.37513,591.62654 142.75517,593.14962 C 175.39244,614.03542 187.04679,659.2363 185.08325,719.97511 C 184.74175,730.53874 236.86786,753.40985 258.11177,766.65065 z M 260.88577,761.58509 C 261.93078,762.17149 263.13885,759.77114 262.09185,759.17291 C 241.15119,747.20781 192.14576,722.08864 191.65643,714.36681 C 190.0081,688.35602 187.71295,663.24663 181.88713,635.18726 C 181.34698,632.58567 189.49228,631.39667 190.71099,629.56861 C 191.26121,628.74328 190.25613,627.26339 189.3636,627.5609 C 186.63787,628.46948 179.36621,631.82751 179.76612,634.38689 C 185.07112,668.16708 188.01646,683.33013 189.42516,714.66833 C 189.78516,722.6334 239.54725,749.61099 260.88577,761.58509 z M 263.53915,756.51952 C 264.43945,757.04038 265.79069,754.56183 264.86585,754.04704 C 244.29063,742.59443 197.64005,719.00564 195.5159,711.47221 C 193.73201,705.14552 190.42983,677.61182 191.05087,669.12824 C 191.23627,666.59554 201.07349,668.1202 202.87052,666.59546 C 203.72688,665.86885 203.15109,664.12675 202.19682,664.14796 C 199.53284,664.20716 190.0765,664.74761 189.63764,666.76727 C 187.82751,675.09762 192.35596,707.04249 193.40525,712.37677 C 194.71931,719.05703 242.62862,744.42193 263.53915,756.51952 z M 255.84603,779.96449 C 255.60623,780.71192 255.01561,781.18603 254.52769,781.02277 C 254.03976,780.85951 253.83838,780.12039 254.07818,779.37296 C 254.31798,778.62553 254.9086,778.15142 255.39653,778.31468 C 255.88445,778.47794 256.08583,779.21706 255.84603,779.96449 z M 253.62867,784.74034 C 253.38888,785.48778 252.79825,785.96189 252.31033,785.79863 C 251.8224,785.63537 251.62102,784.89625 251.86082,784.14882 C 252.10062,783.40139 252.69125,782.92728 253.17917,783.09054 C 253.6671,783.2538 253.86848,783.99291 253.62867,784.74034 z M 250.30263,788.15167 C 250.06283,788.8991 249.47221,789.37322 248.98429,789.20996 C 248.49636,789.04669 248.29498,788.30758 248.53478,787.56014 C 248.77458,786.81271 249.3652,786.3386 249.85313,786.50187 C 250.34106,786.66513 250.54243,787.40424 250.30263,788.15167 z M 258.14868,780.04977 C 257.90888,780.7972 257.31826,781.27132 256.83034,781.10805 C 256.34241,780.94479 256.14103,780.20568 256.38083,779.45824 C 256.62063,778.71081 257.21125,778.2367 257.69918,778.39996 C 258.1871,778.56322 258.38848,779.30234 258.14868,780.04977 z M 258.23396,775.27391 C 257.99417,776.02135 257.40354,776.49546 256.91562,776.3322 C 256.42769,776.16893 256.22631,775.42982 256.46612,774.68239 C 256.70591,773.93496 257.29654,773.46084 257.78447,773.62411 C 258.27239,773.78737 258.47377,774.52648 258.23396,775.27391 z M 259.51321,777.32071 C 259.27342,778.06814 258.68279,778.54226 258.19487,778.37899 C 257.70694,778.21573 257.50556,777.47662 257.74537,776.72918 C 257.98516,775.98175 258.57579,775.50764 259.06372,775.6709 C 259.55164,775.83416 259.75302,776.57328 259.51321,777.32071 z M 260.79246,772.97127 C 260.55267,773.7187 259.96204,774.19281 259.47412,774.02955 C 258.98619,773.86629 258.78481,773.12718 259.02462,772.37974 C 259.26441,771.63231 259.85504,771.1582 260.34297,771.32146 C 260.83089,771.48472 261.03227,772.22384 260.79246,772.97127 z M 263.69209,768.79239 C 263.45229,769.53983 262.86166,770.01394 262.37374,769.85068 C 261.88581,769.68741 261.68443,768.9483 261.92424,768.20086 C 262.16404,767.45344 262.75466,766.97932 263.24259,767.14259 C 263.73051,767.30585 263.93189,768.04496 263.69209,768.79239 z M 264.88605,764.1871 C 264.64626,764.93454 264.05563,765.40865 263.56771,765.24539 C 263.07978,765.08212 262.8784,764.34301 263.1182,763.59557 C 263.358,762.84815 263.94863,762.37403 264.43655,762.5373 C 264.92448,762.70056 265.12586,763.43967 264.88605,764.1871 z M 264.71548,760.69049 C 264.47569,761.43792 263.88506,761.91204 263.39714,761.74878 C 262.90921,761.58551 262.70783,760.8464 262.94764,760.09896 C 263.18743,759.35153 263.77806,758.87742 264.26599,759.04068 C 264.75391,759.20394 264.95529,759.94306 264.71548,760.69049 z M 267.35926,758.13199 C 267.11946,758.87943 266.52884,759.35354 266.04092,759.19028 C 265.55299,759.02702 265.35161,758.2879 265.59141,757.54047 C 265.83121,756.79304 266.42184,756.31893 266.90976,756.48219 C 267.39769,756.64545 267.59907,757.38457 267.35926,758.13199 z M 262.49812,766.7456 C 262.25832,767.49303 261.6677,767.96714 261.17978,767.80388 C 260.69185,767.64062 260.49047,766.9015 260.73027,766.15407 C 260.97007,765.40664 261.56069,764.93252 262.04862,765.09579 C 262.53654,765.25905 262.73792,765.99816 262.49812,766.7456 z" />
    <path
       id="path3232"
       style="fill:none;fill-rule:evenodd;stroke:#000000;stroke-width:2.02622461;stroke-linecap:butt;stroke-linejoin:miter;marker-start:none;marker-mid:none;marker-end:none;stroke-miterlimit:4;stroke-dasharray:none;stroke-opacity:1"
       d="M 154.58657,743.46356 C 151.52607,740.97797 155.5378,735.0262 158.10752,731.50038 C 160.70812,727.93223 165.3343,721.24036 162.12727,718.82933 C 165.66763,720.73852 170.21366,714.46414 172.02419,711.048 C 173.86325,707.57804 178.1468,699.86973 181.6152,701.83539"
       sodipodi:nodetypes="czczc" />
    <path
       sodipodi:type="arc"
       style="fill:#8dc4c1;fill-opacity:1;fill-rule:evenodd;stroke:#a299c0;stroke-width:2.90815377;stroke-linecap:butt;stroke-linejoin:miter;stroke-miterlimit:4;stroke-dasharray:none;stroke-opacity:0.8921933"
       id="path2396"
       sodipodi:cx="128.79445"
       sodipodi:cy="577.59052"
       sodipodi:rx="46.972092"
       sodipodi:ry="47.477169"
       d="m 175.76654,577.59052 a 46.972092,47.477169 0 0 1 -46.97209,47.47716 46.972092,47.477169 0 0 1 -46.972093,-47.47716 46.972092,47.477169 0 0 1 46.972093,-47.47717 46.972092,47.477169 0 0 1 46.97209,47.47717 z"
       transform="matrix(0.492669,0.492669,-0.492669,0.492669,308.47782,332.89688)" />
    <path
       style="fill:#8dbac1;fill-opacity:1;fill-rule:evenodd;stroke:none;stroke-width:2.90815377;stroke-linecap:butt;stroke-linejoin:miter;stroke-miterlimit:4;stroke-opacity:0.8921933"
       d="M 90.710673,713.23433 C 86.898331,713.52609 68.206513,704.71015 66.410595,683.92557 C 64.504021,661.8603 80.944236,648.89901 84.526838,648.84374 C 102.72592,648.56296 115.44627,657.36728 119.07866,675.86093 C 122.33941,692.46255 109.11667,710.40979 90.710673,713.23433 z"
       id="path3280"
       sodipodi:nodetypes="csssc" />
    <path
       inkscape:transform-center-x="-0.49346648"
       inkscape:transform-center-y="4.3138104"
       style="fill:#97d6c1;fill-opacity:1;fill-rule:evenodd;stroke:#97c4c1;stroke-width:0.48462036;stroke-linecap:butt;stroke-linejoin:round;stroke-miterlimit:4;stroke-opacity:1"
       d="M 99.14484,673.69688 C 98.153131,669.58968 99.159712,665.39951 101.39168,664.34384 C 103.62365,663.28816 106.23997,665.76478 107.23168,669.87198 C 108.22339,673.9792 107.21681,678.16935 104.98483,679.22504 C 102.75879,680.27791 100.15069,677.81975 99.15235,673.72783 L 99.14484,673.69688 z"
       id="path3285"
       sodipodi:nodetypes="cssscc" />
    <path
       style="opacity:1;fill:none;fill-opacity:1;fill-rule:evenodd;stroke:#000000;stroke-width:2.02622461;stroke-linecap:butt;stroke-linejoin:miter;marker:none;marker-start:none;marker-mid:none;marker-end:none;stroke-miterlimit:4;stroke-dasharray:none;stroke-dashoffset:0;stroke-opacity:1;visibility:visible;display:inline;overflow:visible;enable-background:accumulate"
       d="M 294.35801,630.77567 L 173.87965,630.77567 M 293.67575,591.68671 L 158.95969,591.68671 M 233.6364,765.8642 L 294.35801,765.8642"
       id="path3294"
       sodipodi:nodetypes="cccccc" />
    <g
       id="g6249"
       transform="matrix(0.6754082,0,0,0.6754082,159.17204,172.54148)">
      <path
         transform="matrix(0.8461538,0,0,0.8461538,-90.412059,232.97331)"
         d="m 384.99999,458.07648 a 18.571428,18.571428 0 0 1 -18.57143,18.57143 18.571428,18.571428 0 0 1 -18.57143,-18.57143 18.571428,18.571428 0 0 1 18.57143,-18.57143 18.571428,18.571428 0 0 1 18.57143,18.57143 z"
         sodipodi:ry="18.571428"
         sodipodi:rx="18.571428"
         sodipodi:cy="458.07648"
         sodipodi:cx="366.42856"
         id="path6251"
         style="opacity:1;fill:#ffffff;fill-opacity:1;fill-rule:evenodd;stroke:none;stroke-width:3;stroke-linecap:butt;stroke-linejoin:round;stroke-miterlimit:4;stroke-dasharray:none;stroke-opacity:1"
         sodipodi:type="arc" />
      <text
         id="text6253"
         y="631.81805"
         x="209.48491"
         style="font-size:40px;font-style:normal;font-variant:normal;font-weight:normal;font-stretch:normal;fill:#000000;fill-opacity:1;stroke:none;stroke-width:1px;stroke-linecap:butt;stroke-linejoin:miter;stroke-opacity:1;font-family:Arial;-inkscape-font-specification:Arial"
         xml:space="preserve"><tspan
           style="font-size:32px"
           y="631.81805"
           x="209.48491"
           id="tspan6255"
           sodipodi:role="line">1</tspan></text>
    </g>
    <text
       xml:space="preserve"
       style="font-size:40px;font-style:normal;font-weight:normal;fill:#000000;fill-opacity:1;stroke:none;stroke-width:1px;stroke-linecap:butt;stroke-linejoin:miter;stroke-opacity:1;font-family:Bitstream Vera Sans"
       x="457.59909"
       y="610.92554"
       id="text3304"><tspan
         sodipodi:role="line"
         id="tspan3306"
         x="457.59909"
         y="610.92554" /></text>
    <g
       id="g6241"
       transform="matrix(0.6754082,0,0,0.6754082,2.1200103,329.35661)">
      <path
         transform="matrix(0.8461538,0,0,0.8461538,142.11699,58.668407)"
         d="m 384.99999,458.07648 a 18.571428,18.571428 0 0 1 -18.57143,18.57143 18.571428,18.571428 0 0 1 -18.57143,-18.57143 18.571428,18.571428 0 0 1 18.57143,-18.57143 18.571428,18.571428 0 0 1 18.57143,18.57143 z"
         sodipodi:ry="18.571428"
         sodipodi:rx="18.571428"
         sodipodi:cy="458.07648"
         sodipodi:cx="366.42856"
         id="path6243"
         style="opacity:1;fill:#ffffff;fill-opacity:1;fill-rule:evenodd;stroke:none;stroke-width:3;stroke-linecap:butt;stroke-linejoin:round;stroke-miterlimit:4;stroke-dasharray:none;stroke-opacity:1"
         sodipodi:type="arc" />
      <text
         id="text6245"
         y="456.67328"
         x="443.9314"
         style="font-size:40px;font-style:normal;font-variant:normal;font-weight:normal;font-stretch:normal;fill:#000000;fill-opacity:1;stroke:none;stroke-width:1px;stroke-linecap:butt;stroke-linejoin:miter;stroke-opacity:1;font-family:Arial;-inkscape-font-specification:Arial"
         xml:space="preserve"><tspan
           style="font-size:32px"
           y="456.67328"
           x="443.9314"
           id="tspan6247"
           sodipodi:role="line">2</tspan></text>
    </g>
    <g
       id="g6233"
       transform="matrix(0.6754082,0,0,0.6754082,0.6923255,425.5998)">
      <path
         transform="matrix(0.8461538,0,0,0.8461538,144.2308,116.1876)"
         d="m 384.99999,458.07648 a 18.571428,18.571428 0 0 1 -18.57143,18.57143 18.571428,18.571428 0 0 1 -18.57143,-18.57143 18.571428,18.571428 0 0 1 18.57143,-18.57143 18.571428,18.571428 0 0 1 18.57143,18.57143 z"
         sodipodi:ry="18.571428"
         sodipodi:rx="18.571428"
         sodipodi:cy="458.07648"
         sodipodi:cx="366.42856"
         id="path6235"
         style="opacity:1;fill:#ffffff;fill-opacity:1;fill-rule:evenodd;stroke:none;stroke-width:3;stroke-linecap:butt;stroke-linejoin:round;stroke-miterlimit:4;stroke-dasharray:none;stroke-opacity:1"
         sodipodi:type="arc" />
      <text
         id="text6237"
         y="514.87488"
         x="446.03394"
         style="font-size:40px;font-style:normal;font-variant:normal;font-weight:normal;font-stretch:normal;fill:#000000;fill-opacity:1;stroke:none;stroke-width:1px;stroke-linecap:butt;stroke-linejoin:miter;stroke-opacity:1;font-family:Arial;-inkscape-font-specification:Arial"
         xml:space="preserve"><tspan
           style="font-size:32px"
           y="514.87488"
           x="446.03394"
           id="tspan6239"
           sodipodi:role="line">3</tspan></text>
    </g>
    <g
       id="g6076"
       transform="matrix(0.6754082,0,0,0.6754082,-157.62612,234.31701)">
      <path
         transform="matrix(0.8461538,0,0,0.8461538,144.05224,316.1876)"
         d="m 384.99999,458.07648 a 18.571428,18.571428 0 0 1 -18.57143,18.57143 18.571428,18.571428 0 0 1 -18.57143,-18.57143 18.571428,18.571428 0 0 1 18.57143,-18.57143 18.571428,18.571428 0 0 1 18.57143,18.57143 z"
         sodipodi:ry="18.571428"
         sodipodi:rx="18.571428"
         sodipodi:cy="458.07648"
         sodipodi:cx="366.42856"
         id="path6067"
         style="opacity:1;fill:#ffffff;fill-opacity:1;fill-rule:evenodd;stroke:none;stroke-width:3;stroke-linecap:butt;stroke-linejoin:round;stroke-miterlimit:4;stroke-dasharray:none;stroke-opacity:1"
         sodipodi:type="arc" />
      <text
         id="text3312"
         y="714.52795"
         x="445.31964"
         style="font-size:40px;font-style:normal;font-variant:normal;font-weight:normal;font-stretch:normal;fill:#000000;fill-opacity:1;stroke:none;stroke-width:1px;stroke-linecap:butt;stroke-linejoin:miter;stroke-opacity:1;font-family:Arial;-inkscape-font-specification:Arial"
         xml:space="preserve"><tspan
           style="font-size:32px"
           y="714.52795"
           x="445.31964"
           id="tspan3314"
           sodipodi:role="line">4</tspan></text>
    </g>
    <path
       style="opacity:1;fill:#f9e181;fill-opacity:1;fill-rule:evenodd;stroke:none;stroke-width:1px;stroke-linecap:butt;stroke-linejoin:miter;marker:none;marker-start:none;marker-mid:none;marker-end:none;stroke-miterlimit:4;stroke-dasharray:none;stroke-dashoffset:0;stroke-opacity:1;visibility:visible;display:inline;overflow:visible;enable-background:accumulate"
       d="M 656.50851,774.26198 C 678.15255,738.13039 614.03876,693.75611 605.33704,656.11267 C 596.60667,618.34528 552.48207,548.06596 472.60021,551.23131 C 460.69059,551.70323 469.77854,587.40508 476.397,586.34287 C 560.41745,572.85828 587.78074,683.97215 560.82303,726.00764 C 533.79479,768.15309 503.78311,780.0767 473.98483,780.76395 C 440.0787,804.73876 519.59324,798.43472 534.04411,794.99541 C 586.02397,783.59489 629.78837,818.86734 656.50851,774.26198 z"
       id="path6157"
       sodipodi:nodetypes="czsszccs" />
    <path
       id="path6159"
       style="opacity:1;fill:none;fill-opacity:1;fill-rule:evenodd;stroke:#f2a832;stroke-width:1.35081649;stroke-linecap:butt;stroke-linejoin:miter;marker:none;marker-start:none;marker-mid:none;marker-end:none;stroke-miterlimit:4;stroke-dasharray:none;stroke-dashoffset:0;stroke-opacity:1;visibility:visible;display:inline;overflow:visible;enable-background:accumulate"
       d="M 471.33575,647.48191 C 471.33575,647.48191 471.56316,637.03263 471.50632,632.81321 C 471.46904,630.04602 465.75065,627.83045 466.38932,625.13772 C 467.08214,622.2167 474.71696,623.17032 475.08821,620.1913 C 475.5268,616.67189 465.83741,615.47638 466.55989,612.00411 C 467.16014,609.11929 475.31127,611.50339 475.77047,608.59279 C 476.29853,605.24575 467.96854,604.81545 466.90102,601.59957 C 466.21669,599.53802 469.7964,594.29239 468.89786,592.31478 C 466.22458,586.43112 467.45607,581.48003 468.58954,579.80284 C 471.05851,576.14953 471.17464,586.88501 475.18457,585.97457 C 477.26964,585.50115 475.04286,592.30131 474.91764,594.43578 C 474.77228,596.91366 477.981,600.18798 476.96444,602.4524 C 475.54912,605.60505 466.94818,604.29105 466.73046,607.73996 C 466.49169,611.52211 477.52877,611.13457 477.135,614.90374 C 476.7894,618.21178 467.53033,615.90194 466.90102,619.1679 C 466.20955,622.75651 475.44157,624.04503 475.5999,627.69622 C 475.68165,629.5815 471.50632,632.47207 471.50632,632.47207 M 472.52971,712.63825 C 472.52971,712.63825 472.64579,729.54577 472.87084,738.2232 C 472.91442,739.87042 469.50307,741.01503 469.63009,742.65793 C 469.8811,745.90467 477.32518,747.07704 477.30557,750.33341 C 477.28747,753.33673 469.36478,754.42551 470.14178,757.32663 C 470.78393,759.72426 477.68625,756.93661 478.1584,759.37342 C 478.70156,762.17673 470.56528,762.14786 470.48292,765.00211 C 470.39485,768.05393 480.48334,769.3203 478.32896,771.48363 C 473.58719,776.24512 477.92594,780.16589 475.72908,780.53577 C 469.62247,781.56393 469.40917,785.71052 467.92945,784.3039 C 466.53337,782.9768 469.58691,776.2781 469.45952,770.6308 C 469.38566,767.28674 479.18925,768.51755 479.1818,765.17268 C 479.17475,762.01173 470.22688,763.2063 469.97121,760.05569 C 469.74433,757.25986 477.43434,757.0585 477.30557,754.25644 C 477.18503,751.63354 470.11364,752.10238 469.97121,749.48058 C 469.81342,746.57582 477.2313,746.23892 477.47613,743.34019 C 477.65318,741.24408 472.87084,738.05264 472.87084,738.05264"
       sodipodi:nodetypes="cssssssssssssssscccsssssssscsssssc" />
    <path
       id="path6161"
       style="fill:#e4c75d;fill-opacity:1;fill-rule:evenodd;stroke:#6e750f;stroke-width:0.87803066;stroke-linecap:butt;stroke-linejoin:round;stroke-miterlimit:4;stroke-opacity:1"
       d="M 647.47657,769.73261 C 647.23677,770.48004 646.64615,770.95415 646.15823,770.79089 C 645.6703,770.62762 645.46892,769.88851 645.70872,769.14108 C 645.94852,768.39365 646.53915,767.91953 647.02707,768.0828 C 647.515,768.24606 647.71638,768.98517 647.47657,769.73261 z M 643.46827,777.8345 C 643.22847,778.58194 642.63785,779.05605 642.14992,778.89279 C 641.662,778.72953 641.46062,777.99041 641.70042,777.24298 C 641.94022,776.49555 642.53084,776.02143 643.01877,776.1847 C 643.50669,776.34796 643.70807,777.08707 643.46827,777.8345 z" />
    <path
       id="path6165"
       style="fill:#ecfaff;fill-opacity:1;fill-rule:evenodd;stroke:#adabf7;stroke-width:2.02622461;stroke-linecap:butt;stroke-linejoin:miter;stroke-miterlimit:4;stroke-dasharray:none;stroke-opacity:1"
       d="M 459.62445,787.64155 C 465.35463,780.80771 483.54941,822.6053 557.566,760.11732 C 564.23603,749.57153 611.47063,782.34772 631.95422,793.56547 C 639.09018,797.47345 664.53834,755.73255 652.39629,749.60155 C 637.30082,741.00963 592.51045,718.64238 592.57441,713.42606 C 601.38017,640.6137 576.84455,592.69934 525.42725,571.73103 C 481.65064,553.87865 464.96892,580.91399 460.09533,573.4977 C 455.33075,566.2473 446.87348,571.74923 442.03262,578.1099 C 405.39295,626.25278 395.88413,715.99143 448.82099,785.47008 C 452.19093,789.89306 457.25466,790.46776 459.62445,787.64155 z M 669.12956,723.83668 C 690.53319,734.21123 635.67925,832.10653 617.51109,820.43618 C 564.04926,788.93628 485.88749,801.27907 480.8582,870.39999 C 480.76982,873.04561 471.4372,872.8531 471.50632,868.53588 C 472.19314,825.63111 462.5191,813.92714 449.41546,800.5748 C 391.64924,741.71223 394.91576,618.73238 445.22906,563.77315 C 456.1213,551.87511 473.5593,534.86106 474.23538,497.04241 C 474.30806,492.97643 485.20532,493.95865 485.03943,497.57493 C 484.70693,504.82289 480.72107,527.98923 491.4039,534.30852 C 528.5995,556.31112 560.53251,558.67018 589.52788,594.54425 C 611.47853,621.70235 612.9939,647.7061 618.95638,673.6635 C 624.43109,697.49743 643.24791,711.29162 669.12956,723.83668 z"
       sodipodi:nodetypes="cccccssssscccsssssssss" />
    <path
       id="path6167"
       style="opacity:1;fill:url(#radialGradient6213);fill-opacity:1;fill-rule:evenodd;stroke:none;stroke-width:1px;stroke-linecap:butt;stroke-linejoin:miter;marker:none;marker-start:none;marker-mid:none;marker-end:none;stroke-miterlimit:4;stroke-dasharray:none;stroke-dashoffset:0;stroke-opacity:1;visibility:visible;display:inline;overflow:visible;enable-background:accumulate"
       d="M 632.35894,792.26347 C 639.93879,795.0691 661.03902,755.3575 652.36497,751.09423 C 641.15813,745.26304 606.723,726.12266 588.92483,714.91164 C 583.79057,711.29897 599.88801,683.55655 587.59814,647.85326 C 575.34538,612.25778 542.72451,576.84882 512.70019,572.35227 C 482.55792,567.83806 471.28722,574.25258 463.97431,585.25739 C 456.7169,596.17867 453.04421,627.43873 451.43102,636.75726 C 449.82121,646.05626 436.40347,648.34398 436.23434,635.55118 C 436.06679,622.87896 453.45427,567.3303 477.72369,562.10054 C 501.94236,556.88171 526.74094,564.56845 545.86756,576.81479 C 564.90873,589.00641 588.66905,616.95062 596.72301,650.82708 C 605.69037,688.54551 591.87596,713.16124 596.04074,715.39408 C 602.80606,719.02114 639.4587,741.2427 655.18035,750.03447 C 663.85009,754.98361 640.55898,800.3889 630.47414,794.16896 C 617.3926,786.75634 598.35456,774.3516 575.04008,761.93192 C 572.3228,760.26252 568.41464,761.74097 565.48836,764.31985 C 556.98752,771.81152 538.60183,791.98806 500.33202,798.26255 C 487.92558,800.29664 469.16307,802.25051 459.73723,787.858 C 449.10773,771.6276 440.2134,732.56063 440.80437,724.74846 C 441.49294,715.64626 451.26133,714.90921 453.25572,723.21336 C 456.29838,735.85435 457.71726,751.88165 460.07837,763.63759 C 469.29691,797.54846 490.74976,793.72358 518.58262,783.76441 C 532.89497,778.31621 552.15597,764.82108 559.72694,756.00349 C 565.34076,749.46531 611.0297,780.65341 632.35894,792.26347 z"
       sodipodi:nodetypes="cccsssscsssscccsssccccsc"
       inkscape:transform-center-x="2.8946045" />
    <path
       style="opacity:1;fill:#e4c75d;fill-opacity:1;fill-rule:evenodd;stroke:#6e750f;stroke-width:0.87803066;stroke-linecap:butt;stroke-linejoin:miter;marker:none;marker-start:none;marker-mid:none;marker-end:none;stroke-miterlimit:4;stroke-dasharray:none;stroke-dashoffset:0;stroke-opacity:1;visibility:visible;display:inline;overflow:visible;enable-background:accumulate"
       d="M 570.96355,724.17841 C 570.92244,721.81639 566.85105,720.58658 565.71802,720.45073 C 564.75355,720.33509 563.98024,722.34357 564.81459,722.89457 C 565.584,723.4027 568.86731,725.28863 568.94024,726.24651 C 569.21993,729.92015 578.80424,738.52396 579.0555,738.13241 C 579.30676,737.74086 566.33949,730.63773 566.49374,729.51335 C 566.67287,728.20755 563.66701,726.81284 562.47547,726.56332 C 561.31887,726.32111 560.17493,728.37622 560.81569,729.07427 C 561.47836,729.7962 563.84142,732.58512 564.67722,732.11097 C 565.47902,731.65611 578.31903,741.5003 579.26358,740.34312 C 580.20813,739.18594 561.50932,736.34226 561.32882,735.44414 C 561.13969,734.50308 558.05235,733.37731 557.50837,733.38588 C 556.31949,733.4046 555.46923,735.11688 555.9787,735.80833 C 556.34157,736.30082 558.56259,738.20618 559.67961,738.07177 C 560.84066,737.93208 576.92579,740.74239 576.2999,741.10564 C 575.59357,741.51556 559.0754,738.62428 556.32311,741.9787 C 555.33609,743.18165 554.73446,740.83916 553.59748,740.07127 C 552.24515,739.15793 550.75357,740.68454 551.52158,742.1918 C 552.2353,743.59249 554.25767,746.44739 556.09749,744.80341 C 565.02623,736.8251 599.04773,750.78147 600.47248,748.95519 C 601.93166,747.08478 571.17332,736.27347 570.96355,724.17841 z"
       id="path2457"
       sodipodi:nodetypes="czsszzzzzzzsszsszzscs" />
    <path
       id="path3382"
       style="opacity:1;fill:#e4c75d;fill-opacity:1;fill-rule:evenodd;stroke:#6e750f;stroke-width:0.87803066;stroke-linecap:butt;stroke-linejoin:miter;marker:none;marker-start:none;marker-mid:none;marker-end:none;stroke-miterlimit:4;stroke-dasharray:none;stroke-dashoffset:0;stroke-opacity:1;visibility:visible;display:inline;overflow:visible;enable-background:accumulate"
       d="M 488.60981,789.89002 C 516.78389,788.3712 545.49972,770.64876 562.6447,751.56173 C 567.31558,746.35913 631.93088,786.63349 632.63292,787.59689 C 633.53406,787.81049 634.61402,787.03675 633.96421,786.17704 C 633.35462,785.37057 570.54531,745.20725 557.91404,746.66873 C 566.25742,739.6175 634.29397,782.71648 635.13423,782.84672 C 635.97449,782.97698 637.01522,781.55473 636.21777,780.82637 C 635.42031,780.09799 578.72154,744.66053 563.39989,743.38228 C 569.86068,735.911 636.84815,777.60784 638.04843,777.68512 C 639.24872,777.76239 639.53701,776.39476 639.08321,775.92469 C 638.62941,775.4546 574.41427,738.55785 566.74008,739.71704 C 561.24073,740.54772 564.60937,737.18685 565.00472,736.84543 C 570.65154,731.96884 639.62496,773.05977 640.95349,773.66357 C 642.28201,774.26736 643.50584,771.26202 641.90197,771.65501 C 640.2981,772.04801 576.38886,733.80106 568.06469,734.02266 C 567.13706,734.04735 564.18458,734.35195 562.43607,736.18684 C 560.73061,737.97654 547.78407,754.44602 546.91746,754.05037 C 545.73516,753.5106 545.74626,750.99877 544.32463,750.13154 C 543.22252,749.45923 542.24854,750.97197 542.43835,751.82019 C 542.99368,754.30186 546.20951,757.63277 546.14801,757.22843 C 546.03256,756.4694 542.67251,758.75811 541.55613,757.96585 C 541.03997,757.59955 540.59861,756.55391 539.36168,755.0462 C 538.562,754.07145 537.05413,755.47496 537.35502,756.66174 C 537.7831,758.35015 538.93108,759.43463 539.72837,759.99957 C 540.30013,760.4047 543.92319,761.25962 543.55418,761.54674 C 541.81547,762.89959 532.87055,767.92001 531.5971,766.96111 C 530.90752,766.44186 530.47643,764.75869 529.68589,763.59047 C 529.06783,762.67714 526.71301,763.53249 527.41058,765.36489 C 527.89617,766.64046 528.96272,768.07771 529.62644,768.73685 C 531.0696,770.17004 535.67778,768.07332 534.90849,768.48359 C 530.99263,770.57195 528.04539,770.42763 527.27994,769.81519 C 526.75427,769.39461 526.44024,768.94136 524.90696,767.02506 C 524.19589,766.13635 522.41137,766.73546 522.95999,768.66955 C 523.35395,770.05838 524.4745,771.03537 525.34632,771.37947 C 527.17608,772.10164 529.5763,771.32094 529.99609,771.45949 C 528.0001,772.03837 523.74274,773.59304 522.18472,772.68952 C 521.28718,772.16902 521.60581,771.23053 520.58624,769.83177 C 519.76387,768.70355 518.20902,769.46956 518.53452,770.9847 C 519.16275,773.79449 520.43034,774.99119 523.21354,775.06923 C 515.07851,777.94762 513.231,779.60431 511.90641,777.78673 C 511.46704,777.32559 511.86329,776.94355 511.13859,774.98397 C 510.60301,773.53579 508.28687,774.06592 508.44414,775.64246 C 508.61376,777.34281 508.70622,778.10495 509.85462,779.2602 C 510.95983,780.37202 512.48302,781.27593 515.47315,781.18464 C 511.30922,782.21443 507.94204,780.62483 507.26948,779.53062 C 506.85217,778.8517 506.73789,778.19226 506.03455,776.69076 C 505.54251,775.64035 503.21981,775.80872 503.40852,777.3445 C 503.55189,778.51122 504.00262,780.29057 505.16371,781.23195 C 506.3248,782.17334 509.74921,782.16673 511.3828,782.72022 C 508.77564,782.91226 503.70498,782.92801 502.41069,782.03643 C 501.54743,781.44176 502.09029,779.9981 501.31768,778.06993 C 500.8759,776.96739 498.50361,777.48083 498.59397,778.90271 C 498.72832,781.01691 499.07247,783.29709 500.66871,784.06327 C 503.29779,785.32521 506.31336,784.39136 509.47082,784.08635 C 503.7462,785.16463 496.72297,787.22135 490.72921,784.8766 C 489.26761,784.30482 489.61464,783.41404 489.47227,781.13236 C 489.38215,779.68797 486.64277,779.85503 486.69998,781.50144 C 486.75698,783.14174 486.9174,784.45145 487.62318,785.22022 C 488.46028,786.13203 489.45598,787.147 494.64895,787.40336 C 486.72408,789.72043 484.30158,786.54677 483.53988,785.15263 C 483.26915,784.65711 483.34591,783.69657 483.19979,782.2956 C 483.014,780.51437 480.79004,780.36838 480.5446,781.68838 C 480.26621,783.1856 480.52306,785.29318 481.22612,786.41803 C 482.46092,788.39363 486.37465,790.01051 488.60981,789.89002 z M 476.7257,584.12146 C 476.60711,582.89661 475.65546,574.85944 477.37392,574.38335 C 561.72205,551.01537 605.75242,661.34281 586.73111,714.36735 C 602.8581,724.76124 649.3313,749.99439 652.12374,751.33545 C 653.43647,751.96588 651.69043,754.35889 650.37492,753.26519 C 649.05942,752.17148 603.56243,728.69995 583.7987,715.20119 C 581.8576,713.87541 579.85159,714.70974 583.35515,717.30577 C 602.13594,731.22178 648.10828,755.63937 649.29751,756.2797 C 650.43972,756.89472 648.95157,758.85374 648.13509,758.31209 C 647.25904,757.73093 595.07043,730.28587 581.35896,718.17628 C 576.93099,714.26562 578.38453,719.61669 582.91854,723.09387 C 592.23519,730.23892 645.79466,760.78076 646.88802,761.28896 C 648.03072,761.82011 646.67987,763.35939 646.00919,763.05361 C 645.33852,762.74782 583.15544,728.59604 578.44142,721.48192 C 581.14482,727.99658 644.51453,762.54365 645.68459,763.40317 C 646.79986,764.22244 646.09723,765.91356 644.871,765.19943 C 628.06984,754.77069 600.71631,742.43098 577.86782,725.95465 C 575.27707,724.08643 577.27451,717.3524 578.13219,708.39601 C 574.58928,726.1926 575.75438,725.32849 578.15324,727.43959 C 592.12607,739.73625 641.26142,764.85224 643.78549,766.91636 C 644.89454,767.82331 643.59555,769.74434 642.51458,768.77371 C 640.22777,766.72036 572.10725,732.76855 571.81975,723.44011 C 571.73317,720.63069 572.14294,719.06646 570.81681,717.29661 C 570.24568,716.53439 568.07283,716.24787 567.31432,715.76614 C 566.53075,715.26849 567.32797,713.62633 567.9678,713.61686 C 568.77454,713.60491 572.01918,713.64978 572.86351,715.72436 C 575.28086,721.66401 576.75972,713.91976 576.5965,713.41572 L 574.89277,708.15443 C 574.25308,706.17898 571.30447,707.45448 570.43809,707.07599 C 569.56191,706.69323 569.66935,704.9613 570.55621,704.69294 C 571.44308,704.42457 576.14225,704.59359 576.88693,706.19826 L 579.16305,711.10293 L 576.74404,695.99136 C 576.42366,693.98997 572.51196,693.83817 572.02815,693.56072 C 571.52428,693.27177 571.77947,691.39347 572.29225,691.17736 C 572.76387,690.97861 576.84433,691.36783 577.4918,692.81472 L 581.07706,700.82668 L 576.72811,686.66697 C 576.1187,684.6828 573.53087,684.7109 572.58272,684.47517 C 571.5978,684.2303 571.83039,682.29842 572.39095,682.06403 C 572.93172,681.83792 576.99633,681.34609 578.02793,683.89809 L 582.12764,694.0401 L 577.27946,678.87423 C 576.41818,676.18 572.38962,676.28042 571.83168,676.43645 C 571.2932,676.58704 570.89443,674.37063 571.63262,674.13774 C 572.35046,673.91127 577.04629,673.08562 578.11093,675.46046 L 582.82919,685.98526 L 575.11783,669.28379 C 574.89163,668.79389 572.00298,668.75119 571.27161,668.7938 C 570.41436,668.84374 570.07446,666.46286 570.93345,666.16734 C 571.74614,665.88775 575.37505,665.37425 576.29094,667.20823 L 581.58525,677.80957 C 581.82389,678.28743 573.95971,662.64852 573.87001,662.1234 C 573.78032,661.59827 570.25897,661.97103 569.66318,661.89104 C 569.0623,661.81036 568.55256,659.15043 569.32199,658.85381 C 570.23949,658.50011 573.81207,657.45401 575.01511,659.52565 L 580.43582,668.86018 L 573.54043,656.01757 C 573.03313,655.07273 568.94397,655.38014 568.18951,655.54939 C 567.37506,655.73209 566.90072,653.11065 567.50814,652.76842 C 568.29757,652.32365 574.01269,652.05284 574.61612,653.14465 L 579.7107,662.36242 L 571.80618,648.84055 C 571.54309,648.3905 567.31941,648.96611 566.47326,649.12271 C 565.76137,649.25446 564.92389,646.16025 565.81023,645.93236 C 566.60103,645.72903 571.25315,644.61106 571.98998,645.43464 L 577.13859,651.18942 L 571.57451,642.92982 C 570.74784,641.70266 565.21809,642.83304 564.60917,642.85026 C 563.93716,642.86927 563.17764,640.5724 563.74262,640.14741 C 564.40965,639.64565 570.96289,638.39182 571.98593,639.62595 L 578.43924,647.41081 L 567.64974,632.64996 C 564.77274,631.20996 561.70755,633.41028 561.03971,633.33219 C 560.37187,633.2541 559.31313,631.64511 560.03807,630.72348 C 560.72758,629.8469 563.44036,628.58772 565.37929,628.93288 L 573.39494,630.35982 L 564.63719,626.25932 C 562.55717,625.28542 558.74668,627.6649 558.00597,627.75256 C 557.24971,627.84208 556.35983,625.62538 556.671,625.28624 C 556.98217,624.9471 561.66641,622.44309 564.23406,623.41097 L 571.70379,626.22669 L 563.19374,621.3777 C 561.15662,620.21697 556.25096,622.87065 555.33733,623.01633 C 554.32302,623.17807 553.28553,620.96204 553.80431,620.56247 C 554.25322,620.21671 558.27357,617.29963 560.75507,618.04647 L 567.38939,620.04315 L 559.17304,615.56578 C 558.32066,615.10129 553.06035,617.97193 552.23568,618.20202 C 551.42361,618.4286 549.96169,616.12008 550.68454,615.54142 C 551.40739,614.96275 556.83594,612.17249 558.00585,612.65456 L 565.63579,615.7985 L 553.51807,610.80388 C 553.07335,610.62058 549.31057,612.87042 548.75112,613.19173 C 548.21196,613.50139 546.59162,611.4919 547.13859,610.90874 C 547.78687,610.21757 551.67716,608.07574 553.42487,608.50126 L 562.07344,610.60694 L 550.43073,605.67945 C 549.05636,605.09778 545.69714,607.99837 544.71056,608.44794 C 543.79285,608.86612 542.64054,607.09003 542.90408,606.50194 C 543.18454,605.8761 546.75052,602.17198 548.8368,602.84591 L 557.77923,605.73457 L 546.47898,600.61035 C 544.90253,599.8955 541.35091,604.08403 540.74445,604.43312 C 540.10311,604.80229 538.27292,602.77217 538.65609,602.42633 C 539.03926,602.08049 541.28291,597.62396 544.26973,598.09747 L 551.15151,599.18846 L 540.93556,596.11929 C 538.74406,595.4609 537.36599,599.1192 536.48141,599.86858 C 535.62309,600.5957 533.67752,598.81707 534.03835,598.30743 C 534.42388,597.76291 535.7872,593.87711 538.2361,593.73267 L 544.63738,593.35511 L 531.09836,589.43563 C 528.55314,588.6988 527.6274,592.64399 527.0354,593.37664 C 526.42618,594.13062 524.1804,592.94584 524.54233,591.92277 C 524.91526,590.86864 526.64071,587.29571 528.1099,587.18652 L 537.53,586.48642 L 525.03042,585.78885 C 523.76602,585.71829 522.48888,589.74395 521.85595,590.64315 C 521.25044,591.50339 518.86637,590.83874 519.18732,589.63329 C 519.51141,588.41604 520.08148,584.33885 521.52185,584.21693 L 532.48876,583.28863 L 517.88032,583.0852 C 517.41406,583.07871 516.58852,587.75887 516.01679,588.40385 C 515.48607,589.00257 513.42023,588.33056 513.5603,587.36408 C 513.69796,586.41424 514.25947,581.6622 515.67283,581.53754 L 526.13944,580.61434 L 511.85308,580.74273 C 508.82775,580.76992 509.5908,585.37298 509.0808,586.18278 C 508.5708,586.99258 506.29037,586.32421 506.46917,585.31274 C 506.6559,584.25638 507.32309,580.01319 508.55322,579.80625 L 519.27142,578.00316 L 504.28108,579.63318 C 502.39614,579.83814 503.4234,583.81729 503.11181,584.82412 C 502.7751,585.91212 500.08282,585.44543 500.06233,584.38972 C 500.04183,583.33393 500.5395,579.08548 501.87126,578.737 L 512.66435,575.91286 L 497.38242,578.86334 C 496.68561,578.99787 497.00886,583.34192 496.81007,584.13708 C 496.59645,584.99153 494.41003,584.711 494.1912,583.72897 C 493.97427,582.75549 493.8428,578.5441 495.19115,578.06363 L 505.28566,574.46659 L 485.16923,579.07081 C 484.45423,579.23446 485.46801,582.92697 485.44342,583.82903 C 485.41945,584.7084 482.73456,584.84866 482.50099,583.94998 C 482.26742,583.0513 481.27277,577.65048 483.72888,577.07724 L 497.91853,573.76544 C 491.31733,573.92424 478.79958,576.2848 478.78681,577.00656 C 478.76964,577.97709 479.89801,582.87123 479.6708,584.09836 C 479.46353,585.21784 476.84395,585.34264 476.7257,584.12146 z M 653.61696,754.89333 C 653.37717,755.64077 652.78654,756.11488 652.29862,755.95162 C 651.81069,755.78836 651.60931,755.04924 651.84912,754.3018 C 652.08891,753.55438 652.67954,753.08026 653.16747,753.24353 C 653.65539,753.40679 653.85677,754.1459 653.61696,754.89333 z M 651.82605,758.47522 C 651.58625,759.22266 650.99563,759.69677 650.50771,759.53351 C 650.01978,759.37024 649.8184,758.63113 650.0582,757.8837 C 650.298,757.13627 650.88863,756.66215 651.37655,756.82542 C 651.86448,756.98868 652.06586,757.72779 651.82605,758.47522 z M 648.84111,764.10392 C 648.60132,764.85135 648.01069,765.32546 647.52277,765.1622 C 647.03484,764.99893 646.83346,764.25982 647.07326,763.51239 C 647.31306,762.76496 647.90369,762.29084 648.39161,762.45411 C 648.87954,762.61737 649.08092,763.35648 648.84111,764.10392 z M 646.70903,767.77109 C 646.46923,768.51852 645.87861,768.99263 645.39069,768.82937 C 644.90276,768.66611 644.70138,767.927 644.94118,767.17956 C 645.18098,766.43213 645.7716,765.95802 646.25953,766.12129 C 646.74745,766.28454 646.94883,767.02366 646.70903,767.77109 z M 651.05847,766.91826 C 650.81867,767.66569 650.22805,768.1398 649.74013,767.97654 C 649.2522,767.81328 649.05082,767.07416 649.29062,766.32673 C 649.53042,765.5793 650.12104,765.10519 650.60897,765.26845 C 651.09689,765.43171 651.29827,766.17083 651.05847,766.91826 z M 652.59357,761.97183 C 652.35377,762.71927 651.76314,763.19338 651.27522,763.03012 C 650.78729,762.86686 650.58591,762.12774 650.82572,761.38031 C 651.06552,760.63288 651.65614,760.15877 652.14407,760.32203 C 652.63199,760.48529 652.83337,761.2244 652.59357,761.97183 z M 645.17393,772.03525 C 644.93413,772.78268 644.34351,773.25679 643.85559,773.09353 C 643.36766,772.93027 643.16628,772.19115 643.40608,771.44372 C 643.64588,770.69629 644.2365,770.22218 644.72443,770.38544 C 645.21235,770.5487 645.41373,771.28781 645.17393,772.03525 z M 648.92639,771.60884 C 648.68659,772.35626 648.09597,772.83038 647.60805,772.66712 C 647.12012,772.50385 646.91874,771.76474 647.15854,771.01731 C 647.39834,770.26987 647.98896,769.79576 648.47689,769.95903 C 648.96481,770.12229 649.16619,770.8614 648.92639,771.60884 z M 646.53846,776.38469 C 646.29866,777.13212 645.70804,777.60624 645.22011,777.44297 C 644.73219,777.27971 644.53081,776.5406 644.77061,775.79316 C 645.01041,775.04573 645.60103,774.57162 646.08896,774.73488 C 646.57688,774.89814 646.77826,775.63726 646.53846,776.38469 z M 642.10373,776.64054 C 641.86394,777.38797 641.27331,777.86208 640.78539,777.69882 C 640.29746,777.53556 640.09608,776.79644 640.33589,776.04902 C 640.57568,775.30158 641.16631,774.82747 641.65424,774.99073 C 642.14216,775.15399 642.34354,775.8931 642.10373,776.64054 z M 642.35958,782.95149 C 642.11979,783.69893 641.52916,784.17304 641.04124,784.00978 C 640.55331,783.84652 640.35193,783.1074 640.59174,782.35997 C 640.83153,781.61254 641.42216,781.13843 641.91009,781.30169 C 642.39801,781.46495 642.59939,782.20407 642.35958,782.95149 z M 639.63052,781.50168 C 639.39073,782.24911 638.8001,782.72322 638.31218,782.55996 C 637.82425,782.3967 637.62287,781.65759 637.86268,780.91015 C 638.10247,780.16272 638.6931,779.68861 639.18103,779.85187 C 639.66895,780.01513 639.87033,780.75425 639.63052,781.50168 z M 638.86298,787.4715 C 638.62318,788.21893 638.03255,788.69304 637.54463,788.52978 C 637.0567,788.36652 636.85532,787.62741 637.09513,786.87998 C 637.33493,786.13254 637.92555,785.65843 638.41348,785.82169 C 638.9014,785.98495 639.10278,786.72407 638.86298,787.4715 z M 637.2426,785.16886 C 637.0028,785.91629 636.41218,786.3904 635.92425,786.22714 C 635.43633,786.06387 635.23495,785.32476 635.47475,784.57733 C 635.71455,783.8299 636.30517,783.35578 636.7931,783.51905 C 637.28102,783.68231 637.4824,784.42142 637.2426,785.16886 z M 634.59882,790.79755 C 634.35902,791.54498 633.7684,792.01909 633.28048,791.85583 C 632.79255,791.69256 632.59117,790.95345 632.83097,790.20602 C 633.07077,789.45859 633.66139,788.98447 634.14932,789.14774 C 634.63724,789.311 634.83862,790.05011 634.59882,790.79755 z"
       sodipodi:nodetypes="cccscsscsssssssssssssssssssssssssscsscccssscsssscsssscsssscssssccscsssssssssscscscssssssssccsscccsscccsscccsscccssccssscccsscccsscccsscccsscccsscccsscccsscccsscccsscccsscccsscccsscccsscccsscccsscccsscccsscccssccssccsssccsssccsssccsssccsssccsssccsssccsssccsssccsssccsssccsssccsssccsssccsssc" />
    <path
       id="path6169"
       style="fill:#dcbd4d;fill-opacity:1;fill-rule:evenodd;stroke:#545710;stroke-width:0.87800002;stroke-linecap:butt;stroke-linejoin:round;marker:none;marker-start:none;marker-mid:none;marker-end:none;stroke-miterlimit:4;stroke-dasharray:none;stroke-dashoffset:0;stroke-opacity:1;visibility:visible;display:inline;overflow:visible;enable-background:accumulate"
       d="M 630.65541,790.17142 C 631.91232,790.88952 633.04749,788.02057 631.98211,787.69894 C 608.30262,774.35159 565.82365,747.63596 559.37572,752.72246 C 547.72005,761.91711 535.77664,777.68843 498.40807,786.73408 C 496.06037,787.30238 496.90532,782.01114 495.87529,779.55786 C 495.51631,778.70284 493.14666,779.14978 493.1616,780.04029 C 493.19188,781.84447 494.36257,790.01485 496.47834,789.50807 C 525.2636,782.61328 540.14706,773.56649 560.09937,754.8934 C 565.27476,750.04982 607.02978,776.67356 630.65541,790.17142 z M 634.75611,783.17612 C 635.48776,783.59695 634.91407,786.17662 633.55003,785.52799 C 632.11318,784.84473 570.17219,747.22423 562.93367,749.64692 C 555.94828,751.9849 542.70091,770.61089 517.58484,779.73877 C 514.59968,780.82366 513.32455,776.15234 512.94141,773.2862 C 512.78233,772.09617 514.73728,771.34213 515.41389,772.32134 C 517.08296,774.73691 515.83988,778.49187 518.4291,777.3266 C 536.92836,769.01313 550.27437,756.05212 561.54667,747.29506 C 567.22377,742.88473 612.28855,770.25332 634.75611,783.17612 z M 640.48501,773.64804 C 618.74891,760.22346 578.14253,737.84911 570.12023,737.31308 C 562.09182,736.77664 556.63264,742.95592 552.44073,747.35536 C 550.42176,749.47229 550.63854,745.86121 549.2446,744.40045 C 548.39479,743.50989 547.24023,745.49341 547.37516,746.08897 C 547.91323,748.46383 550.40926,751.09988 551.35955,750.27065 C 557.52109,744.89397 562.19367,739.05219 569.95824,739.73988 C 577.84248,740.43818 616.90097,762.99897 639.09801,775.63808 C 639.8852,776.08631 641.26494,774.12974 640.48501,773.64804 z M 642.24544,771.67995 C 613.82745,754.0924 576.93161,737.3009 573.521,730.53674 C 570.12778,723.80707 578.12453,703.03946 577.21722,701.54123 C 576.48555,700.33302 573.29882,701.48396 571.16433,700.05861 C 570.50771,699.62013 570.51758,698.30542 571.51884,698.22251 C 573.58302,698.05159 575.91775,697.69088 578.52323,700.03038 C 581.21832,702.45034 573.32275,721.07549 575.18025,727.92045 C 577.0162,734.68594 641.56816,768.594 642.61636,769.29578 C 643.62255,769.96944 643.18522,772.26157 642.24544,771.67995 z M 636.32401,780.40212 C 637.17709,780.8703 638.48697,778.66858 637.65071,778.17086 C 615.4514,764.95826 574.16834,741.4889 565.40615,742.47071 C 558.33157,743.26343 550.64057,752.68729 537.36465,763.15508 C 535.61036,764.5383 536.10524,761.84325 534.47005,759.65743 C 533.70427,758.63378 532.19555,759.87256 532.41969,760.92382 C 532.87676,763.06756 534.42943,767.4042 536.09826,766.23061 C 554.47498,753.30725 560.13451,745.15763 564.92372,744.70197 C 573.69868,743.86708 613.67712,767.97317 636.32401,780.40212 z M 644.28419,766.65274 C 645.28828,767.27857 646.95242,764.53329 645.65655,763.75636 C 624.51338,751.08003 578.61281,731.01353 580.44439,718.95558 C 584.11556,694.78695 586.68487,667.10248 573.5162,633.91311 C 572.41599,631.14023 564.97517,634.05012 562.1818,635.48512 C 561.35333,635.91073 561.93904,637.90904 562.96524,637.96941 C 566.07396,638.15228 571.12246,633.96594 572.09439,636.61918 C 584.00196,669.12505 581.54237,686.66705 577.99261,721.34529 C 576.92371,731.86024 623.04028,753.41195 644.28419,766.65274 z M 647.05819,761.58718 C 648.10319,762.17358 649.31126,759.77324 648.26427,759.17501 C 627.32361,747.20991 581.72668,723.44494 583.67157,715.95604 C 593.76727,677.0819 586.72327,619.44456 537.11349,587.44175 C 534.88069,586.0014 530.99673,592.5323 529.77455,595.47171 C 529.44351,596.26785 531.03357,597.19611 531.75319,596.61948 C 533.96175,594.84976 534.29061,588.86349 536.43389,590.21155 C 584.60183,620.50766 589.58242,678.4732 581.73147,717.06901 C 580.14697,724.85851 625.71967,749.61309 647.05819,761.58718 z M 649.34975,756.88344 C 650.25004,757.4043 651.60128,754.92575 650.67645,754.41096 C 630.10123,742.95835 584.97577,717.88388 586.38703,713.505 C 611.02264,637.31755 543.56464,564.26693 489.09063,572.22028 C 487.66349,572.42865 488.71224,581.09803 489.11882,583.60359 C 489.25448,584.43959 490.61507,584.80712 491.00361,583.97044 C 492.07513,581.66309 489.31715,573.62707 490.97984,573.63207 C 563.98571,573.85197 602.73009,655.72549 584.66747,713.93319 C 582.64969,720.43559 628.43922,744.78585 649.34975,756.88344 z M 642.01845,779.96659 C 641.77865,780.71401 641.18803,781.18813 640.70011,781.02487 C 640.21218,780.8616 640.0108,780.12249 640.2506,779.37506 C 640.4904,778.62762 641.08102,778.15351 641.56895,778.31677 C 642.05687,778.48003 642.25825,779.21915 642.01845,779.96659 z M 639.80109,784.74244 C 639.56129,785.48987 638.97067,785.96398 638.48275,785.80072 C 637.99482,785.63746 637.79344,784.89835 638.03324,784.15092 C 638.27304,783.40348 638.86366,782.92937 639.35159,783.09263 C 639.83951,783.25589 640.04089,783.99501 639.80109,784.74244 z M 636.47505,788.15377 C 636.23525,788.9012 635.64463,789.37531 635.15671,789.21205 C 634.66878,789.04879 634.4674,788.30967 634.7072,787.56224 C 634.947,786.81481 635.53762,786.3407 636.02555,786.50396 C 636.51347,786.66722 636.71485,787.40634 636.47505,788.15377 z M 644.3211,780.05186 C 644.0813,780.7993 643.49068,781.27341 643.00276,781.11015 C 642.51483,780.94689 642.31345,780.20777 642.55325,779.46034 C 642.79305,778.71291 643.38367,778.2388 643.8716,778.40206 C 644.35952,778.56532 644.5609,779.30444 644.3211,780.05186 z M 644.40638,775.27601 C 644.16658,776.02344 643.57596,776.49755 643.08804,776.33429 C 642.60011,776.17103 642.39873,775.43192 642.63853,774.68448 C 642.87833,773.93705 643.46896,773.46294 643.95688,773.62621 C 644.44481,773.78946 644.64619,774.52858 644.40638,775.27601 z M 645.68563,777.3228 C 645.44584,778.07024 644.85521,778.54435 644.36729,778.38109 C 643.87936,778.21783 643.67798,777.47871 643.91778,776.73128 C 644.15758,775.98385 644.74821,775.50974 645.23613,775.673 C 645.72406,775.83626 645.92544,776.57538 645.68563,777.3228 z M 646.96488,772.97336 C 646.72509,773.7208 646.13446,774.19491 645.64654,774.03165 C 645.15861,773.86839 644.95723,773.12927 645.19703,772.38184 C 645.43683,771.63441 646.02746,771.1603 646.51538,771.32356 C 647.00331,771.48682 647.20469,772.22594 646.96488,772.97336 z M 649.8645,768.79449 C 649.62471,769.54192 649.03408,770.01603 648.54616,769.85277 C 648.05823,769.68951 647.85685,768.95039 648.09666,768.20296 C 648.33645,767.45553 648.92708,766.98142 649.41501,767.14468 C 649.90293,767.30794 650.10431,768.04706 649.8645,768.79449 z M 651.05847,764.1892 C 650.81867,764.93663 650.22805,765.41074 649.74013,765.24748 C 649.2522,765.08422 649.05082,764.3451 649.29062,763.59767 C 649.53042,762.85024 650.12104,762.37613 650.60897,762.53939 C 651.09689,762.70265 651.29827,763.44177 651.05847,764.1892 z M 650.8879,760.69259 C 650.64811,761.44002 650.05748,761.91413 649.56956,761.75087 C 649.08163,761.58761 648.88025,760.84849 649.12006,760.10106 C 649.35985,759.35363 649.95048,758.87952 650.43841,759.04278 C 650.92633,759.20604 651.12771,759.94516 650.8879,760.69259 z M 653.53168,758.13409 C 653.29188,758.88152 652.70126,759.35563 652.21334,759.19237 C 651.72541,759.02911 651.52403,758.29 651.76383,757.54257 C 652.00363,756.79513 652.59425,756.32102 653.08218,756.48428 C 653.5701,756.64754 653.77148,757.38666 653.53168,758.13409 z M 648.67054,766.74769 C 648.43074,767.49513 647.84012,767.96924 647.3522,767.80598 C 646.86427,767.64272 646.66289,766.9036 646.90269,766.15616 C 647.14249,765.40874 647.73311,764.93462 648.22104,765.09789 C 648.70896,765.26115 648.91034,766.00026 648.67054,766.74769 z"
       sodipodi:nodetypes="ccssssssccszssssscczsssszscczzsszzzccsssssssccsssssssccsssssssccsssssssccsssccsssccsssccsssccsssccsssccsssccsssccsssccsssccsssccsssc" />
    <path
       sodipodi:type="arc"
       style="fill:#8dc4c1;fill-opacity:1;fill-rule:evenodd;stroke:#a299c0;stroke-width:2.90815377;stroke-linecap:butt;stroke-linejoin:miter;stroke-miterlimit:4;stroke-dasharray:none;stroke-opacity:0.8921933"
       id="path6173"
       sodipodi:cx="128.79445"
       sodipodi:cy="577.59052"
       sodipodi:rx="46.972092"
       sodipodi:ry="47.477169"
       d="m 175.76654,577.59052 a 46.972092,47.477169 0 0 1 -46.97209,47.47716 46.972092,47.477169 0 0 1 -46.972093,-47.47716 46.972092,47.477169 0 0 1 46.972093,-47.47717 46.972092,47.477169 0 0 1 46.97209,47.47717 z"
       transform="matrix(0.492669,0.492669,-0.492669,0.492669,694.65021,332.89897)" />
    <path
       style="fill:#8dbac1;fill-opacity:1;fill-rule:evenodd;stroke:none;stroke-width:2.90815377;stroke-linecap:butt;stroke-linejoin:miter;stroke-miterlimit:4;stroke-opacity:0.8921933"
       d="M 476.88309,713.23642 C 473.07075,713.52819 454.37894,704.71225 452.58302,683.92767 C 450.67644,661.8624 467.11665,648.90111 470.69926,648.84583 C 488.89834,648.56505 501.61869,657.36938 505.25107,675.86303 C 508.51183,692.46465 495.28909,710.41189 476.88309,713.23642 z"
       id="path6175"
       sodipodi:nodetypes="csssc" />
    <path
       inkscape:transform-center-x="-0.4934668"
       inkscape:transform-center-y="4.313811"
       style="fill:#97d6c1;fill-opacity:1;fill-rule:evenodd;stroke:#97c4c1;stroke-width:0.48462036;stroke-linecap:butt;stroke-linejoin:round;stroke-miterlimit:4;stroke-opacity:1"
       d="M 485.31726,673.69898 C 484.32555,669.59177 485.33213,665.4016 487.5641,664.34594 C 489.79607,663.29026 492.41239,665.76688 493.4041,669.87408 C 494.39581,673.98129 493.38922,678.17145 491.15725,679.22713 C 488.93121,680.28001 486.32311,677.82185 485.32477,673.72993 L 485.31726,673.69898 z"
       id="path6177"
       sodipodi:nodetypes="cssscc" />
    <path
       id="path2523"
       style="fill:#e4c75d;fill-opacity:1;fill-rule:evenodd;stroke:#6e750f;stroke-width:0.87803066;stroke-linecap:butt;stroke-linejoin:round;stroke-miterlimit:4;stroke-opacity:1"
       d="M 647.2328,769.72692 C 646.99301,770.47435 646.40238,770.94846 645.91446,770.7852 C 645.42653,770.62194 645.22515,769.88282 645.46496,769.13539 C 645.70475,768.38796 646.29538,767.91385 646.78331,768.07711 C 647.27123,768.24037 647.47261,768.97948 647.2328,769.72692 z M 643.2245,777.82882 C 642.9847,778.57625 642.39408,779.05036 641.90616,778.8871 C 641.41823,778.72384 641.21685,777.98472 641.45665,777.23729 C 641.69645,776.48986 642.28707,776.01575 642.775,776.17901 C 643.26292,776.34227 643.4643,777.08138 643.2245,777.82882 z" />
    <path
       style="opacity:1;fill:none;fill-opacity:1;fill-rule:evenodd;stroke:#000000;stroke-width:2.02622461;stroke-linecap:butt;stroke-linejoin:miter;marker:none;marker-start:none;marker-mid:none;marker-end:none;stroke-miterlimit:4;stroke-dasharray:none;stroke-dashoffset:0;stroke-opacity:1;visibility:visible;display:inline;overflow:visible;enable-background:accumulate"
       d="M 680.28666,630.77208 L 563.02259,630.77208 M 679.6044,591.68312 L 544.88834,591.68312 M 619.56505,765.86061 L 680.28666,765.86061"
       id="path2525"
       sodipodi:nodetypes="cccccc" />
    <circle
       r="10.613557"
       cy="591.6803"
       cx="693.44928"
       style="opacity:1;fill:#ffffff;fill-opacity:1;fill-rule:evenodd;stroke:none;stroke-width:3;stroke-linecap:butt;stroke-linejoin:round;stroke-miterlimit:4;stroke-dasharray:none;stroke-opacity:1"
       id="path2529" />
    <text
       xml:space="preserve"
       style="font-style:normal;font-variant:normal;font-weight:normal;font-stretch:normal;font-size:27.01632881px;font-family:Arial;-inkscape-font-specification:Arial;fill:#000000;fill-opacity:1;stroke:none;stroke-width:1px;stroke-linecap:butt;stroke-linejoin:miter;stroke-opacity:1"
       x="686.5885"
       y="599.27301"
       id="text2531"><tspan
         sodipodi:role="line"
         id="tspan2533"
         x="686.5885"
         y="599.27301"
         style="font-size:21.6130619px">2</tspan></text>
    <g
       id="g2535"
       transform="matrix(0.6754082,0,0,0.6754082,388.04866,329.35302)">
      <path
         transform="matrix(0.8461538,0,0,0.8461538,142.11699,58.668407)"
         d="m 384.99999,458.07648 a 18.571428,18.571428 0 0 1 -18.57143,18.57143 18.571428,18.571428 0 0 1 -18.57143,-18.57143 18.571428,18.571428 0 0 1 18.57143,-18.57143 18.571428,18.571428 0 0 1 18.57143,18.57143 z"
         sodipodi:ry="18.571428"
         sodipodi:rx="18.571428"
         sodipodi:cy="458.07648"
         sodipodi:cx="366.42856"
         id="path2537"
         style="opacity:1;fill:#ffffff;fill-opacity:1;fill-rule:evenodd;stroke:none;stroke-width:3;stroke-linecap:butt;stroke-linejoin:round;stroke-miterlimit:4;stroke-dasharray:none;stroke-opacity:1"
         sodipodi:type="arc" />
      <text
         id="text2539"
         y="456.67328"
         x="443.9314"
         style="font-style:normal;font-variant:normal;font-weight:normal;font-stretch:normal;font-size:40px;font-family:Arial;-inkscape-font-specification:Arial;fill:#000000;fill-opacity:1;stroke:none;stroke-width:1px;stroke-linecap:butt;stroke-linejoin:miter;stroke-opacity:1"
         xml:space="preserve"><tspan
           style="font-size:32px"
           y="456.67328"
           x="443.9314"
           id="tspan2541"
           sodipodi:role="line">1</tspan></text>
    </g>
    <g
       id="g2543"
       transform="matrix(0.6754082,0,0,0.6754082,386.62097,425.59621)">
      <path
         transform="matrix(0.8461538,0,0,0.8461538,144.2308,116.1876)"
         d="m 384.99999,458.07648 a 18.571428,18.571428 0 0 1 -18.57143,18.57143 18.571428,18.571428 0 0 1 -18.57143,-18.57143 18.571428,18.571428 0 0 1 18.57143,-18.57143 18.571428,18.571428 0 0 1 18.57143,18.57143 z"
         sodipodi:ry="18.571428"
         sodipodi:rx="18.571428"
         sodipodi:cy="458.07648"
         sodipodi:cx="366.42856"
         id="path2545"
         style="opacity:1;fill:#ffffff;fill-opacity:1;fill-rule:evenodd;stroke:none;stroke-width:3;stroke-linecap:butt;stroke-linejoin:round;stroke-miterlimit:4;stroke-dasharray:none;stroke-opacity:1"
         sodipodi:type="arc" />
      <text
         id="text2547"
         y="514.87488"
         x="446.03394"
         style="font-size:40px;font-style:normal;font-variant:normal;font-weight:normal;font-stretch:normal;fill:#000000;fill-opacity:1;stroke:none;stroke-width:1px;stroke-linecap:butt;stroke-linejoin:miter;stroke-opacity:1;font-family:Arial;-inkscape-font-specification:Arial"
         xml:space="preserve"><tspan
           style="font-size:32px"
           y="514.87488"
           x="446.03394"
           id="tspan2549"
           sodipodi:role="line">3</tspan></text>
    </g>
  </g>
</svg>
